<?xml version="1.0" standalone="no"?>
<!DOCTYPE svg PUBLIC "-//W3C//DTD SVG 1.1//EN" "http://www.w3.org/Graphics/SVG/1.1/DTD/svg11.dtd" >
<svg>
<metadata>
Created by FontForge 20090622 at Sun May  4 10:48:07 2014
 By ffonts
Created by gluk ( www.glukfonts.pl | gluksza@wp.pl ) with FontForge 2.0
</metadata>
<defs>
<font id="Dagerotypos" horiz-adv-x="400" >
  <font-face 
    font-family="Dagerotypos"
    font-weight="500"
    font-stretch="normal"
    units-per-em="1000"
    panose-1="2 0 6 3 0 0 0 0 0 0"
    ascent="600"
    descent="-400"
    x-height="200"
    cap-height="340"
    bbox="-187 -350 630 601"
    underline-thickness="50"
    underline-position="-100"
    unicode-range="U+0020-U+E026"
  />
<missing-glyph horiz-adv-x="364" 
d="M33 0v600h265v-600h-265zM66 33h199v534h-199v-534z" />
    <glyph glyph-name=".notdef" horiz-adv-x="364" 
d="M33 0v600h265v-600h-265zM66 33h199v534h-199v-534z" />
    <glyph glyph-name=".null" horiz-adv-x="0" 
 />
    <glyph glyph-name="nonmarkingreturn" horiz-adv-x="333" 
 />
    <glyph glyph-name="space" unicode=" " horiz-adv-x="180" 
 />
    <glyph glyph-name="exclam" unicode="!" horiz-adv-x="220" 
d="M45 240l-11 140h152l-11 -141q-2 -29 -20.5 -49.5t-44.5 -20.5t-44.5 21t-20.5 50zM65 240q2 -22 15 -36.5t30 -14.5t30 14.5t15 37.5l9 119h-108zM80 40q0 -12 9 -21t21 -9t21 9t9 21t-9 21t-21 9t-21 -9t-9 -21zM60 40q0 21 14.5 35.5t35.5 14.5t35.5 -14.5t14.5 -35.5
t-14.5 -35.5t-35.5 -14.5t-35.5 14.5t-14.5 35.5z" />
    <glyph glyph-name="quotedbl" unicode="&#x22;" horiz-adv-x="360" 
d="M226 285l-9 18q39 21 61 67h-71v150h110v-64q0 -56 -25 -102.5t-66 -68.5zM286 390q11 31 11 66v44h-70v-110h59zM66 285l-9 18q39 21 61 67h-71v150h110v-64q0 -56 -25 -102.5t-66 -68.5zM126 390q11 31 11 66v44h-70v-110h59z" />
    <glyph glyph-name="numbersign" unicode="#" horiz-adv-x="300" 
d="M93 65h-53v20h54l2 80h-51v20h52l3 90h20l-3 -90h70l3 90h20l-3 -90h53v-20h-54l-2 -80h51v-20h-52l-3 -90h-20l3 90h-70l-3 -90h-20zM114 85h70l2 80h-70z" />
    <glyph glyph-name="dollar" unicode="$" horiz-adv-x="285" 
d="M215 239v56h20v-82q-24 8 -55 11q3 -25 29 -46q46 -38 46 -78q0 -35 -31.5 -62t-78.5 -32v-156h-20v155q-32 0 -60 6v-56h-20v82q26 -9 60 -11q-3 25 -29 46q-46 38 -46 78q0 35 30 61.5t75 32.5v156h20v-155q32 0 60 -6zM160 225h-5q-43 0 -74 -22t-31 -53q0 -30 39 -62
q34 -28 36 -63q46 0 78 22t32 53q0 30 -39 62q-33 28 -36 63z" />
    <glyph glyph-name="percent" unicode="%" horiz-adv-x="350" 
d="M50 250q0 -25 17.5 -42.5t42.5 -17.5t42.5 17.5t17.5 42.5t-17.5 42.5t-42.5 17.5t-42.5 -17.5t-17.5 -42.5zM30 250q0 33 23.5 56.5t56.5 23.5t56.5 -23.5t23.5 -56.5t-23.5 -56.5t-56.5 -23.5t-56.5 23.5t-23.5 56.5zM180 0q0 -25 17.5 -42.5t42.5 -17.5t42.5 17.5
t17.5 42.5t-17.5 42.5t-42.5 17.5t-42.5 -17.5t-17.5 -42.5zM160 0q0 33 23.5 56.5t56.5 23.5t56.5 -23.5t23.5 -56.5t-23.5 -56.5t-56.5 -23.5t-56.5 23.5t-23.5 56.5zM67 13l-14 14l230 210l14 -14z" />
    <glyph glyph-name="ampersand" unicode="&#x26;" horiz-adv-x="350" 
d="M329 55q-75 -60 -142 -60q-63 0 -107.5 33.5t-44.5 81.5q0 27 18 48.5t47 30.5q-23 31 -23 58q0 32 23.5 55t56.5 23t56 -21v86h20v-130h-20q0 19 -16.5 32t-39.5 13q-25 0 -42.5 -17t-17.5 -41q0 -23 25 -53q8 1 15 1h118v-20h-116l61 -62q43 -43 97 -43h20zM114 172
q-26 -6 -42.5 -23t-16.5 -39q0 -39 38.5 -67t93.5 -28q50 0 103 35q-58 3 -104 49l-60 60q-6 7 -12 13z" />
    <glyph glyph-name="quotesingle" unicode="'" horiz-adv-x="200" 
d="M66 285l-9 18q39 21 61 67h-71v150h110v-64q0 -56 -25 -102.5t-66 -68.5zM126 390q11 31 11 66v44h-70v-110h59z" />
    <glyph glyph-name="parenleft" unicode="(" horiz-adv-x="280" 
d="M253 367q-29 -9 -49 -30.5t-25 -49.5l-52 -295q31 -27 66 -27q31 0 60 8l5 -19q-32 -9 -65 -9q-66 0 -110.5 66.5t-44.5 158.5t44.5 158.5t110.5 66.5q34 0 65 -9zM222 373q-14 2 -29 2q-54 0 -94.5 -59.5t-40.5 -145.5q0 -99 52 -161l49 281q10 54 63 83z" />
    <glyph glyph-name="parenright" unicode=")" horiz-adv-x="280" 
d="M28 -27q29 9 48.5 30.5t25.5 49.5l52 295q-31 27 -67 27q-31 0 -59 -8l-6 19q32 9 65 9q66 0 110.5 -66.5t44.5 -158.5t-44.5 -158.5t-110.5 -66.5q-34 0 -65 9zM59 -33q14 -2 28 -2q54 0 94.5 59.5t40.5 145.5q0 99 -51 161l-50 -281q-9 -54 -62 -83z" />
    <glyph glyph-name="asterisk" unicode="*" horiz-adv-x="200" 
d="M84 296l-6 -19l-57 18l6 19zM104 258l16 12l35 -49l-16 -12zM122 277l-6 19l57 18l6 -19zM110 300h-20v60h20v-60zM80 270l16 -12l-35 -49l-16 12z" />
    <glyph glyph-name="plus" unicode="+" horiz-adv-x="260" 
d="M140 140h90v-20h-90v-90h-20v90h-90v20h90v90h20v-90z" />
    <glyph glyph-name="comma" unicode="," horiz-adv-x="200" 
d="M69 -145l-9 18q29 15 49.5 46t27.5 71h-37q-21 0 -35.5 14.5t-14.5 35.5t14.5 35.5t35.5 14.5q25 0 42.5 -19t17.5 -45q0 -56 -25 -102.5t-66 -68.5zM139 10q1 8 1 16q0 19 -12 31.5t-28 12.5q-12 0 -21 -9t-9 -21t9 -21t21 -9h39z" />
    <glyph glyph-name="hyphen" unicode="-" horiz-adv-x="300" 
d="M70 140v-40h160v40h-160zM50 160h180v20h20v-100h-180v-20h-20v100z" />
    <glyph glyph-name="period" unicode="." horiz-adv-x="200" 
d="M70 40q0 -12 9 -21t21 -9t21 9t9 21t-9 21t-21 9t-21 -9t-9 -21zM50 40q0 21 14.5 35.5t35.5 14.5t35.5 -14.5t14.5 -35.5t-14.5 -35.5t-35.5 -14.5t-35.5 14.5t-14.5 35.5z" />
    <glyph glyph-name="slash" unicode="/" horiz-adv-x="360" 
d="M-24 -145l286 630h26q26 0 43.5 -19t17.5 -44q0 -13 -5 -24l-246 -543h-122zM7 -125h79l240 531q3 8 3 16q0 17 -12 30t-29 13h-14z" />
    <glyph glyph-name="zero" unicode="0" horiz-adv-x="330" 
d="M35 125q0 54 38 92t92 38t92 -38t38 -92t-38 -92t-92 -38t-92 38t-38 92zM175 15q42 4 71 35.5t29 74.5t-29 74.5t-71 35.5v-220zM155 15v220q-42 -4 -71 -35.5t-29 -74.5t29 -74.5t71 -35.5z" />
    <glyph glyph-name="one" unicode="1" horiz-adv-x="240" 
d="M170 250v-230h60v-20h-220v20h60v151q-14 -6 -30 -6v20q28 0 52 29q29 36 68 36h10zM90 184v-164h60v209q-23 -4 -43 -28q-8 -10 -17 -17z" />
    <glyph glyph-name="two" unicode="2" horiz-adv-x="315" 
d="M140 235q-42 -1 -75 -12v97h20v-71q28 6 60 6q50 0 85 -28t35 -68q0 -30 -19 -54.5t-56 -55.5q-17 -14 -28 -29h113v45h20v-130h-20v65h-245v16q0 60 60 110q50 42 50 94v15zM160 234v-14q0 -62 -58 -110q-50 -42 -52 -90h88q14 24 40 45q23 19 34 29.5t22 28.5t11 36
q0 28 -24.5 49.5t-60.5 25.5z" />
    <glyph glyph-name="three" unicode="3" horiz-adv-x="320" 
d="M6 -65l12 15q43 -34 78 -46q24 14 38 37.5t14 50.5v73h-78v20h78v51q0 54 -49 86q-27 -16 -27 -42h-20v140h20v-94q29 29 76 29q43 0 73.5 -28t30.5 -67q0 -26 -14 -48t-38 -34q40 -12 65 -38.5t25 -59.5q0 -43 -41.5 -74t-100.5 -31q-67 0 -142 60zM168 87q28 6 46 26.5
t18 46.5q0 31 -24.5 53t-59.5 22q-14 0 -28 -4q48 -38 48 -95v-49zM121 -103q13 -2 27 -2q51 0 86.5 25t35.5 60q0 31 -29 55t-73 29v-72q0 -57 -47 -95z" />
    <glyph glyph-name="four" unicode="4" horiz-adv-x="335" 
d="M166 60h-151v20h1q0 21 20 48.5t40.5 46l57.5 50.5q112 93 112 130h20v-275h44v-20h-44v-40h44v-20h-210v20h66v40zM166 80v45l80 76v104q-24 -33 -99 -96q-111 -92 -111 -129h130zM186 117v-97h60v154z" />
    <glyph glyph-name="five" unicode="5" horiz-adv-x="325" 
d="M11 -65l12 15q38 -30 67 -43q26 14 42 38.5t16 53.5v86h-103v165h200v70h20v-140h-20v50h-77v-125q55 -3 93.5 -36.5t38.5 -78.5q0 -48 -44.5 -81.5t-107.5 -33.5q-62 0 -137 60zM114 -101q17 -4 34 -4q55 0 93.5 28t38.5 67q0 37 -32.5 64.5t-79.5 30.5v-86
q0 -62 -54 -100zM148 105v125h-83v-125h83z" />
    <glyph glyph-name="six" unicode="6" horiz-adv-x="340" 
d="M183 235q52 0 88.5 -33.5t36.5 -81.5q0 -52 -33.5 -88.5t-81.5 -36.5q-68 0 -116.5 51.5t-48.5 123.5t48.5 123.5t116.5 51.5q31 0 60 -6v51h20v-77q-35 12 -80 12q-10 0 -20 -1v-89h10zM173 215v-105q0 -27 14.5 -50.5t38.5 -37.5q28 11 45 38t17 60q0 39 -31 67t-74 28
h-10zM200 15q-47 37 -47 95v209q-46 -14 -75.5 -55.5t-29.5 -93.5q0 -64 42.5 -109.5t102.5 -45.5h7z" />
    <glyph glyph-name="seven" unicode="7" horiz-adv-x="335" 
d="M30 170v150h20v-70h275l-53 -72q-37 -50 -52 -82.5t-15 -75.5q0 -10 4 -35t4 -38q0 -29 -22 -51t-55 -22q-35 0 -55 24t-20 63q0 71 54.5 134t137.5 106q8 4 17 8l15 21h-235v-60h-20zM243 173q-72 -42 -117 -97.5t-45 -114.5q0 -31 14 -49t41 -18q24 0 40.5 16t16.5 37
q0 14 -4 38.5t-4 34.5q0 42 14 76.5t44 76.5z" />
    <glyph glyph-name="eight" unicode="8" horiz-adv-x="330" 
d="M40 95q0 -33 36.5 -56.5t88.5 -23.5q19 0 37 4q-52 38 -52 98v57q-47 -4 -78.5 -26t-31.5 -53zM55 260q0 35 32 60t78 25t78 -25t32 -60q0 -24 -16 -43.5t-42 -29.5q41 -11 67 -36t26 -56q0 -41 -42.5 -70.5t-102.5 -29.5t-102.5 29.5t-42.5 70.5q0 31 25.5 56t67.5 36
q-26 11 -42 30t-16 43zM170 195q36 1 60.5 20t24.5 45q0 27 -26.5 46t-63.5 19t-63.5 -19t-26.5 -46q0 -24 21.5 -42t53.5 -22v88h20v-89zM170 175v-58q0 -29 15.5 -53t42.5 -38q28 11 45 29t17 40q0 32 -35 55.5t-85 24.5z" />
    <glyph glyph-name="nine" unicode="9" horiz-adv-x="345" 
d="M150 15q-52 0 -88.5 35t-36.5 85t36.5 85t88.5 35q68 0 116.5 -55.5t48.5 -134.5q0 -78 -48 -134t-116 -56h-1q-61 0 -136 60l12 15q70 -55 124 -55q10 0 20 2v118h-20zM170 35v102q0 29 -16 53t-42 38q-30 -11 -48.5 -36.5t-18.5 -56.5q0 -41 31 -70.5t74 -29.5h20z
M139 235q51 -38 51 -98v-235q46 15 75.5 60t29.5 103q0 70 -42.5 120t-102.5 50h-11z" />
    <glyph glyph-name="colon" unicode=":" horiz-adv-x="200" 
d="M70 170q0 -12 9 -21t21 -9t21 9t9 21t-9 21t-21 9t-21 -9t-9 -21zM50 170q0 21 14.5 35.5t35.5 14.5t35.5 -14.5t14.5 -35.5t-14.5 -35.5t-35.5 -14.5t-35.5 14.5t-14.5 35.5zM70 40q0 -12 9 -21t21 -9t21 9t9 21t-9 21t-21 9t-21 -9t-9 -21zM50 40q0 21 14.5 35.5
t35.5 14.5t35.5 -14.5t14.5 -35.5t-14.5 -35.5t-35.5 -14.5t-35.5 14.5t-14.5 35.5z" />
    <glyph glyph-name="semicolon" unicode=";" horiz-adv-x="200" 
d="M75 170q0 -12 9 -21t21 -9t21 9t9 21t-9 21t-21 9t-21 -9t-9 -21zM55 170q0 21 14.5 35.5t35.5 14.5t35.5 -14.5t14.5 -35.5t-14.5 -35.5t-35.5 -14.5t-35.5 14.5t-14.5 35.5zM69 -145l-9 18q29 15 49.5 46t27.5 71h-37q-21 0 -35.5 14.5t-14.5 35.5t14.5 35.5t35.5 14.5
q25 0 42.5 -19t17.5 -45q0 -56 -25 -102.5t-66 -68.5zM139 10q1 8 1 16q0 19 -12 31.5t-28 12.5q-12 0 -21 -9t-9 -21t9 -21t21 -9h39z" />
    <glyph glyph-name="less" unicode="&#x3c;" horiz-adv-x="210" 
d="M94 64l44 44q13 13 13 32.5t-13 32.5l-4 3l-76 -76zM108 50l50 -50l-14 -14l-114 114l104 104l18 -17q19 -19 19 -46.5t-19 -46.5z" />
    <glyph glyph-name="equal" unicode="=" horiz-adv-x="300" 
d="M70 85v-35h160v35h-160zM50 105h200v-75h-180v-20h-20v95zM70 190v-35h160v35h-160zM50 210h180v20h20v-95h-200v75z" />
    <glyph glyph-name="greater" unicode="&#x3e;" horiz-adv-x="210" 
d="M116 136l-44 -44q-13 -13 -13 -32q0 -20 13 -33l4 -3l76 76zM102 150l-50 50l14 14l114 -114l-104 -104l-18 17q-19 19 -19 47q0 27 19 46z" />
    <glyph glyph-name="question" unicode="?" horiz-adv-x="260" 
d="M90 40q0 -12 9 -21t21 -9t21 9t9 21t-9 21t-21 9t-21 -9t-9 -21zM70 40q0 21 14.5 35.5t35.5 14.5t35.5 -14.5t14.5 -35.5t-14.5 -35.5t-35.5 -14.5t-35.5 14.5t-14.5 35.5zM140 190q0 38 36 68q29 24 29 52q0 23 -22 39t-53 16q0 -38 -36 -68q-29 -24 -29 -52
q0 -23 22 -39t53 -16zM140 170q-39 0 -67 22t-28 53q0 38 36 68q29 24 29 51q-44 -2 -80 -14v80h20v-54q38 9 80 9q39 0 67 -22t28 -53q0 -38 -36 -68q-29 -24 -29 -52q0 -8 -6 -14t-14 -6z" />
    <glyph glyph-name="at" unicode="@" horiz-adv-x="620" 
d="M379 190h21l-8 -160h56q46 0 79 35t33 85q0 86 -70 148t-170 62q-108 0 -184 -76t-76 -184t76 -184t184 -76q83 0 151 46l11 -16q-73 -50 -162 -50q-116 0 -198 82t-82 198t82 198t198 82q107 0 183.5 -67t76.5 -163q0 -58 -38.5 -99t-93.5 -41h-77q1 12 2 36t1 35
q-18 -35 -45.5 -55.5t-60.5 -20.5q-29 0 -49.5 17.5t-20.5 42.5q0 54 33.5 92t81.5 38q28 0 64 -12l2 -2v4.5v4.5zM377 162q-39 13 -65 13q-24 -30 -24 -67q0 -39 26 -69q26 17 43 50t20 73zM296 30q-28 35 -28 78q0 33 17 62q-29 -11 -48 -40t-19 -65q0 -17 14.5 -28.5
t35.5 -11.5q15 0 28 5z" />
    <glyph glyph-name="A" unicode="A" horiz-adv-x="425" 
d="M159 325l198 -343q18 18 18 55q0 45 -27 91l-100 172q-14 25 -33 25h-56zM136 325h-31v20h110q30 0 51 -35l100 -172q29 -50 29 -101q0 -53 -35 -78l-9 -6l-73 127h-203l-35 -60h89v-20h-123l159 275zM176 255l-90 -155h180z" />
    <glyph glyph-name="B" unicode="B" horiz-adv-x="385" 
d="M153 320q41 -37 41 -90v-40h46q20 0 39 -5q15 25 15 50q0 35 -31 60t-74 25h-36zM118 320h-28v-300h84v210q0 28 -15 52t-41 38zM194 20h46q43 0 74 22t31 53t-31 53t-74 22h-46v-150zM298 179q30 -12 48.5 -34.5t18.5 -49.5q0 -39 -36.5 -67t-88.5 -28h-230v20h60v300
h-60v20h179q52 0 88.5 -31t36.5 -74q0 -28 -16 -56z" />
    <glyph glyph-name="C" unicode="C" horiz-adv-x="340" 
d="M28 170q0 72 48.5 123.5t116.5 51.5q46 0 75 -29v104h20v-150h-20q0 24 -22.5 39.5t-52.5 15.5q-10 0 -20 -1v-214q0 -29 16 -53.5t43 -38.5q36 6 67 23l9 -17q-53 -29 -115 -29q-68 0 -116.5 51.5t-48.5 123.5zM48 170q0 -64 42.5 -109.5t102.5 -45.5h7q-47 37 -47 95
v209q-46 -14 -75.5 -55.5t-29.5 -93.5z" />
    <glyph glyph-name="D" unicode="D" 
d="M210 0h-200v20h60v300h-60v20h200q69 0 117 -49t48 -121t-48 -121t-117 -49zM194 320h-104v-300h48q26 14 41 38t15 52v210zM173 20h37q60 0 102.5 43t42.5 107q0 63 -41 105.5t-100 44.5v-210q0 -53 -41 -90z" />
    <glyph glyph-name="E" unicode="E" horiz-adv-x="365" 
d="M10 320v20h300v60h20v-170h-20v90h-140v-140h60v50h20v-120h-20v50h-60v-140h140v90h20v-170h-20v60h-300v20h60v300h-60zM90 320v-300h60v300h-60z" />
    <glyph glyph-name="F" unicode="F" horiz-adv-x="360" 
d="M10 0v20h60v300h-60v20h300v60h20v-170h-20v90h-140v-150h60v60h20v-140h-20v60h-60v-130h50v-20h-210zM90 320v-300h60v300h-60z" />
    <glyph glyph-name="G" unicode="G" horiz-adv-x="370" 
d="M250 170h110v-20h-40v-190h-20v40h-112q-66 0 -113 50t-47 120q0 72 50.5 123.5t119.5 51.5q53 0 85 -33v108h20v-155h-20q0 18 -14.5 33t-37.5 22q-26 -14 -42 -38t-16 -53v-208q7 -1 15 -1h112v130h-50v20zM153 25v204q0 58 49 96h-4q-61 0 -105.5 -45.5t-44.5 -109.5
q0 -52 29.5 -92t75.5 -53z" />
    <glyph glyph-name="H" unicode="H" horiz-adv-x="440" 
d="M90 20h60v300h-60v-300zM350 320h-60v-300h60v300zM10 0v20h60v300h-60v20h160v-180h100v180h160v-20h-60v-300h60v-20h-160v140h-100v-140h-160z" />
    <glyph glyph-name="I" unicode="I" horiz-adv-x="240" 
d="M10 340h220v-20h-60v-300h60v-20h-220v20h60v300h-60v20zM150 20v300h-60v-300h60z" />
    <glyph glyph-name="J" unicode="J" horiz-adv-x="325" 
d="M195 320v-299q27 9 43.5 30.5t16.5 48.5v220h-60zM50 320v-110h-20v190h20v-60h265v-20h-40v-220q0 -43 -33.5 -74t-81.5 -31q-62 0 -115 29l9 17q49 -26 106 -26q8 0 15 1v304h-125z" />
    <glyph glyph-name="K" unicode="K" horiz-adv-x="450" 
d="M90 20h60v300h-60v-300zM427 20v-20h-7h-71q-37 0 -67 18t-46 51l-19 36t-19.5 27.5t-27.5 24.5v-157h-160v20h60v300h-50v20h150v-159q17 3 37 23l116 116h-56v20h100q24 0 42 -17l14 -15l-14 -14l-15 15q-11 11 -27 11t-27 -11l-95 -95q27 -11 47 -34.5t38 -58.5
q25 -48 48 -74.5t49 -26.5zM229 198l-8 -8q-16 -16 -30 -23q6 -4 11.5 -9t9.5 -9.5t9 -12l7.5 -11t7 -12.5t6 -11.5t6.5 -12.5t6 -11q14 -27 39 -42.5t56 -15.5h27q-28 23 -64 91q-19 36 -38 58t-45 29z" />
    <glyph glyph-name="L" unicode="L" horiz-adv-x="360" 
d="M10 340h220v-20h-55v-300h135v110h20v-190h-20v60h-300v20h60v300h-60v20zM155 20v300h-65v-300h65z" />
    <glyph glyph-name="M" unicode="M" horiz-adv-x="540" 
d="M450 320h-20l-40 -40v-260h60v300zM263 45l-56 67q-67 83 -117 111v-203h45v-20h-125v20h60v300h-50v20h70q27 -12 55.5 -35.5t45 -41.5t42.5 -49l32 -38q11 18 25 32l80 80l52 52h108v-20h-60v-300h60v-20h-160v260l-66 -67q-41 -41 -42 -89q0 -26 15 -50zM90 318v-72
q25 -13 51 -35.5t41 -39.5l40 -46l20 -24v3q0 26 13 53l-37 44q-35 43 -64.5 71.5t-63.5 45.5z" />
    <glyph glyph-name="N" unicode="N" horiz-adv-x="410" 
d="M90 20h45v-20h-125v20h60v299q-5 1 -10 1h-40v20h40q25 0 48 -9t46 -29.5t38.5 -36.5t40.5 -46l97 -114v215h-60v20h135v-20h-55v-320h-62l-95 112l-33.5 39t-31.5 31t-38 29v-191zM90 233q32 -18 58.5 -43.5t59.5 -64.5l89 -105h33v54l-112 132q-40 47 -69 73.5
t-59 35.5v-82z" />
    <glyph glyph-name="O" unicode="O" 
d="M25 170q0 72 51.5 123.5t123.5 51.5t123.5 -51.5t51.5 -123.5t-51.5 -123.5t-123.5 -51.5t-123.5 51.5t-51.5 123.5zM355 170q0 61 -42 106t-103 49v-310q61 4 103 49t42 106zM45 170q0 -61 42 -106t103 -49v310q-61 -4 -103 -49t-42 -106z" />
    <glyph glyph-name="P" unicode="P" horiz-adv-x="380" 
d="M90 320v-300h70v300h-70zM180 128v-108h60v-20h-230v20h60v300h-60v20h255q37 0 63.5 -26.5t26.5 -63.5q0 -54 -36.5 -92t-88.5 -38q-23 0 -50 8zM180 149q28 -9 50 -9q43 0 74 32t31 78q0 29 -20.5 49.5t-49.5 20.5h-85v-171z" />
    <glyph glyph-name="Q" unicode="Q" 
d="M190 15v310q-61 -4 -103 -49t-42 -106t42 -106t103 -49zM210 15q61 4 103 49t42 106t-42 106t-103 49v-310zM25 170q0 72 51.5 123.5t123.5 51.5t123.5 -51.5t51.5 -123.5q0 -70 -48 -120.5t-117 -54.5q0 -11 4 -19q5 -11 24.5 -23t39.5 -21t36 -28t16 -44v-99l-17 17
q-10 10 -28.5 20.5l-33.5 19t-29.5 21t-23 34.5t-8.5 52v70q-69 4 -117 54.5t-48 120.5zM210 -52v-23q0 -30 9.5 -49.5t20.5 -27t34 -20t36 -21.5v53q0 22 -15 34t-42.5 25.5t-42.5 28.5z" />
    <glyph glyph-name="R" unicode="R" horiz-adv-x="415" 
d="M90 20h60v300h-60v-300zM405 0h-67q-59 0 -101 35t-42 85q0 21 13 35.5t32 14.5q43 0 74 22t31 53t-31 53t-74 22h-70v-320h-100h-60v20h60v300h-50v20h220q52 0 88.5 -28t36.5 -67q0 -31 -23.5 -55.5t-61.5 -34.5q18 -13 45 -59q12 -20 19 -30.5t19.5 -23t25.5 -17.5
q10 -4 16 -5v-20zM240 150q-10 0 -17.5 -9t-7.5 -21q0 -41 36 -70.5t87 -29.5h19q-29 22 -60 75q-11 19 -17 28.5t-17 18t-23 8.5z" />
    <glyph glyph-name="S" unicode="S" horiz-adv-x="305" 
d="M55 27q35 -12 80 -12h10v15q0 53 -50 94q-60 50 -60 110q0 46 39.5 78.5t95.5 32.5q32 0 60 -6v71h20v-97q-34 12 -80 12h-10v-15q0 -53 50 -94q60 -50 60 -110q0 -46 -39.5 -78.5t-95.5 -32.5q-32 0 -60 6v-71h-20v97zM140 322q-37 -8 -61 -32.5t-24 -55.5q0 -50 52 -94
q58 -48 58 -110v-12q37 8 61 32.5t24 55.5q0 50 -52 94q-58 48 -58 110v12z" />
    <glyph glyph-name="T" unicode="T" 
d="M90 0v20h55v300h-100v-110h-20v190h20v-60h310v60h20v-190h-20v110h-100v-300h55v-20h-220zM165 20h70v300h-70v-300z" />
    <glyph glyph-name="U" unicode="U" 
d="M290 340h100v-20h-40v-195q0 -54 -45.5 -92t-109.5 -38q-57 0 -101 37t-44 88v200h-40v20h185v-20h-35v-212q0 -29 16 -53.5t42 -37.5q48 7 80 37.5t32 70.5v195h-40v20zM70 320v-200q0 -41 35 -71.5t82 -33.5q-47 37 -47 93v212h-1h-69z" />
    <glyph glyph-name="V" unicode="V" horiz-adv-x="395" 
d="M237 48l-156 272h-24q1 -91 32 -146l78 -134q14 -25 33 -25t33 25zM336 239q7 33 7 81h-77q4 -34 21.5 -50.5t48.5 -30.5zM390 340v-20h-27q-1 -97 -35 -156l-78 -134q-20 -35 -50 -35t-50 35l-78 134q-34 59 -35 156h-32v20h135v-20h-36l145 -252l62 106q12 21 19 45
q-19 8 -31.5 16t-26 22t-20.5 34.5t-7 48.5h145z" />
    <glyph glyph-name="W" unicode="W" horiz-adv-x="510" 
d="M57 320q1 -91 32 -146l78 -134q14 -25 33 -25q18 0 33 25l13 21l-150 259h-39zM120 320l161 -280q14 -25 33 -25t33 25l12 21l-128 221q-22 38 -61 38h-50zM365 320q3 -26 16.5 -45t26.5 -28t36 -21q1 -1 2 -1q11 38 11 95h-92zM440 205q-3 1 -5 3q-20 11 -32.5 19.5
t-28 24t-23 37.5t-7.5 51h161v-20h-28q-1 -97 -35 -156l-78 -134q-20 -35 -50 -35t-50 35q-3 6 -7 11l-7 -11q-21 -35 -50 -35q-30 0 -50 35l-78 134q-34 59 -35 156h-32v20h165q51 0 80 -50l121 -210l54 94q9 15 15 31z" />
    <glyph glyph-name="X" unicode="X" horiz-adv-x="450" 
d="M290 340h110v-20h-34l-103 -118l58 -81q23 -36 53 -36h30q1 1 4.5 4t4.5 5l14 -14l-56 -57q-27 -28 -61 -28q-37 0 -68 45l-58 80l-88 -100h29v-20h-95v20h39l103 117l-132 183h-20v20h144l87 -121l88 101h-49v20zM65 320l193 -269q23 -36 52 -36q25 0 46 22l28 28h-10
q-38 0 -69 45l-152 210h-88z" />
    <glyph glyph-name="Y" unicode="Y" horiz-adv-x="395" 
d="M251 198l97 111q7 8 7 17q0 8 -5.5 13.5t-13.5 5.5h-34v20h34q16 0 27.5 -11.5t11.5 -27.5t-14 -32l-101 -115v-159h60v-20h-220v20h55v126l-125 174h-25v20h144zM240 179l-102 141h-83l120 -167v-133h65v159z" />
    <glyph glyph-name="Z" unicode="Z" horiz-adv-x="370" 
d="M40 270v150h20v-80h284l-216 -320h182v50h20v-110h-20v40h-260v20h33l96 300h-119v-50h-20zM104 20l202 300h-106z" />
    <glyph glyph-name="bracketleft" unicode="[" horiz-adv-x="230" 
d="M60 390h150v-20h-50v-400h60v-20h-160v440zM140 -30v400h-60v-400h60z" />
    <glyph glyph-name="backslash" unicode="\" horiz-adv-x="360" 
d="M262 -145l-286 630h122l246 -543q5 -12 5 -24q0 -26 -18 -44.5t-43 -18.5h-26zM274 -125h14q17 0 29 12.5t12 30.5q0 8 -3 16l-240 531h-79z" />
    <glyph glyph-name="bracketright" unicode="]" horiz-adv-x="230" 
d="M170 390v-440h-160v20h60v400h-50v20h150zM90 -30h60v400h-60v-400z" />
    <glyph glyph-name="asciicircum" unicode="^" horiz-adv-x="270" 
d="M145 316l65 11l-57 53h-36l-57 -53l65 -10v38h20v-39zM238 311l-93 -15h-20l-93 15v17l77 72h52l77 -72v-17z" />
    <glyph glyph-name="underscore" unicode="_" horiz-adv-x="300" 
d="M30 -290v-40h240v40h-240zM10 -270h280v-80h-280v80z" />
    <glyph glyph-name="grave" unicode="`" horiz-adv-x="210" 
d="M175 300h-35l-110 100h120zM156 309l-20 73h-59l78 -73h1z" />
    <glyph glyph-name="a" unicode="a" horiz-adv-x="315" 
d="M47 57q0 -17 14.5 -29.5t35.5 -12.5q16 0 28 14.5t12 35.5v10q-26 15 -50 15q-17 0 -28.5 -10t-11.5 -23zM157 185v-99q12 -8 39.5 -30.5t43.5 -30.5q-5 11 -5 22v73q0 25 -22.5 44t-55.5 21zM27 57q0 23 18 38t42 15q25 0 50 -12v87q-36 -2 -67 -12v97h20v-73q30 8 60 8
q43 0 74 -25t31 -60v-73q0 -14 8 -23t19 -9q10 0 21 2l4 -19q-13 -3 -25 -3q-19 0 -38.5 7.5t-29.5 14.5t-31 24t-26 20q-1 -29 -18 -47.5t-42 -18.5q-29 0 -49.5 18t-20.5 44z" />
    <glyph glyph-name="b" unicode="b" horiz-adv-x="390" 
d="M52 0v530h-50v20h150v-441q18 44 50 70t70 26q33 0 56.5 -23.5t23.5 -56.5q0 -54 -39.5 -92t-95.5 -38q-24 0 -67 14q-24 7 -36 7q-26 0 -47 -16h-15zM226 172q36 -24 36 -67q0 -52 -38 -90q45 3 76.5 34.5t31.5 75.5q0 24 -17.5 42t-42.5 18q-24 0 -46 -13zM208 159
q-51 -45 -56 -130q36 -11 43 -12q47 33 47 88q0 17 -9.5 32t-24.5 22zM72 26q20 9 43 9q8 0 17 -1v496h-60v-504z" />
    <glyph glyph-name="c" unicode="c" horiz-adv-x="300" 
d="M38 100q0 43 33.5 74t81.5 31q46 0 75 -29v94h20v-140h-20q0 22 -19 37t-46 18v-75q0 -56 50 -87q24 7 46 18l9 -17q-53 -29 -115 -29q-48 0 -81.5 31t-33.5 74zM58 100q0 -35 28 -60t67 -25q17 0 34 3q-44 37 -44 92v75q-36 -3 -60.5 -27.5t-24.5 -57.5z" />
    <glyph glyph-name="d" unicode="d" horiz-adv-x="408" 
d="M258 20h60v510h-60v-510zM238 0v94q-18 -45 -50 -72t-70 -27q-33 0 -56.5 23.5t-23.5 56.5q0 54 39.5 92t95.5 38q31 0 65 -13v338h-60v20h160v-530h60v-20h-160zM160 26q-32 36 -32 84q0 40 24 73q-40 -7 -67 -37.5t-27 -70.5q0 -24 17.5 -42t42.5 -18q22 0 42 11z
M177 38q54 45 60 134q-35 12 -58 13q-31 -32 -31 -75q0 -41 29 -72z" />
    <glyph glyph-name="e" unicode="e" horiz-adv-x="305" 
d="M58 100q0 -35 28 -60t67 -25q15 0 30 2q-45 37 -45 93v73q-35 -6 -57.5 -29t-22.5 -54zM38 100q0 43 35 74t85 31q43 0 74 -22t31 -53q0 -27 -26.5 -46.5t-64.5 -22.5q14 -24 38 -39q31 8 58 25l10 -17q-57 -35 -125 -35q-48 0 -81.5 31t-33.5 74zM163 80q34 1 57 15.5
t23 34.5q0 23 -25 39t-60 16v-75q0 -15 5 -30z" />
    <glyph glyph-name="f" unicode="f" horiz-adv-x="305" 
d="M160 489v-309h90v90h20v-160h-20v50h-90v-410q0 -41 -29.5 -70.5t-70.5 -29.5h-70v20h70v735q0 43 33.5 74t81.5 31q53 0 105 -25v115h20v-137h-20q-49 27 -105 27q-8 0 -15 -1zM140 484q-27 -9 -43.5 -30.5t-16.5 -48.5v-732q26 7 43 28t17 49v734z" />
    <glyph glyph-name="g" unicode="g" horiz-adv-x="345" 
d="M50 120q0 35 29.5 60t70.5 25q39 0 68 -23q5 46 30 77t57 31q21 0 35.5 -13t14.5 -32t-13 -32t-32 -13t-32 13t-13 32v5q-28 -31 -30 -85q15 -20 15 -45q0 -31 -22.5 -54t-57.5 -29v-46q62 -19 101 -72t39 -119q0 -62 -44 -106t-106 -44q-60 0 -102.5 39.5t-42.5 95.5h20
q0 -47 36.5 -81t88.5 -34q26 0 50 10v207q0 53 -40 82v-29q0 -25 -17.5 -42.5t-42.5 -17.5t-42.5 17.5t-17.5 42.5t17.5 42.5t42.5 17.5q20 0 40 -4v39q-41 0 -70.5 25t-29.5 60zM150 -24q-20 4 -40 4q-17 0 -28.5 -11.5t-11.5 -28.5t11.5 -28.5t28.5 -11.5t28.5 11.5
t11.5 28.5v36zM150 55v130q-33 0 -56.5 -19t-23.5 -46t23.5 -46t56.5 -19zM170 57q26 5 43 23t17 40t-17 39.5t-43 23.5v-126zM285 265v-20q0 -10 7.5 -17.5t17.5 -7.5t17.5 7.5t7.5 17.5t-9 17.5t-21 7.5q-10 0 -20 -5zM230 -310q28 18 44 47t16 63q0 45 -21 84t-57 64
q18 -28 18 -61v-197z" />
    <glyph glyph-name="h" unicode="h" horiz-adv-x="412" 
d="M90 20h60v510h-60v-510zM10 0v20h60v510h-50v20h150v-433q17 40 46 64t64 24q31 0 53 -22t22 -53v-70q0 -24 7 -43q11 -2 23 -2v-20q-29 0 -49.5 7t-34.5 23t-20.5 27.5t-15.5 33.5q-1 3 -5.5 13.5l-6 14t-5.5 11t-6.5 11t-6 9t-8 8.5t-8.5 6q-49 -46 -49 -129v-10h40
v-20h-200zM235 172q6 -4 12 -10.5t9.5 -11.5t8 -14l6.5 -13t6.5 -15t5.5 -14q10 -22 14.5 -31t16 -22t26.5 -19q-5 20 -5 38v70q0 23 -16 39t-39 16q-24 0 -45 -13z" />
    <glyph glyph-name="i" unicode="i" horiz-adv-x="235" 
d="M90 350q0 -12 9 -21t21 -9t21 9t9 21t-9 21t-21 9t-21 -9t-9 -21zM70 350q0 21 14.5 35.5t35.5 14.5t35.5 -14.5t14.5 -35.5t-14.5 -35.5t-35.5 -14.5t-35.5 14.5t-14.5 35.5zM90 20h60v160h-60v-160zM10 0v20h60v160h-50v20h150v-180h60v-20h-220z" />
    <glyph glyph-name="j" unicode="j" horiz-adv-x="225" 
d="M85 350q0 -12 9 -21t21 -9t21 9t9 21t-9 21t-21 9t-21 -9t-9 -21zM65 350q0 21 14.5 35.5t35.5 14.5t35.5 -14.5t14.5 -35.5t-14.5 -35.5t-35.5 -14.5t-35.5 14.5t-14.5 35.5zM65 180h-50v20h150v-445q0 -43 -33.5 -74t-81.5 -31q-62 0 -115 29l9 17q49 -26 106 -26
q8 0 15 1v509zM85 180v-504q27 9 43.5 30.5t16.5 48.5v425h-60z" />
    <glyph glyph-name="k" unicode="k" horiz-adv-x="432" 
d="M339 20q-25 18 -40 48q-11 22 -21.5 39t-27.5 26l-29 -29l-5 -5q3 -8 16 -32q25 -47 77 -47h30zM10 0v20h60v510h-50v20h150v-455q17 3 37 23l64 64l3 3h-46v20h100q32 0 56 -23l14 -15l-14 -14l-15 15q-17 17 -41 17q-26 0 -43 -17l-21 -21q14 -6 27.5 -25.5t25.5 -44.5
q29 -55 83 -57v-20h-91q-65 0 -95 58q-12 23 -15 28q-14 -9 -29 -11v-75h-160zM90 20h60v510h-60v-510z" />
    <glyph glyph-name="l" unicode="l" horiz-adv-x="240" 
d="M90 20h60v510h-60v-510zM10 0v20h60v510h-50v20h150v-530h60v-20h-220z" />
    <glyph glyph-name="m" unicode="m" horiz-adv-x="577" 
d="M90 20h60v160h-60v-160zM10 0v20h60v160h-50v20h150v-65q16 32 42.5 51t57.5 19q30 0 51.5 -20.5t23.5 -49.5q16 32 42.5 51t57.5 19t53 -22t22 -53v-70q0 -23 7 -43q11 -2 23 -2v-20q-26 0 -45.5 7.5t-32 23t-19 27.5t-14.5 33q-9 25 -14.5 36.5t-15 24t-21.5 16.5
q-43 -37 -43 -103q0 -23 7 -43q11 -2 23 -2v-20q-26 0 -45.5 7.5t-32 23t-19 27.5t-14.5 33q-9 25 -14.5 36.5t-15 24t-21.5 16.5q-43 -37 -43 -103v-60h-160zM232 176q6 -4 11 -8q15 -14 24 -35q12 -30 15 -39l12.5 -29t14 -22t20.5 -18q-4 18 -4 35v70q0 23 -16 39t-39 16
q-20 0 -38 -9zM407 176q6 -3 11 -7.5t9.5 -11.5t7.5 -10.5t7 -13.5l5 -12.5t5 -14.5l5 -12l12.5 -29t14 -22t20.5 -18q-4 18 -4 35v70q0 23 -16 39t-39 16q-20 0 -38 -9z" />
    <glyph glyph-name="n" unicode="n" horiz-adv-x="412" 
d="M90 20h60v160h-60v-160zM385 15v-20q-29 0 -49.5 7t-34.5 23t-20.5 27.5t-15.5 33.5q-1 3 -5.5 13.5l-6 14t-5.5 11t-6.5 11t-6 9t-8 8.5t-8.5 6q-49 -46 -49 -129v-30h-160v20h60v160h-50v20h150v-83q17 40 46 64t64 24q31 0 53 -22t22 -53v-70q0 -24 7 -43q10 -2 23 -2
zM235 172q6 -4 12 -10.5t9.5 -11.5t8 -14l6.5 -13t6.5 -15t5.5 -14q10 -22 14.5 -31t16 -22t26.5 -19q-5 20 -5 38v70q0 23 -16 39t-39 16q-24 0 -45 -13z" />
    <glyph glyph-name="o" unicode="o" horiz-adv-x="320" 
d="M35 100q0 43 36.5 74t88.5 31t88.5 -31t36.5 -74t-36.5 -74t-88.5 -31t-88.5 31t-36.5 74zM265 100q0 33 -27.5 57.5t-67.5 27.5v-170q40 3 67.5 27.5t27.5 57.5zM55 100q0 -33 27.5 -57.5t67.5 -27.5v170q-40 -3 -67.5 -27.5t-27.5 -57.5z" />
    <glyph glyph-name="p" unicode="p" horiz-adv-x="403" 
d="M85 180v-510h60v510h-60zM65 180h-50v20h150v-94q18 45 50 72t70 27q33 0 56.5 -23.5t23.5 -56.5q0 -54 -39.5 -92t-95.5 -38q-31 0 -65 13v-338h60v-20h-220v20h60v510zM222 159q-50 -45 -56 -131q26 -9 42 -11q47 33 47 88q0 37 -33 54zM237 15q45 3 76.5 34.5
t31.5 75.5q0 24 -17.5 42t-42.5 18q-24 0 -46 -13q36 -24 36 -67q0 -52 -38 -90z" />
    <glyph glyph-name="q" unicode="q" horiz-adv-x="395" 
d="M160 26q-32 36 -32 84q0 40 24 73q-40 -7 -67 -37.5t-27 -70.5q0 -24 17.5 -42t42.5 -18q21 0 42 11zM177 37q55 44 61 134q-44 13 -59 14q-31 -32 -31 -75q0 -42 29 -73zM318 -285v459q-18 -9 -43 -9q-8 0 -17 1v-473q26 22 52 22h8zM338 -285h52v-20h-80q-25 0 -52 -27
l-20 -18v441q-18 -44 -50 -70t-70 -26q-33 0 -56.5 23.5t-23.5 56.5q0 54 39.5 92t95.5 38q20 0 67 -14q25 -7 36 -7q26 0 47 16h15v-485z" />
    <glyph glyph-name="r" unicode="r" horiz-adv-x="345" 
d="M10 0v20h60v160h-50v20h150v-80q18 45 48.5 72.5t66.5 27.5q21 0 35.5 -14.5t14.5 -35.5t-14.5 -35.5t-35.5 -14.5q-36 0 -74 37q-41 -54 -41 -137h60v-20h-220zM90 20h62l-2 160h-60v-160zM224 172q33 -32 61 -32q12 0 21 9t9 21t-9 21t-21 9q-33 0 -61 -28z" />
    <glyph glyph-name="s" unicode="s" horiz-adv-x="260" 
d="M45 27q27 -9 60 -11q-3 25 -29 46q-36 30 -36 68q0 31 28 53t67 22q31 0 60 -6v71h20v-97q-27 9 -60 11q3 -25 29 -46q36 -30 36 -68q0 -31 -28 -53t-67 -22q-31 0 -60 6v-71h-20v97zM135 185q-31 0 -53 -16t-22 -39q0 -28 29 -52q33 -28 36 -63q31 0 53 16t22 39
q0 28 -29 52q-33 28 -36 63z" />
    <glyph glyph-name="t" unicode="t" horiz-adv-x="299" 
d="M243 52l14 -14q-43 -43 -102 -43q-33 0 -56.5 23.5t-23.5 56.5v105h-50v20h55q31 0 53 22t22 53v45h20v-120h60v70h20v-130h-20v40h-60v-95q0 -20 14 -34.5t34 -15.5q11 7 20 17zM197 22q-42 17 -42 63v134q-22 -32 -60 -38v-106q0 -25 17.5 -42.5t42.5 -17.5q24 0 42 7z
" />
    <glyph glyph-name="u" unicode="u" horiz-adv-x="412" 
d="M332 180h-60v-160h60v160zM352 200v-180h50v-20h-150v80q-18 -39 -50 -62t-70 -23q-31 0 -53 22t-22 53v70q0 24 -7 43q-11 2 -23 2v20q29 0 49.5 -7t34.5 -22.5t20.5 -27.5t15.5 -34l15.5 -35t15.5 -24t20 -16q25 20 39.5 52t14.5 69v20h-40v20h140zM179 27
q-26 18 -50 79q-11 29 -23.5 46.5t-33.5 25.5q5 -20 5 -38v-70q0 -23 16 -39t39 -16q25 0 47 12z" />
    <glyph glyph-name="v" unicode="v" horiz-adv-x="335" 
d="M239 190v20h27q24 0 38 -14.5t14 -34.5q0 -23 -16 -39l-127 -127l-169 169l17 18q24 24 57 24t57 -24l28 -28q38 -38 43 -97l80 79q10 10 10 25q0 12 -8 20.5t-24 8.5h-27zM34 164l141 -141l16 16q0 60 -40 100l-28 29q-18 18 -43 18t-42 -19z" />
    <glyph glyph-name="w" unicode="w" horiz-adv-x="455" 
d="M175 23l46 46l-98 99q-18 18 -43 18t-42 -19l-4 -3zM359 190v20h27q24 0 38 -14.5t14 -34.5q0 -23 -16 -39l-127 -127l-60 60l-60 -60l-169 169l17 18q24 24 57 24t57 -24l3 -4l3 4q24 24 57 24t57 -24l28 -28q38 -38 43 -97l80 79q10 10 10 25q0 12 -8 20.5t-24 8.5h-27
zM295 23l16 16q0 60 -40 100l-28 29q-18 18 -43 18t-42 -19l-4 -3z" />
    <glyph glyph-name="x" unicode="x" horiz-adv-x="390" 
d="M30 0v20h30l70 70l-89 90h-11v20h134l74 -74l54 54h-42v20h110v-20h-40l-68 -68l20 -20q17 -17 43 -17h29l14 14l14 -14l-56 -57q-22 -23 -55.5 -23t-57.5 23l-58 58l-57 -56h37v-20h-95zM69 180l148 -147q18 -18 43 -18t41 17l23 23h-9q-34 0 -57 23l-102 102h-87z" />
    <glyph glyph-name="y" unicode="y" horiz-adv-x="345" 
d="M166 9l-155 155l17 18q24 24 57 24t57 -24l28 -28q39 -39 45 -96l78 78q11 11 11 25q0 12 -8.5 20.5t-24.5 8.5h-27v20h27q24 0 38.5 -14.5t14.5 -34.5q0 -22 -17 -39l-142 -142q-39 -39 -39 -90v-212q22 -8 46 -8q57 0 98.5 41.5t41.5 98.5t-42 98l14 14
q48 -48 48 -112.5t-47.5 -112t-112.5 -47.5t-111 47.5t-46 112.5q0 48 54 102zM180 23l16 16q0 60 -40 100l-28 29q-18 18 -43 18t-42 -19l-4 -3zM106 -312v202q0 18 5 36l-28 -28q-48 -48 -48 -88q0 -38 19.5 -71t51.5 -51z" />
    <glyph glyph-name="z" unicode="z" horiz-adv-x="330" 
d="M50 0v20h31l53 160h-74v-50h-20v140h20v-70h238l-169 -180h131v50h20v-140h-20v70h-210zM155 180l-53 -160l150 160h-97z" />
    <glyph glyph-name="braceleft" unicode="{" horiz-adv-x="230" 
d="M220 -30v-20h-80q-29 0 -49.5 20.5t-20.5 49.5v110q0 12 -9 21t-21 9h-20v20h20q12 0 21 9t9 21v110q0 29 20.5 49.5t49.5 20.5h80v-20h-30q-12 0 -21 -9t-9 -21v-80q0 -29 -20.5 -49.5t-49.5 -20.5h-4q-5 -12 -16 -20q11 -8 16 -20h4q29 0 49.5 -20.5t20.5 -49.5v-80
q0 -12 9 -21t21 -9h30zM90 130v-110q0 -21 14.5 -35.5t35.5 -14.5h13q-13 13 -13 30v80q0 21 -14.5 35.5t-35.5 14.5zM153 370h-13q-21 0 -35.5 -14.5t-14.5 -35.5v-110q21 0 35.5 14.5t14.5 35.5v80q0 17 13 30z" />
    <glyph glyph-name="bar" unicode="|" horiz-adv-x="220" 
d="M80 -30h60v400h-60v-400zM60 -50v440h100v-440h-100z" />
    <glyph glyph-name="braceright" unicode="}" horiz-adv-x="230" 
d="M10 370v20h80q29 0 49.5 -20.5t20.5 -49.5v-110q0 -12 9 -21t21 -9h20v-20h-20q-12 0 -21 -9t-9 -21v-110q0 -29 -20.5 -49.5t-49.5 -20.5h-80v20h30q12 0 21 9t9 21v80q0 29 20.5 49.5t49.5 20.5h4q5 12 16 20q-11 8 -16 20h-4q-29 0 -49.5 20.5t-20.5 49.5v80
q0 12 -9 21t-21 9h-30zM140 210v110q0 21 -14.5 35.5t-35.5 14.5h-13q13 -13 13 -30v-80q0 -21 14.5 -35.5t35.5 -14.5zM77 -30h13q21 0 35.5 14.5t14.5 35.5v110q-21 0 -35.5 -14.5t-14.5 -35.5v-80q0 -17 -13 -30z" />
    <glyph glyph-name="asciitilde" unicode="~" horiz-adv-x="350" 
d="M320 129v-1q0 -29 -21 -49.5t-48 -20.5q-26 0 -75 17q-48 16 -74 16q-24 0 -52 -19l-11 -7l-4 13q-3 12 -5 28v1q0 29 21 49.5t48 20.5q25 0 74 -17q49 -16 75 -16q24 0 52 19l11 7l4 -13q4 -11 5 -28zM300 127q-1 6 -1 11q-26 -14 -51 -14q-29 0 -81 17q-46 16 -68 16
q-19 0 -34 -15t-15 -34q1 -6 1 -11q26 14 51 14q29 0 80 -17q46 -16 69 -16q19 0 34 15t15 34z" />
    <glyph glyph-name="exclamdown" unicode="&#xa1;" horiz-adv-x="220" 
d="M175 -40l11 -140h-152l11 141q2 29 20.5 49.5t44.5 20.5t44.5 -21t20.5 -50zM155 -40q-2 22 -15 36.5t-30 14.5t-30 -14.5t-15 -37.5l-9 -119h108zM140 160q0 12 -9 21t-21 9t-21 -9t-9 -21t9 -21t21 -9t21 9t9 21zM160 160q0 -21 -14.5 -35.5t-35.5 -14.5t-35.5 14.5
t-14.5 35.5t14.5 35.5t35.5 14.5t35.5 -14.5t14.5 -35.5z" />
    <glyph glyph-name="cent" unicode="&#xa2;" horiz-adv-x="270" 
d="M50 125q0 -35 28 -60t67 -25q17 0 34 3q-44 37 -44 92v75q-36 -3 -60.5 -27.5t-24.5 -57.5zM135 20q-44 3 -74.5 33.5t-30.5 71.5t30.5 71t74.5 34v170h20v-170q40 -3 65 -29v84h20v-130h-20q0 22 -19 37t-46 18v-75q0 -56 50 -87q24 7 46 18l9 -17q-48 -26 -105 -29
v-170h-20v170z" />
    <glyph glyph-name="sterling" unicode="&#xa3;" horiz-adv-x="340" 
d="M145 234q-26 -5 -43 -23t-17 -41v-150q25 0 42.5 16t17.5 39v159zM165 235v-105h65v-20h-65v-35q0 -33 -26 -55h141v90h20v-170h-20v60h-195h-20h-55v20h55v90h-35v20h35v40q0 35 28 60t67 25q43 0 85 -17v107h20v-137q-47 26 -100 27z" />
    <glyph glyph-name="currency" unicode="&#xa4;" horiz-adv-x="280" 
d="M90 125q0 -21 14.5 -35.5t35.5 -14.5t35.5 14.5t14.5 35.5t-14.5 35.5t-35.5 14.5t-35.5 -14.5t-14.5 -35.5zM98 181q19 14 42 14t42 -14l43 43l14 -14l-43 -43q14 -19 14 -42t-14 -42l43 -43l-14 -14l-43 43q-19 -14 -42 -14t-42 14l-43 -43l-14 14l43 43q-14 19 -14 42
t14 42l-43 43l14 14z" />
    <glyph glyph-name="yen" unicode="&#xa5;" horiz-adv-x="395" 
d="M173 86v-66h60v85l-90 125h-73zM146 90h-71v20h56l-86 120h-25v20h134l83 -115l82 95h-49v20h105v-20h-29l-93 -107v-13h77v-20h-77v-70h60v-20h-220v20h60v60z" />
    <glyph glyph-name="brokenbar" unicode="&#xa6;" horiz-adv-x="220" 
d="M80 -30h60v130h-60v-130zM60 -50v170h100v-170h-100zM80 240h60v130h-60v-130zM60 220v170h100v-170h-100z" />
    <glyph glyph-name="section" unicode="&#xa7;" horiz-adv-x="285" 
d="M215 249v56h20v-82q-24 9 -55 11q3 -25 29 -46q46 -38 46 -78q0 -38 -22 -63q21 -23 21 -50q0 -39 -36.5 -67t-88.5 -28q-31 0 -60 6v-56h-20v82q24 -9 55 -11q-3 25 -28 46q-46 38 -46 78q0 30 27 59q-27 24 -27 54q0 39 36.5 67t88.5 28q32 0 60 -6zM160 235h-5
q-43 0 -74 -22t-31 -53q0 -25 26 -44t66 -26q45 -8 76 -30q17 19 17 50q0 30 -39 62q-34 28 -36 63zM124 -78h5q43 0 74 22t31 53q0 26 -27 46t-69 27q-37 7 -65 24q-24 -25 -24 -47q0 -30 39 -62q34 -28 36 -63z" />
    <glyph glyph-name="dieresis" unicode="&#xa8;" horiz-adv-x="280" 
d="M160 350q0 17 11.5 28.5t28.5 11.5t28.5 -11.5t11.5 -28.5t-11.5 -28.5t-28.5 -11.5t-28.5 11.5t-11.5 28.5zM180 350q0 -8 6 -14t14 -6t14 6t6 14t-6 14t-14 6t-14 -6t-6 -14zM40 350q0 17 11.5 28.5t28.5 11.5t28.5 -11.5t11.5 -28.5t-11.5 -28.5t-28.5 -11.5
t-28.5 11.5t-11.5 28.5zM60 350q0 -8 6 -14t14 -6t14 6t6 14t-6 14t-14 6t-14 -6t-6 -14z" />
    <glyph glyph-name="copyright" unicode="&#xa9;" horiz-adv-x="500" 
d="M49 170q0 -83 59 -142t142 -59t142 59t59 142t-59 142t-142 59t-142 -59t-59 -142zM31 170q0 91 64 155t155 64t155 -64t64 -155t-64 -155t-155 -64t-155 64t-64 155zM131 166q0 43 33.5 74t81.5 31q46 0 75 -29v54h20v-100h-20q0 22 -19 37t-46 18v-75q0 -56 50 -87
q24 7 46 18l9 -17q-53 -29 -115 -29q-48 0 -81.5 31t-33.5 74zM151 166q0 -35 28 -60t67 -25q17 0 34 3q-44 37 -44 92v75q-36 -3 -60.5 -27.5t-24.5 -57.5z" />
    <glyph glyph-name="ordfeminine" unicode="&#xaa;" horiz-adv-x="263" 
d="M223 185q-14 0 -29 6t-21 9.5t-24 18t-19 15.5q-2 -21 -15 -35t-31 -14q-22 0 -38 14t-16 34q0 18 13.5 29.5t32.5 11.5q18 0 36 -8v61q-21 -1 -39 -6l-11 -3v75h18v-52q23 5 43 5q32 0 56.5 -18.5t24.5 -47.5v-54q0 -10 5.5 -16.5t13.5 -6.5q13 0 20 2l3 -18
q-9 -2 -23 -2zM112 246q-19 10 -36 10q-12 0 -20 -7t-8 -16q0 -12 10 -21t26 -9q11 0 19.5 10.5t8.5 25.5v7zM130 327v-71l1 -1l27 -21t29 -21q-1 6 -1 13v54q0 18 -16 31.5t-40 15.5z" />
    <glyph glyph-name="guillemotleft" unicode="&#xab;" horiz-adv-x="220" 
d="M85 69v63l-31 -32zM155 69v63l-31 -32zM175 180v-160l-70 70v-70l-80 80l80 80v-70z" />
    <glyph glyph-name="logicalnot" unicode="&#xac;" horiz-adv-x="300" 
d="M50 170h195v-130h-20v110h-175v20z" />
    <glyph glyph-name="uni00AD" unicode="&#xad;" horiz-adv-x="300" 
d="M70 140v-40h160v40h-160zM50 160h180v20h20v-100h-180v-20h-20v100z" />
    <glyph glyph-name="registered" unicode="&#xae;" horiz-adv-x="500" 
d="M31 170q0 91 64 155t155 64t155 -64t64 -155t-64 -155t-155 -64t-155 64t-64 155zM49 170q0 -83 59 -142t142 -59t142 59t59 142t-59 142t-142 59t-142 -59t-59 -142zM343 52q-48 0 -79 25t-31 69v44v91h-49v-210h30v-20h-75v20h25v210h-25v20h25h110q35 0 60 -19t25 -46
q0 -19 -13.5 -35t-36.5 -23q16 -13 37 -55t36 -49q6 -3 11 -3q-15 -19 -50 -19zM274 172h-23v-26q0 -36 24.5 -56t67.5 -20h14q-16 15 -28.5 42t-24 43.5t-30.5 16.5zM274 190q27 0 46 13.5t19 32.5t-19 32t-46 13h-23v-91h23z" />
    <glyph glyph-name="macron" unicode="&#xaf;" horiz-adv-x="260" 
d="M60 370v-40h140v40h-140zM40 390h180v-80h-180v80z" />
    <glyph glyph-name="degree" unicode="&#xb0;" horiz-adv-x="220" 
d="M50 365q0 -25 17.5 -42.5t42.5 -17.5t42.5 17.5t17.5 42.5t-17.5 42.5t-42.5 17.5t-42.5 -17.5t-17.5 -42.5zM30 365q0 33 23.5 56.5t56.5 23.5t56.5 -23.5t23.5 -56.5t-23.5 -56.5t-56.5 -23.5t-56.5 23.5t-23.5 56.5z" />
    <glyph glyph-name="plusminus" unicode="&#xb1;" horiz-adv-x="280" 
d="M150 170h90v-20h-90v-90h-20v90h-90v20h90v90h20v-90zM45 10h190v-20h-190v20z" />
    <glyph glyph-name="acute" unicode="&#xb4;" horiz-adv-x="210" 
d="M35 300l25 100h120l-110 -100h-35zM54 309h1l78 73h-59z" />
    <glyph glyph-name="paragraph" unicode="&#xb6;" horiz-adv-x="380" 
d="M182 -150q33 0 56.5 23.5t23.5 56.5v300h-80v-380zM45 170q0 33 26.5 56.5t63.5 23.5h210v-20h-63v-300q0 -41 -29.5 -70.5t-70.5 -29.5h-80v20h60v240h-27q-37 0 -63.5 23.5t-26.5 56.5zM65 170q0 -25 20.5 -42.5t49.5 -17.5h27v120h-27q-29 0 -49.5 -17.5t-20.5 -42.5z
" />
    <glyph glyph-name="periodcentered" unicode="&#xb7;" horiz-adv-x="180" 
d="M60 160q0 -12 9 -21t21 -9t21 9t9 21t-9 21t-21 9t-21 -9t-9 -21zM40 160q0 21 14.5 35.5t35.5 14.5t35.5 -14.5t14.5 -35.5t-14.5 -35.5t-35.5 -14.5t-35.5 14.5t-14.5 35.5z" />
    <glyph glyph-name="cedilla" unicode="&#xb8;" horiz-adv-x="235" 
d="M153 -118q-25 29 -66 29h-13l26 98l20 -5l-20 -74q52 -6 77 -48q13 -21 13 -46q0 -37 -26.5 -63t-63.5 -26q-29 0 -49.5 19t-20.5 46q0 10 4 20l2 6h64q17 0 31.5 12t21.5 32zM165 -139q-23 -43 -65 -43h-49q-1 -3 -1 -6q0 -18 14.5 -31.5t35.5 -13.5q29 0 49.5 20.5
t20.5 48.5q0 13 -5 25z" />
    <glyph glyph-name="ordmasculine" unicode="&#xba;" horiz-adv-x="260" 
d="M35 265q0 34 28 57t67 23t67 -23t28 -57t-28 -57t-67 -23t-67 23t-28 57zM121 203v124q-30 -3 -49 -20.5t-19 -41.5t19 -41.5t49 -20.5zM139 203q30 3 49 20.5t19 41.5t-19 41.5t-49 20.5v-124z" />
    <glyph glyph-name="guillemotright" unicode="&#xbb;" horiz-adv-x="220" 
d="M135 131v-63l31 32zM65 131v-63l31 32zM45 20v160l70 -70v70l80 -80l-80 -80v70z" />
    <glyph glyph-name="questiondown" unicode="&#xbf;" horiz-adv-x="260" 
d="M165 160q0 12 -9 21t-21 9t-21 -9t-9 -21t9 -21t21 -9t21 9t9 21zM185 160q0 -21 -14.5 -35.5t-35.5 -14.5t-35.5 14.5t-14.5 35.5t14.5 35.5t35.5 14.5t35.5 -14.5t14.5 -35.5zM115 10q0 -38 -36 -68q-29 -24 -29 -52q0 -23 22 -39t53 -16q0 38 36 68q29 24 29 52
q0 23 -22 39t-53 16zM115 30q39 0 67 -22t28 -53q0 -38 -36 -68q-29 -24 -29 -51q44 2 80 14v-80h-20v54q-38 -9 -80 -9q-39 0 -67 22t-28 53q0 38 36 68q29 24 29 52q0 8 6 14t14 6z" />
    <glyph glyph-name="Agrave" unicode="&#xc0;" horiz-adv-x="425" 
d="M230 430h-35l-110 100h120zM211 439l-20 73h-59l78 -73h1zM159 325l198 -343q18 18 18 55q0 45 -27 91l-100 172q-14 25 -33 25h-56zM136 325h-31v20h110q30 0 51 -35l100 -172q29 -50 29 -101q0 -53 -35 -78l-9 -6l-73 127h-203l-35 -60h89v-20h-123l159 275zM176 255
l-90 -155h180z" />
    <glyph glyph-name="Aacute" unicode="&#xc1;" horiz-adv-x="425" 
d="M160 430l25 100h120l-110 -100h-35zM179 439h1l78 73h-59zM159 325l198 -343q18 18 18 55q0 45 -27 91l-100 172q-14 25 -33 25h-56zM136 325h-31v20h110q30 0 51 -35l100 -172q29 -50 29 -101q0 -53 -35 -78l-9 -6l-73 127h-203l-35 -60h89v-20h-123l159 275zM176 255
l-90 -155h180z" />
    <glyph glyph-name="Acircumflex" unicode="&#xc2;" horiz-adv-x="425" 
d="M205 446l65 11l-57 53h-36l-57 -53l65 -10v38h20v-39zM298 441l-93 -15h-20l-93 15v17l77 72h52l77 -72v-17zM159 325l198 -343q18 18 18 55q0 45 -27 91l-100 172q-14 25 -33 25h-56zM136 325h-31v20h110q30 0 51 -35l100 -172q29 -50 29 -101q0 -53 -35 -78l-9 -6
l-73 127h-203l-35 -60h89v-20h-123l159 275zM176 255l-90 -155h180z" />
    <glyph glyph-name="Atilde" unicode="&#xc3;" horiz-adv-x="425" 
d="M304 487q0 -26 -16 -45t-37 -19q-19 0 -56 15q-35 14 -52 15q-16 0 -36 -16l-12 -10l-4 15q-4 15 -4 26q0 26 16 45t37 19q19 0 56 -15q35 -14 52 -15q16 0 36 16l12 10l4 -15q4 -15 4 -26zM284 486q0 4 -1 7q-18 -11 -35 -11q-22 0 -60 16q-33 14 -48 14
q-13 0 -22.5 -12.5t-10.5 -30.5q0 -5 1 -7q18 11 35 11q22 0 60 -16q33 -14 48 -14q14 0 23.5 12.5t9.5 30.5zM159 325l198 -343q18 18 18 55q0 45 -27 91l-100 172q-14 25 -33 25h-56zM136 325h-31v20h110q30 0 51 -35l100 -172q29 -50 29 -101q0 -53 -35 -78l-9 -6
l-73 127h-203l-35 -60h89v-20h-123l159 275zM176 255l-90 -155h180z" />
    <glyph glyph-name="Adieresis" unicode="&#xc4;" horiz-adv-x="425" 
d="M215 480q0 17 11.5 28.5t28.5 11.5t28.5 -11.5t11.5 -28.5t-11.5 -28.5t-28.5 -11.5t-28.5 11.5t-11.5 28.5zM235 480q0 -8 6 -14t14 -6t14 6t6 14t-6 14t-14 6t-14 -6t-6 -14zM95 480q0 17 11.5 28.5t28.5 11.5t28.5 -11.5t11.5 -28.5t-11.5 -28.5t-28.5 -11.5
t-28.5 11.5t-11.5 28.5zM115 480q0 -8 6 -14t14 -6t14 6t6 14t-6 14t-14 6t-14 -6t-6 -14zM159 325l198 -343q18 18 18 55q0 45 -27 91l-100 172q-14 25 -33 25h-56zM136 325h-31v20h110q30 0 51 -35l100 -172q29 -50 29 -101q0 -53 -35 -78l-9 -6l-73 127h-203l-35 -60h89
v-20h-123l159 275zM176 255l-90 -155h180z" />
    <glyph glyph-name="Aring" unicode="&#xc5;" horiz-adv-x="425" 
d="M145 480q0 -21 14.5 -35.5t35.5 -14.5t35.5 14.5t14.5 35.5t-14.5 35.5t-35.5 14.5t-35.5 -14.5t-14.5 -35.5zM125 480q0 29 20.5 49.5t49.5 20.5t49.5 -20.5t20.5 -49.5t-20.5 -49.5t-49.5 -20.5t-49.5 20.5t-20.5 49.5zM159 325l198 -343q18 18 18 55q0 45 -27 91
l-100 172q-14 25 -33 25h-56zM136 325h-31v20h110q30 0 51 -35l100 -172q29 -50 29 -101q0 -53 -35 -78l-9 -6l-73 127h-203l-35 -60h89v-20h-123l159 275zM176 255l-90 -155h180z" />
    <glyph glyph-name="AE" unicode="&#xc6;" horiz-adv-x="565" 
d="M290 320v-300h60v300h-60zM130 320v20h380v60h20v-170h-20v90h-140v-140h60v50h20v-120h-20v50h-60v-140h140v90h20v-170h-20v60h-300v20h60v140h-149l-81 -140h89v-20h-123l185 320h-61zM214 320l-81 -140h137v140h-56z" />
    <glyph glyph-name="Ccedilla" unicode="&#xc7;" horiz-adv-x="340" 
d="M248 -145q-24 -42 -65 -42h-49q-1 -3 -1 -6q0 -18 14.5 -31.5t35.5 -13.5q29 0 49.5 20t20.5 49q0 12 -5 24zM28 170q0 72 48.5 123.5t116.5 51.5q46 0 75 -29v104h20v-150h-20q0 24 -22.5 39.5t-52.5 15.5q-10 0 -20 -1v-214q0 -29 16 -53.5t43 -38.5q36 6 67 23l9 -17
q-49 -27 -106 -29l-19 -70q52 -6 77 -49q13 -21 13 -45q0 -37 -26.5 -63t-63.5 -26q-29 0 -49.5 18.5t-20.5 46.5q0 10 4 19l2 7h64q17 0 31.5 11.5t21.5 31.5q-25 29 -66 30h-13l24 89q-64 5 -108.5 55.5t-44.5 119.5zM48 170q0 -64 42.5 -109.5t102.5 -45.5h7
q-47 37 -47 95v209q-46 -14 -75.5 -55.5t-29.5 -93.5z" />
    <glyph glyph-name="Egrave" unicode="&#xc8;" horiz-adv-x="365" 
d="M210 430h-35l-110 100h120zM191 439l-20 73h-59l78 -73h1zM10 320v20h300v60h20v-170h-20v90h-140v-140h60v50h20v-120h-20v50h-60v-140h140v90h20v-170h-20v60h-300v20h60v300h-60zM90 320v-300h60v300h-60z" />
    <glyph glyph-name="Eacute" unicode="&#xc9;" horiz-adv-x="365" 
d="M140 430l25 100h120l-110 -100h-35zM159 439h1l78 73h-59zM10 320v20h300v60h20v-170h-20v90h-140v-140h60v50h20v-120h-20v50h-60v-140h140v90h20v-170h-20v60h-300v20h60v300h-60zM90 320v-300h60v300h-60z" />
    <glyph glyph-name="Ecircumflex" unicode="&#xca;" horiz-adv-x="365" 
d="M185 446l65 11l-57 53h-36l-57 -53l65 -10v38h20v-39zM278 441l-93 -15h-20l-93 15v17l77 72h52l77 -72v-17zM10 320v20h300v60h20v-170h-20v90h-140v-140h60v50h20v-120h-20v50h-60v-140h140v90h20v-170h-20v60h-300v20h60v300h-60zM90 320v-300h60v300h-60z" />
    <glyph glyph-name="Edieresis" unicode="&#xcb;" horiz-adv-x="365" 
d="M195 480q0 17 11.5 28.5t28.5 11.5t28.5 -11.5t11.5 -28.5t-11.5 -28.5t-28.5 -11.5t-28.5 11.5t-11.5 28.5zM215 480q0 -8 6 -14t14 -6t14 6t6 14t-6 14t-14 6t-14 -6t-6 -14zM75 480q0 17 11.5 28.5t28.5 11.5t28.5 -11.5t11.5 -28.5t-11.5 -28.5t-28.5 -11.5
t-28.5 11.5t-11.5 28.5zM95 480q0 -8 6 -14t14 -6t14 6t6 14t-6 14t-14 6t-14 -6t-6 -14zM10 320v20h300v60h20v-170h-20v90h-140v-140h60v50h20v-120h-20v50h-60v-140h140v90h20v-170h-20v60h-300v20h60v300h-60zM90 320v-300h60v300h-60z" />
    <glyph glyph-name="Igrave" unicode="&#xcc;" horiz-adv-x="240" 
d="M155 430h-35l-110 100h120zM136 439l-20 73h-59l78 -73h1zM10 340h220v-20h-60v-300h60v-20h-220v20h60v300h-60v20zM150 20v300h-60v-300h60z" />
    <glyph glyph-name="Iacute" unicode="&#xcd;" horiz-adv-x="240" 
d="M85 430l25 100h120l-110 -100h-35zM104 439h1l78 73h-59zM10 340h220v-20h-60v-300h60v-20h-220v20h60v300h-60v20zM150 20v300h-60v-300h60z" />
    <glyph glyph-name="Icircumflex" unicode="&#xce;" horiz-adv-x="240" 
d="M130 446l65 11l-57 53h-36l-57 -53l65 -10v38h20v-39zM223 441l-93 -15h-20l-93 15v17l77 72h52l77 -72v-17zM10 340h220v-20h-60v-300h60v-20h-220v20h60v300h-60v20zM150 20v300h-60v-300h60z" />
    <glyph glyph-name="Idieresis" unicode="&#xcf;" horiz-adv-x="240" 
d="M140 480q0 17 11.5 28.5t28.5 11.5t28.5 -11.5t11.5 -28.5t-11.5 -28.5t-28.5 -11.5t-28.5 11.5t-11.5 28.5zM160 480q0 -8 6 -14t14 -6t14 6t6 14t-6 14t-14 6t-14 -6t-6 -14zM20 480q0 17 11.5 28.5t28.5 11.5t28.5 -11.5t11.5 -28.5t-11.5 -28.5t-28.5 -11.5
t-28.5 11.5t-11.5 28.5zM40 480q0 -8 6 -14t14 -6t14 6t6 14t-6 14t-14 6t-14 -6t-6 -14zM10 340h220v-20h-60v-300h60v-20h-220v20h60v300h-60v20zM150 20v300h-60v-300h60z" />
    <glyph glyph-name="Eth" unicode="&#xd0;" horiz-adv-x="420" 
d="M230 0h-210v20h60v140h-60v20h60v140h-60v20h210q69 0 117 -49t48 -121t-48 -121t-117 -49zM194 320h-94v-300h38q26 14 41 38t15 52v210zM173 20h57q60 0 102.5 43t42.5 107t-42.5 107t-102.5 43h-16v-140h76v-20h-76v-50q0 -53 -41 -90z" />
    <glyph glyph-name="Ntilde" unicode="&#xd1;" horiz-adv-x="410" 
d="M309 487q0 -26 -16 -45t-37 -19q-19 0 -56 15q-35 14 -52 15q-16 0 -36 -16l-12 -10l-4 15q-4 15 -4 26q0 26 16 45t37 19q19 0 56 -15q35 -14 52 -15q16 0 36 16l12 10l4 -15q4 -15 4 -26zM289 486q0 4 -1 7q-18 -11 -35 -11q-22 0 -60 16q-33 14 -48 14
q-13 0 -22.5 -12.5t-10.5 -30.5q0 -5 1 -7q18 11 35 11q22 0 60 -16q33 -14 48 -14q14 0 23.5 12.5t9.5 30.5zM90 20h45v-20h-125v20h60v299q-5 1 -10 1h-40v20h40q25 0 48 -9t46 -29.5t38.5 -36.5t40.5 -46l97 -114v215h-60v20h135v-20h-55v-320h-62l-95 112l-33.5 39
t-31.5 31t-38 29v-191zM90 233q32 -18 58.5 -43.5t59.5 -64.5l89 -105h33v54l-112 132q-40 47 -69 73.5t-59 35.5v-82z" />
    <glyph glyph-name="Ograve" unicode="&#xd2;" 
d="M235 430h-35l-110 100h120zM216 439l-20 73h-59l78 -73h1zM25 170q0 72 51.5 123.5t123.5 51.5t123.5 -51.5t51.5 -123.5t-51.5 -123.5t-123.5 -51.5t-123.5 51.5t-51.5 123.5zM355 170q0 61 -42 106t-103 49v-310q61 4 103 49t42 106zM45 170q0 -61 42 -106t103 -49v310
q-61 -4 -103 -49t-42 -106z" />
    <glyph glyph-name="Oacute" unicode="&#xd3;" 
d="M165 430l25 100h120l-110 -100h-35zM184 439h1l78 73h-59zM25 170q0 72 51.5 123.5t123.5 51.5t123.5 -51.5t51.5 -123.5t-51.5 -123.5t-123.5 -51.5t-123.5 51.5t-51.5 123.5zM355 170q0 61 -42 106t-103 49v-310q61 4 103 49t42 106zM45 170q0 -61 42 -106t103 -49v310
q-61 -4 -103 -49t-42 -106z" />
    <glyph glyph-name="Ocircumflex" unicode="&#xd4;" 
d="M210 446l65 11l-57 53h-36l-57 -53l65 -10v38h20v-39zM303 441l-93 -15h-20l-93 15v17l77 72h52l77 -72v-17zM25 170q0 72 51.5 123.5t123.5 51.5t123.5 -51.5t51.5 -123.5t-51.5 -123.5t-123.5 -51.5t-123.5 51.5t-51.5 123.5zM355 170q0 61 -42 106t-103 49v-310
q61 4 103 49t42 106zM45 170q0 -61 42 -106t103 -49v310q-61 -4 -103 -49t-42 -106z" />
    <glyph glyph-name="Otilde" unicode="&#xd5;" 
d="M309 487q0 -26 -16 -45t-37 -19q-19 0 -56 15q-35 14 -52 15q-16 0 -36 -16l-12 -10l-4 15q-4 15 -4 26q0 26 16 45t37 19q19 0 56 -15q35 -14 52 -15q16 0 36 16l12 10l4 -15q4 -15 4 -26zM289 486q0 4 -1 7q-18 -11 -35 -11q-22 0 -60 16q-33 14 -48 14
q-13 0 -22.5 -12.5t-10.5 -30.5q0 -5 1 -7q18 11 35 11q22 0 60 -16q33 -14 48 -14q14 0 23.5 12.5t9.5 30.5zM25 170q0 72 51.5 123.5t123.5 51.5t123.5 -51.5t51.5 -123.5t-51.5 -123.5t-123.5 -51.5t-123.5 51.5t-51.5 123.5zM355 170q0 61 -42 106t-103 49v-310
q61 4 103 49t42 106zM45 170q0 -61 42 -106t103 -49v310q-61 -4 -103 -49t-42 -106z" />
    <glyph glyph-name="Odieresis" unicode="&#xd6;" 
d="M220 480q0 17 11.5 28.5t28.5 11.5t28.5 -11.5t11.5 -28.5t-11.5 -28.5t-28.5 -11.5t-28.5 11.5t-11.5 28.5zM240 480q0 -8 6 -14t14 -6t14 6t6 14t-6 14t-14 6t-14 -6t-6 -14zM100 480q0 17 11.5 28.5t28.5 11.5t28.5 -11.5t11.5 -28.5t-11.5 -28.5t-28.5 -11.5
t-28.5 11.5t-11.5 28.5zM120 480q0 -8 6 -14t14 -6t14 6t6 14t-6 14t-14 6t-14 -6t-6 -14zM25 170q0 72 51.5 123.5t123.5 51.5t123.5 -51.5t51.5 -123.5t-51.5 -123.5t-123.5 -51.5t-123.5 51.5t-51.5 123.5zM355 170q0 61 -42 106t-103 49v-310q61 4 103 49t42 106z
M45 170q0 -61 42 -106t103 -49v310q-61 -4 -103 -49t-42 -106z" />
    <glyph glyph-name="multiply" unicode="&#xd7;" horiz-adv-x="200" 
d="M100 144l49 50l15 -15l-50 -49l50 -49l-15 -15l-49 50l-49 -50l-15 15l50 49l-50 49l15 15z" />
    <glyph glyph-name="Oslash" unicode="&#xd8;" 
d="M25 170q0 72 51.5 123.5t123.5 51.5q53 0 97 -29l45 60l16 -12l-45 -60q62 -53 62 -134q0 -72 -51.5 -123.5t-123.5 -51.5q-53 0 -97 29l-45 -60l-16 12l45 60q-62 53 -62 134zM99 52l186 248q-39 25 -85 25q-64 0 -109.5 -45.5t-45.5 -109.5q0 -72 54 -118zM115 40
q39 -25 85 -25q64 0 109.5 45.5t45.5 109.5q0 71 -54 118z" />
    <glyph glyph-name="Ugrave" unicode="&#xd9;" 
d="M245 430h-35l-110 100h120zM226 439l-20 73h-59l78 -73h1zM290 340h100v-20h-40v-195q0 -54 -45.5 -92t-109.5 -38q-57 0 -101 37t-44 88v200h-40v20h185v-20h-35v-212q0 -29 16 -53.5t42 -37.5q48 7 80 37.5t32 70.5v195h-40v20zM70 320v-200q0 -41 35 -71.5t82 -33.5
q-47 37 -47 93v212h-1h-69z" />
    <glyph glyph-name="Uacute" unicode="&#xda;" 
d="M175 430l25 100h120l-110 -100h-35zM194 439h1l78 73h-59zM290 340h100v-20h-40v-195q0 -54 -45.5 -92t-109.5 -38q-57 0 -101 37t-44 88v200h-40v20h185v-20h-35v-212q0 -29 16 -53.5t42 -37.5q48 7 80 37.5t32 70.5v195h-40v20zM70 320v-200q0 -41 35 -71.5t82 -33.5
q-47 37 -47 93v212h-1h-69z" />
    <glyph glyph-name="Ucircumflex" unicode="&#xdb;" 
d="M220 446l65 11l-57 53h-36l-57 -53l65 -10v38h20v-39zM313 441l-93 -15h-20l-93 15v17l77 72h52l77 -72v-17zM290 340h100v-20h-40v-195q0 -54 -45.5 -92t-109.5 -38q-57 0 -101 37t-44 88v200h-40v20h185v-20h-35v-212q0 -29 16 -53.5t42 -37.5q48 7 80 37.5t32 70.5
v195h-40v20zM70 320v-200q0 -41 35 -71.5t82 -33.5q-47 37 -47 93v212h-1h-69z" />
    <glyph glyph-name="Udieresis" unicode="&#xdc;" 
d="M230 480q0 17 11.5 28.5t28.5 11.5t28.5 -11.5t11.5 -28.5t-11.5 -28.5t-28.5 -11.5t-28.5 11.5t-11.5 28.5zM250 480q0 -8 6 -14t14 -6t14 6t6 14t-6 14t-14 6t-14 -6t-6 -14zM110 480q0 17 11.5 28.5t28.5 11.5t28.5 -11.5t11.5 -28.5t-11.5 -28.5t-28.5 -11.5
t-28.5 11.5t-11.5 28.5zM130 480q0 -8 6 -14t14 -6t14 6t6 14t-6 14t-14 6t-14 -6t-6 -14zM290 340h100v-20h-40v-195q0 -54 -45.5 -92t-109.5 -38q-57 0 -101 37t-44 88v200h-40v20h185v-20h-35v-212q0 -29 16 -53.5t42 -37.5q48 7 80 37.5t32 70.5v195h-40v20zM70 320
v-200q0 -41 35 -71.5t82 -33.5q-47 37 -47 93v212h-1h-69z" />
    <glyph glyph-name="Yacute" unicode="&#xdd;" horiz-adv-x="395" 
d="M180 430l25 100h120l-110 -100h-35zM199 439h1l78 73h-59zM251 198l97 111q7 8 7 17q0 8 -5.5 13.5t-13.5 5.5h-34v20h34q16 0 27.5 -11.5t11.5 -27.5t-14 -32l-101 -115v-159h60v-20h-220v20h55v126l-125 174h-25v20h144zM240 179l-102 141h-83l120 -167v-133h65v159z
" />
    <glyph glyph-name="Thorn" unicode="&#xde;" horiz-adv-x="370" 
d="M180 121q21 -6 40 -6q43 0 74 29.5t31 70.5q0 25 -20.5 42.5t-49.5 17.5h-75v-154zM90 320v-300h70v300h-70zM180 100v-80h60v-20h-230v20h60v300h-60v20h205v-20h-35v-25h75q37 0 63.5 -23.5t26.5 -56.5q0 -50 -36.5 -85t-88.5 -35q-19 0 -40 5z" />
    <glyph glyph-name="germandbls" unicode="&#xdf;" horiz-adv-x="350" 
d="M170 0v-70h-20v96q25 -8 55 -10v4q0 28 -29 52q-36 30 -36 68v256q0 56 46 94q-44 -4 -75 -37t-31 -78v-625q0 -41 -29.5 -70.5t-70.5 -29.5v20q33 0 56.5 23.5t23.5 56.5v625q0 56 39.5 95.5t95.5 39.5q57 0 96 -38t39 -97q0 -87 -75 -142v-43q0 -28 29 -52
q36 -30 36 -68q0 -31 -28 -53t-67 -22q-28 0 -55 5zM225 15q31 0 53 16t22 39q0 28 -29 52q-36 30 -36 68v29l-14 -8q-32 -20 -46.5 -35t-14.5 -36q0 -28 29 -52q36 -30 36 -68v-5zM160 190q14 15 51 38q23 14 36.5 24t30 28t24.5 41.5t8 53.5q0 44 -26 74.5t-66 38.5
q-58 -30 -58 -92v-206z" />
    <glyph glyph-name="agrave" unicode="&#xe0;" horiz-adv-x="315" 
d="M195 300h-35l-110 100h120zM176 309l-20 73h-59l78 -73h1zM47 57q0 -17 14.5 -29.5t35.5 -12.5q16 0 28 14.5t12 35.5v10q-26 15 -50 15q-17 0 -28.5 -10t-11.5 -23zM157 185v-99q12 -8 39.5 -30.5t43.5 -30.5q-5 11 -5 22v73q0 25 -22.5 44t-55.5 21zM27 57q0 23 18 38
t42 15q25 0 50 -12v87q-36 -2 -67 -12v97h20v-73q30 8 60 8q43 0 74 -25t31 -60v-73q0 -14 8 -23t19 -9q10 0 21 2l4 -19q-13 -3 -25 -3q-19 0 -38.5 7.5t-29.5 14.5t-31 24t-26 20q-1 -29 -18 -47.5t-42 -18.5q-29 0 -49.5 18t-20.5 44z" />
    <glyph glyph-name="aacute" unicode="&#xe1;" horiz-adv-x="315" 
d="M125 300l25 100h120l-110 -100h-35zM144 309h1l78 73h-59zM47 57q0 -17 14.5 -29.5t35.5 -12.5q16 0 28 14.5t12 35.5v10q-26 15 -50 15q-17 0 -28.5 -10t-11.5 -23zM157 185v-99q12 -8 39.5 -30.5t43.5 -30.5q-5 11 -5 22v73q0 25 -22.5 44t-55.5 21zM27 57q0 23 18 38
t42 15q25 0 50 -12v87q-36 -2 -67 -12v97h20v-73q30 8 60 8q43 0 74 -25t31 -60v-73q0 -14 8 -23t19 -9q10 0 21 2l4 -19q-13 -3 -25 -3q-19 0 -38.5 7.5t-29.5 14.5t-31 24t-26 20q-1 -29 -18 -47.5t-42 -18.5q-29 0 -49.5 18t-20.5 44z" />
    <glyph glyph-name="acircumflex" unicode="&#xe2;" horiz-adv-x="315" 
d="M170 316l65 11l-57 53h-36l-57 -53l65 -10v38h20v-39zM263 311l-93 -15h-20l-93 15v17l77 72h52l77 -72v-17zM47 57q0 -17 14.5 -29.5t35.5 -12.5q16 0 28 14.5t12 35.5v10q-26 15 -50 15q-17 0 -28.5 -10t-11.5 -23zM157 185v-99q12 -8 39.5 -30.5t43.5 -30.5
q-5 11 -5 22v73q0 25 -22.5 44t-55.5 21zM27 57q0 23 18 38t42 15q25 0 50 -12v87q-36 -2 -67 -12v97h20v-73q30 8 60 8q43 0 74 -25t31 -60v-73q0 -14 8 -23t19 -9q10 0 21 2l4 -19q-13 -3 -25 -3q-19 0 -38.5 7.5t-29.5 14.5t-31 24t-26 20q-1 -29 -18 -47.5t-42 -18.5
q-29 0 -49.5 18t-20.5 44z" />
    <glyph glyph-name="atilde" unicode="&#xe3;" horiz-adv-x="315" 
d="M269 357q0 -26 -16 -45t-37 -19q-19 0 -56 15q-35 14 -52 15q-16 0 -36 -16l-12 -10l-4 15q-4 15 -4 26q0 26 16 45t37 19q19 0 56 -15q35 -14 52 -15q16 0 36 16l12 10l4 -15q4 -15 4 -26zM249 356q0 4 -1 7q-18 -11 -35 -11q-22 0 -60 16q-33 14 -48 14
q-13 0 -22.5 -12.5t-10.5 -30.5q0 -5 1 -7q18 11 35 11q22 0 60 -16q33 -14 48 -14q14 0 23.5 12.5t9.5 30.5zM47 57q0 -17 14.5 -29.5t35.5 -12.5q16 0 28 14.5t12 35.5v10q-26 15 -50 15q-17 0 -28.5 -10t-11.5 -23zM157 185v-99q12 -8 39.5 -30.5t43.5 -30.5q-5 11 -5 22
v73q0 25 -22.5 44t-55.5 21zM27 57q0 23 18 38t42 15q25 0 50 -12v87q-36 -2 -67 -12v97h20v-73q30 8 60 8q43 0 74 -25t31 -60v-73q0 -14 8 -23t19 -9q10 0 21 2l4 -19q-13 -3 -25 -3q-19 0 -38.5 7.5t-29.5 14.5t-31 24t-26 20q-1 -29 -18 -47.5t-42 -18.5q-29 0 -49.5 18
t-20.5 44z" />
    <glyph glyph-name="adieresis" unicode="&#xe4;" horiz-adv-x="315" 
d="M180 350q0 17 11.5 28.5t28.5 11.5t28.5 -11.5t11.5 -28.5t-11.5 -28.5t-28.5 -11.5t-28.5 11.5t-11.5 28.5zM200 350q0 -8 6 -14t14 -6t14 6t6 14t-6 14t-14 6t-14 -6t-6 -14zM60 350q0 17 11.5 28.5t28.5 11.5t28.5 -11.5t11.5 -28.5t-11.5 -28.5t-28.5 -11.5
t-28.5 11.5t-11.5 28.5zM80 350q0 -8 6 -14t14 -6t14 6t6 14t-6 14t-14 6t-14 -6t-6 -14zM47 57q0 -17 14.5 -29.5t35.5 -12.5q16 0 28 14.5t12 35.5v10q-26 15 -50 15q-17 0 -28.5 -10t-11.5 -23zM157 185v-99q12 -8 39.5 -30.5t43.5 -30.5q-5 11 -5 22v73q0 25 -22.5 44
t-55.5 21zM27 57q0 23 18 38t42 15q25 0 50 -12v87q-36 -2 -67 -12v97h20v-73q30 8 60 8q43 0 74 -25t31 -60v-73q0 -14 8 -23t19 -9q10 0 21 2l4 -19q-13 -3 -25 -3q-19 0 -38.5 7.5t-29.5 14.5t-31 24t-26 20q-1 -29 -18 -47.5t-42 -18.5q-29 0 -49.5 18t-20.5 44z" />
    <glyph glyph-name="aring" unicode="&#xe5;" horiz-adv-x="315" 
d="M110 350q0 -21 14.5 -35.5t35.5 -14.5t35.5 14.5t14.5 35.5t-14.5 35.5t-35.5 14.5t-35.5 -14.5t-14.5 -35.5zM90 350q0 29 20.5 49.5t49.5 20.5t49.5 -20.5t20.5 -49.5t-20.5 -49.5t-49.5 -20.5t-49.5 20.5t-20.5 49.5zM47 57q0 -17 14.5 -29.5t35.5 -12.5q16 0 28 14.5
t12 35.5v10q-26 15 -50 15q-17 0 -28.5 -10t-11.5 -23zM157 185v-99q12 -8 39.5 -30.5t43.5 -30.5q-5 11 -5 22v73q0 25 -22.5 44t-55.5 21zM27 57q0 23 18 38t42 15q25 0 50 -12v87q-36 -2 -67 -12v97h20v-73q30 8 60 8q43 0 74 -25t31 -60v-73q0 -14 8 -23t19 -9
q10 0 21 2l4 -19q-13 -3 -25 -3q-19 0 -38.5 7.5t-29.5 14.5t-31 24t-26 20q-1 -29 -18 -47.5t-42 -18.5q-29 0 -49.5 18t-20.5 44z" />
    <glyph glyph-name="ae" unicode="&#xe6;" horiz-adv-x="415" 
d="M147 68l-3 3q-25 24 -57 24q-16 0 -28 -12t-12 -26q0 -17 14.5 -29.5t35.5 -12.5q17 0 33.5 15.5t16.5 34.5v3zM167 77l3 -3l14.5 -14t14.5 -14.5t13.5 -11.5t16 -10.5t15.5 -6t19 -2.5q15 0 30 2q-45 37 -45 93v75h-81v-108zM90 199q29 6 60 6h118q43 0 74 -22t31 -53
q0 -27 -26.5 -46.5t-64.5 -22.5q14 -24 38 -39q31 8 58 25l10 -17q-57 -35 -125 -35q-21 0 -41 10t-29 18.5l-28 27.5q-6 -24 -26 -40t-42 -16q-29 0 -49.5 18t-20.5 44q0 23 17.5 40.5t42.5 17.5q31 0 60 -21v91q-42 0 -77 -12v97h20v-71zM273 80q34 1 57 15.5t23 34.5
q0 23 -25 39t-60 16v-75q0 -15 5 -30z" />
    <glyph glyph-name="ccedilla" unicode="&#xe7;" horiz-adv-x="300" 
d="M208 -145q-24 -42 -65 -42h-49q-1 -3 -1 -6q0 -18 14.5 -31.5t35.5 -13.5q29 0 49.5 20t20.5 49q0 12 -5 24zM38 100q0 43 33.5 74t81.5 31q46 0 75 -29v94h20v-140h-20q0 22 -19 37t-46 18v-75q0 -56 50 -87q24 7 46 18l9 -17q-49 -27 -106 -29l-19 -70q52 -6 77 -49
q13 -21 13 -45q0 -37 -26.5 -63t-63.5 -26q-29 0 -49.5 18.5t-20.5 46.5q0 10 4 19l2 7h64q17 0 31.5 11.5t21.5 31.5q-25 29 -66 30h-13l24 90q-44 4 -73.5 33.5t-29.5 70.5zM58 100q0 -35 28 -60t67 -25q17 0 34 3q-44 37 -44 92v75q-36 -3 -60.5 -27.5t-24.5 -57.5z" />
    <glyph glyph-name="egrave" unicode="&#xe8;" horiz-adv-x="305" 
d="M188 300h-35l-110 100h120zM169 309l-20 73h-59l78 -73h1zM58 100q0 -35 28 -60t67 -25q15 0 30 2q-45 37 -45 93v73q-35 -6 -57.5 -29t-22.5 -54zM38 100q0 43 35 74t85 31q43 0 74 -22t31 -53q0 -27 -26.5 -46.5t-64.5 -22.5q14 -24 38 -39q31 8 58 25l10 -17
q-57 -35 -125 -35q-48 0 -81.5 31t-33.5 74zM163 80q34 1 57 15.5t23 34.5q0 23 -25 39t-60 16v-75q0 -15 5 -30z" />
    <glyph glyph-name="eacute" unicode="&#xe9;" horiz-adv-x="305" 
d="M118 300l25 100h120l-110 -100h-35zM137 309h1l78 73h-59zM58 100q0 -35 28 -60t67 -25q15 0 30 2q-45 37 -45 93v73q-35 -6 -57.5 -29t-22.5 -54zM38 100q0 43 35 74t85 31q43 0 74 -22t31 -53q0 -27 -26.5 -46.5t-64.5 -22.5q14 -24 38 -39q31 8 58 25l10 -17
q-57 -35 -125 -35q-48 0 -81.5 31t-33.5 74zM163 80q34 1 57 15.5t23 34.5q0 23 -25 39t-60 16v-75q0 -15 5 -30z" />
    <glyph glyph-name="ecircumflex" unicode="&#xea;" horiz-adv-x="305" 
d="M163 316l65 11l-57 53h-36l-57 -53l65 -10v38h20v-39zM256 311l-93 -15h-20l-93 15v17l77 72h52l77 -72v-17zM58 100q0 -35 28 -60t67 -25q15 0 30 2q-45 37 -45 93v73q-35 -6 -57.5 -29t-22.5 -54zM38 100q0 43 35 74t85 31q43 0 74 -22t31 -53q0 -27 -26.5 -46.5
t-64.5 -22.5q14 -24 38 -39q31 8 58 25l10 -17q-57 -35 -125 -35q-48 0 -81.5 31t-33.5 74zM163 80q34 1 57 15.5t23 34.5q0 23 -25 39t-60 16v-75q0 -15 5 -30z" />
    <glyph glyph-name="edieresis" unicode="&#xeb;" horiz-adv-x="305" 
d="M173 350q0 17 11.5 28.5t28.5 11.5t28.5 -11.5t11.5 -28.5t-11.5 -28.5t-28.5 -11.5t-28.5 11.5t-11.5 28.5zM193 350q0 -8 6 -14t14 -6t14 6t6 14t-6 14t-14 6t-14 -6t-6 -14zM53 350q0 17 11.5 28.5t28.5 11.5t28.5 -11.5t11.5 -28.5t-11.5 -28.5t-28.5 -11.5
t-28.5 11.5t-11.5 28.5zM73 350q0 -8 6 -14t14 -6t14 6t6 14t-6 14t-14 6t-14 -6t-6 -14zM58 100q0 -35 28 -60t67 -25q15 0 30 2q-45 37 -45 93v73q-35 -6 -57.5 -29t-22.5 -54zM38 100q0 43 35 74t85 31q43 0 74 -22t31 -53q0 -27 -26.5 -46.5t-64.5 -22.5q14 -24 38 -39
q31 8 58 25l10 -17q-57 -35 -125 -35q-48 0 -81.5 31t-33.5 74zM163 80q34 1 57 15.5t23 34.5q0 23 -25 39t-60 16v-75q0 -15 5 -30z" />
    <glyph glyph-name="igrave" unicode="&#xec;" horiz-adv-x="235" 
d="M155 300h-35l-110 100h120zM136 309l-20 73h-59l78 -73h1zM90 20h60v160h-60v-160zM10 0v20h60v160h-50v20h150v-180h60v-20h-220z" />
    <glyph glyph-name="iacute" unicode="&#xed;" horiz-adv-x="235" 
d="M85 300l25 100h120l-110 -100h-35zM104 309h1l78 73h-59zM90 20h60v160h-60v-160zM10 0v20h60v160h-50v20h150v-180h60v-20h-220z" />
    <glyph glyph-name="icircumflex" unicode="&#xee;" horiz-adv-x="235" 
d="M130 316l65 11l-57 53h-36l-57 -53l65 -10v38h20v-39zM223 311l-93 -15h-20l-93 15v17l77 72h52l77 -72v-17zM90 20h60v160h-60v-160zM10 0v20h60v160h-50v20h150v-180h60v-20h-220z" />
    <glyph glyph-name="idieresis" unicode="&#xef;" horiz-adv-x="235" 
d="M140 350q0 17 11.5 28.5t28.5 11.5t28.5 -11.5t11.5 -28.5t-11.5 -28.5t-28.5 -11.5t-28.5 11.5t-11.5 28.5zM160 350q0 -8 6 -14t14 -6t14 6t6 14t-6 14t-14 6t-14 -6t-6 -14zM20 350q0 17 11.5 28.5t28.5 11.5t28.5 -11.5t11.5 -28.5t-11.5 -28.5t-28.5 -11.5
t-28.5 11.5t-11.5 28.5zM40 350q0 -8 6 -14t14 -6t14 6t6 14t-6 14t-14 6t-14 -6t-6 -14zM90 20h60v160h-60v-160zM10 0v20h60v160h-50v20h150v-180h60v-20h-220z" />
    <glyph glyph-name="eth" unicode="&#xf0;" horiz-adv-x="340" 
d="M170 205v128l-12 2l-38 -54l-16 11l30 43h-44v20h58l36 52l17 -11l-30 -43q59 -9 99 -59.5t40 -118.5q0 -75 -47 -127.5t-113 -52.5q-50 0 -85 31t-35 74t35 74t85 31h20zM190 328v-216q0 -59 -49 -97h9q58 0 99 47t41 113q0 54 -28 96t-72 57zM113 21q26 14 41.5 38
t15.5 53v73h-20q-41 0 -70.5 -25t-29.5 -60q0 -26 17.5 -47.5t45.5 -31.5z" />
    <glyph glyph-name="ntilde" unicode="&#xf1;" horiz-adv-x="412" 
d="M299 357q0 -26 -16 -45t-37 -19q-19 0 -56 15q-35 14 -52 15q-16 0 -36 -16l-12 -10l-4 15q-4 15 -4 26q0 26 16 45t37 19q19 0 56 -15q35 -14 52 -15q16 0 36 16l12 10l4 -15q4 -15 4 -26zM279 356q0 4 -1 7q-18 -11 -35 -11q-22 0 -60 16q-33 14 -48 14
q-13 0 -22.5 -12.5t-10.5 -30.5q0 -5 1 -7q18 11 35 11q22 0 60 -16q33 -14 48 -14q14 0 23.5 12.5t9.5 30.5zM90 20h60v160h-60v-160zM385 15v-20q-29 0 -49.5 7t-34.5 23t-20.5 27.5t-15.5 33.5q-1 3 -5.5 13.5l-6 14t-5.5 11t-6.5 11t-6 9t-8 8.5t-8.5 6
q-49 -46 -49 -129v-30h-160v20h60v160h-50v20h150v-83q17 40 46 64t64 24q31 0 53 -22t22 -53v-70q0 -24 7 -43q10 -2 23 -2zM235 172q6 -4 12 -10.5t9.5 -11.5t8 -14l6.5 -13t6.5 -15t5.5 -14q10 -22 14.5 -31t16 -22t26.5 -19q-5 20 -5 38v70q0 23 -16 39t-39 16
q-24 0 -45 -13z" />
    <glyph glyph-name="ograve" unicode="&#xf2;" horiz-adv-x="320" 
d="M195 300h-35l-110 100h120zM176 309l-20 73h-59l78 -73h1zM35 100q0 43 36.5 74t88.5 31t88.5 -31t36.5 -74t-36.5 -74t-88.5 -31t-88.5 31t-36.5 74zM265 100q0 33 -27.5 57.5t-67.5 27.5v-170q40 3 67.5 27.5t27.5 57.5zM55 100q0 -33 27.5 -57.5t67.5 -27.5v170
q-40 -3 -67.5 -27.5t-27.5 -57.5z" />
    <glyph glyph-name="oacute" unicode="&#xf3;" horiz-adv-x="320" 
d="M115 300l25 100h120l-110 -100h-35zM134 309h1l78 73h-59zM35 100q0 43 36.5 74t88.5 31t88.5 -31t36.5 -74t-36.5 -74t-88.5 -31t-88.5 31t-36.5 74zM265 100q0 33 -27.5 57.5t-67.5 27.5v-170q40 3 67.5 27.5t27.5 57.5zM55 100q0 -33 27.5 -57.5t67.5 -27.5v170
q-40 -3 -67.5 -27.5t-27.5 -57.5z" />
    <glyph glyph-name="ocircumflex" unicode="&#xf4;" horiz-adv-x="320" 
d="M170 316l65 11l-57 53h-36l-57 -53l65 -10v38h20v-39zM263 311l-93 -15h-20l-93 15v17l77 72h52l77 -72v-17zM35 100q0 43 36.5 74t88.5 31t88.5 -31t36.5 -74t-36.5 -74t-88.5 -31t-88.5 31t-36.5 74zM265 100q0 33 -27.5 57.5t-67.5 27.5v-170q40 3 67.5 27.5
t27.5 57.5zM55 100q0 -33 27.5 -57.5t67.5 -27.5v170q-40 -3 -67.5 -27.5t-27.5 -57.5z" />
    <glyph glyph-name="otilde" unicode="&#xf5;" horiz-adv-x="320" 
d="M269 357q0 -26 -16 -45t-37 -19q-19 0 -56 15q-35 14 -52 15q-16 0 -36 -16l-12 -10l-4 15q-4 15 -4 26q0 26 16 45t37 19q19 0 56 -15q35 -14 52 -15q16 0 36 16l12 10l4 -15q4 -15 4 -26zM249 356q0 4 -1 7q-18 -11 -35 -11q-22 0 -60 16q-33 14 -48 14
q-13 0 -22.5 -12.5t-10.5 -30.5q0 -5 1 -7q18 11 35 11q22 0 60 -16q33 -14 48 -14q14 0 23.5 12.5t9.5 30.5zM35 100q0 43 36.5 74t88.5 31t88.5 -31t36.5 -74t-36.5 -74t-88.5 -31t-88.5 31t-36.5 74zM265 100q0 33 -27.5 57.5t-67.5 27.5v-170q40 3 67.5 27.5t27.5 57.5z
M55 100q0 -33 27.5 -57.5t67.5 -27.5v170q-40 -3 -67.5 -27.5t-27.5 -57.5z" />
    <glyph glyph-name="odieresis" unicode="&#xf6;" horiz-adv-x="320" 
d="M180 350q0 17 11.5 28.5t28.5 11.5t28.5 -11.5t11.5 -28.5t-11.5 -28.5t-28.5 -11.5t-28.5 11.5t-11.5 28.5zM200 350q0 -8 6 -14t14 -6t14 6t6 14t-6 14t-14 6t-14 -6t-6 -14zM60 350q0 17 11.5 28.5t28.5 11.5t28.5 -11.5t11.5 -28.5t-11.5 -28.5t-28.5 -11.5
t-28.5 11.5t-11.5 28.5zM80 350q0 -8 6 -14t14 -6t14 6t6 14t-6 14t-14 6t-14 -6t-6 -14zM35 100q0 43 36.5 74t88.5 31t88.5 -31t36.5 -74t-36.5 -74t-88.5 -31t-88.5 31t-36.5 74zM265 100q0 33 -27.5 57.5t-67.5 27.5v-170q40 3 67.5 27.5t27.5 57.5zM55 100
q0 -33 27.5 -57.5t67.5 -27.5v170q-40 -3 -67.5 -27.5t-27.5 -57.5z" />
    <glyph glyph-name="divide" unicode="&#xf7;" horiz-adv-x="260" 
d="M120 45q0 -10 10 -10t10 10t-10 10t-10 -10zM100 215q0 12 9 21t21 9t21 -9t9 -21t-9 -21t-21 -9t-21 9t-9 21zM120 215q0 -10 10 -10t10 10t-10 10t-10 -10zM100 45q0 12 9 21t21 9t21 -9t9 -21t-9 -21t-21 -9t-21 9t-9 21zM230 140v-20h-200v20h200z" />
    <glyph glyph-name="oslash" unicode="&#xf8;" horiz-adv-x="320" 
d="M35 100q0 43 36.5 74t88.5 31q34 0 63 -15l39 46l16 -12l-37 -44q44 -31 44 -80q0 -43 -36.5 -74t-88.5 -31q-34 0 -63 15l-39 -46l-16 12l37 44q-44 31 -44 80zM92 35l118 140q-23 10 -50 10q-43 0 -74 -25t-31 -60q0 -40 37 -65zM110 25q23 -10 50 -10q43 0 74 25
t31 60q0 39 -37 65z" />
    <glyph glyph-name="ugrave" unicode="&#xf9;" horiz-adv-x="412" 
d="M230 300h-35l-110 100h120zM211 309l-20 73h-59l78 -73h1zM332 180h-60v-160h60v160zM352 200v-180h50v-20h-150v80q-18 -39 -50 -62t-70 -23q-31 0 -53 22t-22 53v70q0 24 -7 43q-11 2 -23 2v20q29 0 49.5 -7t34.5 -22.5t20.5 -27.5t15.5 -34l15.5 -35t15.5 -24t20 -16
q25 20 39.5 52t14.5 69v20h-40v20h140zM179 27q-26 18 -50 79q-11 29 -23.5 46.5t-33.5 25.5q5 -20 5 -38v-70q0 -23 16 -39t39 -16q25 0 47 12z" />
    <glyph glyph-name="uacute" unicode="&#xfa;" horiz-adv-x="412" 
d="M160 300l25 100h120l-110 -100h-35zM179 309h1l78 73h-59zM332 180h-60v-160h60v160zM352 200v-180h50v-20h-150v80q-18 -39 -50 -62t-70 -23q-31 0 -53 22t-22 53v70q0 24 -7 43q-11 2 -23 2v20q29 0 49.5 -7t34.5 -22.5t20.5 -27.5t15.5 -34l15.5 -35t15.5 -24t20 -16
q25 20 39.5 52t14.5 69v20h-40v20h140zM179 27q-26 18 -50 79q-11 29 -23.5 46.5t-33.5 25.5q5 -20 5 -38v-70q0 -23 16 -39t39 -16q25 0 47 12z" />
    <glyph glyph-name="ucircumflex" unicode="&#xfb;" horiz-adv-x="412" 
d="M205 316l65 11l-57 53h-36l-57 -53l65 -10v38h20v-39zM298 311l-93 -15h-20l-93 15v17l77 72h52l77 -72v-17zM332 180h-60v-160h60v160zM352 200v-180h50v-20h-150v80q-18 -39 -50 -62t-70 -23q-31 0 -53 22t-22 53v70q0 24 -7 43q-11 2 -23 2v20q29 0 49.5 -7
t34.5 -22.5t20.5 -27.5t15.5 -34l15.5 -35t15.5 -24t20 -16q25 20 39.5 52t14.5 69v20h-40v20h140zM179 27q-26 18 -50 79q-11 29 -23.5 46.5t-33.5 25.5q5 -20 5 -38v-70q0 -23 16 -39t39 -16q25 0 47 12z" />
    <glyph glyph-name="udieresis" unicode="&#xfc;" horiz-adv-x="412" 
d="M215 350q0 17 11.5 28.5t28.5 11.5t28.5 -11.5t11.5 -28.5t-11.5 -28.5t-28.5 -11.5t-28.5 11.5t-11.5 28.5zM235 350q0 -8 6 -14t14 -6t14 6t6 14t-6 14t-14 6t-14 -6t-6 -14zM95 350q0 17 11.5 28.5t28.5 11.5t28.5 -11.5t11.5 -28.5t-11.5 -28.5t-28.5 -11.5
t-28.5 11.5t-11.5 28.5zM115 350q0 -8 6 -14t14 -6t14 6t6 14t-6 14t-14 6t-14 -6t-6 -14zM332 180h-60v-160h60v160zM352 200v-180h50v-20h-150v80q-18 -39 -50 -62t-70 -23q-31 0 -53 22t-22 53v70q0 24 -7 43q-11 2 -23 2v20q29 0 49.5 -7t34.5 -22.5t20.5 -27.5
t15.5 -34l15.5 -35t15.5 -24t20 -16q25 20 39.5 52t14.5 69v20h-40v20h140zM179 27q-26 18 -50 79q-11 29 -23.5 46.5t-33.5 25.5q5 -20 5 -38v-70q0 -23 16 -39t39 -16q25 0 47 12z" />
    <glyph glyph-name="yacute" unicode="&#xfd;" horiz-adv-x="345" 
d="M155 300l25 100h120l-110 -100h-35zM174 309h1l78 73h-59zM166 9l-155 155l17 18q24 24 57 24t57 -24l28 -28q39 -39 45 -96l78 78q11 11 11 25q0 12 -8.5 20.5t-24.5 8.5h-27v20h27q24 0 38.5 -14.5t14.5 -34.5q0 -22 -17 -39l-142 -142q-39 -39 -39 -90v-212
q22 -8 46 -8q57 0 98.5 41.5t41.5 98.5t-42 98l14 14q48 -48 48 -112.5t-47.5 -112t-112.5 -47.5t-111 47.5t-46 112.5q0 48 54 102zM180 23l16 16q0 60 -40 100l-28 29q-18 18 -43 18t-42 -19l-4 -3zM106 -312v202q0 18 5 36l-28 -28q-48 -48 -48 -88q0 -38 19.5 -71
t51.5 -51z" />
    <glyph glyph-name="thorn" unicode="&#xfe;" horiz-adv-x="403" 
d="M85 530v-860h60v860h-60zM65 530h-50v20h150v-444q18 45 50 72t70 27q33 0 56.5 -23.5t23.5 -56.5q0 -54 -39.5 -92t-95.5 -38q-31 0 -65 13v-338h60v-20h-220v20h60v860zM222 159q-50 -45 -56 -131q26 -9 42 -11q47 33 47 88q0 37 -33 54zM237 15q45 3 76.5 34.5
t31.5 75.5q0 24 -17.5 42t-42.5 18q-24 0 -46 -13q36 -24 36 -67q0 -52 -38 -90z" />
    <glyph glyph-name="ydieresis" unicode="&#xff;" horiz-adv-x="345" 
d="M210 350q0 17 11.5 28.5t28.5 11.5t28.5 -11.5t11.5 -28.5t-11.5 -28.5t-28.5 -11.5t-28.5 11.5t-11.5 28.5zM230 350q0 -8 6 -14t14 -6t14 6t6 14t-6 14t-14 6t-14 -6t-6 -14zM90 350q0 17 11.5 28.5t28.5 11.5t28.5 -11.5t11.5 -28.5t-11.5 -28.5t-28.5 -11.5
t-28.5 11.5t-11.5 28.5zM110 350q0 -8 6 -14t14 -6t14 6t6 14t-6 14t-14 6t-14 -6t-6 -14zM166 9l-155 155l17 18q24 24 57 24t57 -24l28 -28q39 -39 45 -96l78 78q11 11 11 25q0 12 -8.5 20.5t-24.5 8.5h-27v20h27q24 0 38.5 -14.5t14.5 -34.5q0 -22 -17 -39l-142 -142
q-39 -39 -39 -90v-212q22 -8 46 -8q57 0 98.5 41.5t41.5 98.5t-42 98l14 14q48 -48 48 -112.5t-47.5 -112t-112.5 -47.5t-111 47.5t-46 112.5q0 48 54 102zM180 23l16 16q0 60 -40 100l-28 29q-18 18 -43 18t-42 -19l-4 -3zM106 -312v202q0 18 5 36l-28 -28q-48 -48 -48 -88
q0 -38 19.5 -71t51.5 -51z" />
    <glyph glyph-name="Amacron" unicode="&#x100;" horiz-adv-x="425" 
d="M125 500v-40h140v40h-140zM105 520h180v-80h-180v80zM159 325l198 -343q18 18 18 55q0 45 -27 91l-100 172q-14 25 -33 25h-56zM136 325h-31v20h110q30 0 51 -35l100 -172q29 -50 29 -101q0 -53 -35 -78l-9 -6l-73 127h-203l-35 -60h89v-20h-123l159 275zM176 255
l-90 -155h180z" />
    <glyph glyph-name="amacron" unicode="&#x101;" horiz-adv-x="315" 
d="M90 370v-40h140v40h-140zM70 390h180v-80h-180v80zM47 57q0 -17 14.5 -29.5t35.5 -12.5q16 0 28 14.5t12 35.5v10q-26 15 -50 15q-17 0 -28.5 -10t-11.5 -23zM157 185v-99q12 -8 39.5 -30.5t43.5 -30.5q-5 11 -5 22v73q0 25 -22.5 44t-55.5 21zM27 57q0 23 18 38t42 15
q25 0 50 -12v87q-36 -2 -67 -12v97h20v-73q30 8 60 8q43 0 74 -25t31 -60v-73q0 -14 8 -23t19 -9q10 0 21 2l4 -19q-13 -3 -25 -3q-19 0 -38.5 7.5t-29.5 14.5t-31 24t-26 20q-1 -29 -18 -47.5t-42 -18.5q-29 0 -49.5 18t-20.5 44z" />
    <glyph glyph-name="Abreve" unicode="&#x102;" horiz-adv-x="425" 
d="M195 514q62 0 113 23l15 -16q-55 -94 -128 -94t-128 94l15 16q51 -23 113 -23zM194.5 494q-51.5 0 -95.5 15q44 -62 96.5 -62t95.5 62q-45 -15 -96.5 -15zM159 325l198 -343q18 18 18 55q0 45 -27 91l-100 172q-14 25 -33 25h-56zM136 325h-31v20h110q30 0 51 -35
l100 -172q29 -50 29 -101q0 -53 -35 -78l-9 -6l-73 127h-203l-35 -60h89v-20h-123l159 275zM176 255l-90 -155h180z" />
    <glyph glyph-name="abreve" unicode="&#x103;" horiz-adv-x="315" 
d="M160 384q62 0 113 23l15 -16q-55 -94 -128 -94t-128 94l15 16q51 -23 113 -23zM159.5 364q-51.5 0 -95.5 15q44 -62 96.5 -62t95.5 62q-45 -15 -96.5 -15zM47 57q0 -17 14.5 -29.5t35.5 -12.5q16 0 28 14.5t12 35.5v10q-26 15 -50 15q-17 0 -28.5 -10t-11.5 -23zM157 185
v-99q12 -8 39.5 -30.5t43.5 -30.5q-5 11 -5 22v73q0 25 -22.5 44t-55.5 21zM27 57q0 23 18 38t42 15q25 0 50 -12v87q-36 -2 -67 -12v97h20v-73q30 8 60 8q43 0 74 -25t31 -60v-73q0 -14 8 -23t19 -9q10 0 21 2l4 -19q-13 -3 -25 -3q-19 0 -38.5 7.5t-29.5 14.5t-31 24
t-26 20q-1 -29 -18 -47.5t-42 -18.5q-29 0 -49.5 18t-20.5 44z" />
    <glyph glyph-name="Aogonek" unicode="&#x104;" horiz-adv-x="415" 
d="M292 -93q-9 -23 -9 -48t15.5 -43t38.5 -18q16 0 26.5 12.5t10.5 29.5q-28 0 -50.5 19t-31.5 48zM176 255l-90 -155h180zM136 325h-31v20h110q30 0 51 -35l100 -172q29 -50 29 -101q0 -53 -35 -78l-9 -6l-10 18q-20 -16 -34 -36q1 -31 20.5 -53t46.5 -22h20v-20
q0 -26 -16.5 -44t-40.5 -18q-31 0 -52.5 23.5t-21.5 57.5q0 75 68 129l-53 92h-203l-35 -60h89v-20h-123l159 275zM159 325l198 -343q18 18 18 55q0 45 -27 91l-100 172q-14 25 -33 25h-56z" />
    <glyph glyph-name="aogonek" unicode="&#x105;" horiz-adv-x="315" 
d="M47 57q0 -17 14.5 -29.5t35.5 -12.5q16 0 28 14.5t12 35.5v10q-26 15 -50 15q-17 0 -28.5 -10t-11.5 -23zM157 185v-99q12 -8 39.5 -30.5t43.5 -30.5q-5 11 -5 22v73q0 25 -22.5 44t-55.5 21zM310 -160q0 -26 -17 -44t-40 -18q-31 0 -53 23.5t-22 57.5q0 83 81 138
q-14 3 -29.5 11.5t-25 15.5t-25 20t-22.5 17q-1 -29 -18 -47.5t-42 -18.5q-29 0 -49.5 18t-20.5 44q0 23 18 38t42 15q25 0 50 -12v87q-36 -2 -67 -12v97h20v-73q30 8 60 8q43 0 74 -25t31 -60v-73q0 -14 8 -23t19 -9q10 0 21 2l4 -19l-14 -3q-45 -24 -70 -60
q1 -31 20.5 -53t46.5 -22h20v-20zM207 -94q-9 -23 -9 -47q0 -25 16 -43t38 -18q16 0 27 12t11 30q-28 0 -51 18.5t-32 47.5z" />
    <glyph glyph-name="Cacute" unicode="&#x106;" horiz-adv-x="340" 
d="M145 430l25 100h120l-110 -100h-35zM164 439h1l78 73h-59zM28 170q0 72 48.5 123.5t116.5 51.5q46 0 75 -29v104h20v-150h-20q0 24 -22.5 39.5t-52.5 15.5q-10 0 -20 -1v-214q0 -29 16 -53.5t43 -38.5q36 6 67 23l9 -17q-53 -29 -115 -29q-68 0 -116.5 51.5t-48.5 123.5z
M48 170q0 -64 42.5 -109.5t102.5 -45.5h7q-47 37 -47 95v209q-46 -14 -75.5 -55.5t-29.5 -93.5z" />
    <glyph glyph-name="cacute" unicode="&#x107;" horiz-adv-x="300" 
d="M115 300l25 100h120l-110 -100h-35zM134 309h1l78 73h-59zM38 100q0 43 33.5 74t81.5 31q46 0 75 -29v94h20v-140h-20q0 22 -19 37t-46 18v-75q0 -56 50 -87q24 7 46 18l9 -17q-53 -29 -115 -29q-48 0 -81.5 31t-33.5 74zM58 100q0 -35 28 -60t67 -25q17 0 34 3
q-44 37 -44 92v75q-36 -3 -60.5 -27.5t-24.5 -57.5z" />
    <glyph glyph-name="Ccircumflex" unicode="&#x108;" horiz-adv-x="340" 
d="M28 170q0 72 48.5 123.5t116.5 51.5q46 0 75 -29v74h20v-120h-20q0 24 -22.5 39.5t-52.5 15.5q-10 0 -20 -1v-214q0 -29 16 -53.5t43 -38.5q36 6 67 23l9 -17q-53 -29 -115 -29q-68 0 -116.5 51.5t-48.5 123.5zM48 170q0 -64 42.5 -109.5t102.5 -45.5h7q-47 37 -47 95
v209q-46 -14 -75.5 -55.5t-29.5 -93.5zM190 446l65 11l-57 53h-36l-57 -53l65 -10v38h20v-39zM283 441l-93 -15h-20l-93 15v17l77 72h52l77 -72v-17z" />
    <glyph glyph-name="ccircumflex" unicode="&#x109;" horiz-adv-x="300" 
d="M169 316l65 11l-57 53h-36l-57 -53l65 -10v38h20v-39zM262 311l-93 -15h-20l-93 15v17l77 72h52l77 -72v-17zM38 100q0 43 33.5 74t81.5 31q46 0 75 -29v94h20v-140h-20q0 22 -19 37t-46 18v-75q0 -56 50 -87q24 7 46 18l9 -17q-53 -29 -115 -29q-48 0 -81.5 31t-33.5 74
zM58 100q0 -35 28 -60t67 -25q17 0 34 3q-44 37 -44 92v75q-36 -3 -60.5 -27.5t-24.5 -57.5z" />
    <glyph glyph-name="Cdotaccent" unicode="&#x10a;" horiz-adv-x="340" 
d="M150 480q0 -12 9 -21t21 -9t21 9t9 21t-9 21t-21 9t-21 -9t-9 -21zM130 480q0 21 14.5 35.5t35.5 14.5t35.5 -14.5t14.5 -35.5t-14.5 -35.5t-35.5 -14.5t-35.5 14.5t-14.5 35.5zM28 170q0 72 48.5 123.5t116.5 51.5q46 0 75 -29v104h20v-150h-20q0 24 -22.5 39.5
t-52.5 15.5q-10 0 -20 -1v-214q0 -29 16 -53.5t43 -38.5q36 6 67 23l9 -17q-53 -29 -115 -29q-68 0 -116.5 51.5t-48.5 123.5zM48 170q0 -64 42.5 -109.5t102.5 -45.5h7q-47 37 -47 95v209q-46 -14 -75.5 -55.5t-29.5 -93.5z" />
    <glyph glyph-name="cdotaccent" unicode="&#x10b;" horiz-adv-x="300" 
d="M129 350q0 -12 9 -21t21 -9t21 9t9 21t-9 21t-21 9t-21 -9t-9 -21zM109 350q0 21 14.5 35.5t35.5 14.5t35.5 -14.5t14.5 -35.5t-14.5 -35.5t-35.5 -14.5t-35.5 14.5t-14.5 35.5zM38 100q0 43 33.5 74t81.5 31q46 0 75 -29v94h20v-140h-20q0 22 -19 37t-46 18v-75
q0 -56 50 -87q24 7 46 18l9 -17q-53 -29 -115 -29q-48 0 -81.5 31t-33.5 74zM58 100q0 -35 28 -60t67 -25q17 0 34 3q-44 37 -44 92v75q-36 -3 -60.5 -27.5t-24.5 -57.5z" />
    <glyph glyph-name="Ccaron" unicode="&#x10c;" horiz-adv-x="340" 
d="M170 514l-65 -11l57 -53h36l57 53l-65 10v-38h-20v39zM77 519l93 15h20l93 -15v-17l-77 -72h-52l-77 72v17zM28 170q0 72 48.5 123.5t116.5 51.5q46 0 75 -29v104h20v-150h-20q0 24 -22.5 39.5t-52.5 15.5q-10 0 -20 -1v-214q0 -29 16 -53.5t43 -38.5q36 6 67 23l9 -17
q-53 -29 -115 -29q-68 0 -116.5 51.5t-48.5 123.5zM48 170q0 -64 42.5 -109.5t102.5 -45.5h7q-47 37 -47 95v209q-46 -14 -75.5 -55.5t-29.5 -93.5z" />
    <glyph glyph-name="ccaron" unicode="&#x10d;" horiz-adv-x="300" 
d="M149 384l-65 -11l57 -53h36l57 53l-65 10v-38h-20v39zM56 389l93 15h20l93 -15v-17l-77 -72h-52l-77 72v17zM38 100q0 43 33.5 74t81.5 31q46 0 75 -29v94h20v-140h-20q0 22 -19 37t-46 18v-75q0 -56 50 -87q24 7 46 18l9 -17q-53 -29 -115 -29q-48 0 -81.5 31t-33.5 74z
M58 100q0 -35 28 -60t67 -25q17 0 34 3q-44 37 -44 92v75q-36 -3 -60.5 -27.5t-24.5 -57.5z" />
    <glyph glyph-name="Dcaron" unicode="&#x10e;" 
d="M183 489l-65 -11l57 -53h36l57 53l-65 10v-38h-20v39zM90 494l93 15h20l93 -15v-17l-77 -72h-52l-77 72v17zM210 0h-200v20h60v300h-60v20h200q69 0 117 -49t48 -121t-48 -121t-117 -49zM194 320h-104v-300h48q26 14 41 38t15 52v210zM173 20h37q60 0 102.5 43t42.5 107
q0 63 -41 105.5t-100 44.5v-210q0 -53 -41 -90z" />
    <glyph glyph-name="dcaron" unicode="&#x10f;" horiz-adv-x="493" 
d="M440 337q31 36 40 88h-32q-21 0 -35.5 14.5t-14.5 35.5q0 19 14.5 32t35.5 13q23 0 39 -17.5t16 -41.5q0 -82 -49 -137zM482 445q1 8 1 16q0 16 -10.5 27.5t-24.5 11.5q-12 0 -21 -7.5t-9 -17.5q0 -12 9 -21t21 -9h34zM258 20h60v510h-60v-510zM238 0v94q-18 -45 -50 -72
t-70 -27q-33 0 -56.5 23.5t-23.5 56.5q0 54 39.5 92t95.5 38q31 0 65 -13v338h-60v20h160v-530h60v-20h-160zM160 26q-32 36 -32 84q0 40 24 73q-40 -7 -67 -37.5t-27 -70.5q0 -24 17.5 -42t42.5 -18q22 0 42 11zM177 38q54 45 60 134q-35 12 -58 13q-31 -32 -31 -75
q0 -41 29 -72z" />
    <glyph glyph-name="Dcroat" unicode="&#x110;" horiz-adv-x="420" 
d="M230 0h-210v20h60v140h-60v20h60v140h-60v20h210q69 0 117 -49t48 -121t-48 -121t-117 -49zM194 320h-94v-300h38q26 14 41 38t15 52v210zM173 20h57q60 0 102.5 43t42.5 107t-42.5 107t-102.5 43h-16v-140h76v-20h-76v-50q0 -53 -41 -90z" />
    <glyph glyph-name="dcroat" unicode="&#x111;" horiz-adv-x="408" 
d="M177 38q54 45 60 134q-35 12 -58 13q-31 -32 -31 -75q0 -41 29 -72zM160 26q-32 36 -32 84q0 40 24 73q-40 -7 -67 -37.5t-27 -70.5q0 -24 17.5 -42t42.5 -18q22 0 42 11zM238 0v94q-18 -45 -50 -72t-70 -27q-33 0 -56.5 23.5t-23.5 56.5q0 54 39.5 92t95.5 38
q31 0 65 -13v88h-105v20h105v230h-60v20h160v-250h46v-20h-46v-260h60v-20h-160zM258 20h60v510h-60v-510z" />
    <glyph glyph-name="Emacron" unicode="&#x112;" horiz-adv-x="365" 
d="M105 500v-40h140v40h-140zM85 520h180v-80h-180v80zM10 320v20h300v60h20v-170h-20v90h-140v-140h60v50h20v-120h-20v50h-60v-140h140v90h20v-170h-20v60h-300v20h60v300h-60zM90 320v-300h60v300h-60z" />
    <glyph glyph-name="emacron" unicode="&#x113;" horiz-adv-x="305" 
d="M83 370v-40h140v40h-140zM63 390h180v-80h-180v80zM58 100q0 -35 28 -60t67 -25q15 0 30 2q-45 37 -45 93v73q-35 -6 -57.5 -29t-22.5 -54zM38 100q0 43 35 74t85 31q43 0 74 -22t31 -53q0 -27 -26.5 -46.5t-64.5 -22.5q14 -24 38 -39q31 8 58 25l10 -17
q-57 -35 -125 -35q-48 0 -81.5 31t-33.5 74zM163 80q34 1 57 15.5t23 34.5q0 23 -25 39t-60 16v-75q0 -15 5 -30z" />
    <glyph glyph-name="Ebreve" unicode="&#x114;" horiz-adv-x="365" 
d="M175 514q62 0 113 23l15 -16q-55 -94 -128 -94t-128 94l15 16q51 -23 113 -23zM174.5 494q-51.5 0 -95.5 15q44 -62 96.5 -62t95.5 62q-45 -15 -96.5 -15zM10 320v20h300v60h20v-170h-20v90h-140v-140h60v50h20v-120h-20v50h-60v-140h140v90h20v-170h-20v60h-300v20h60
v300h-60zM90 320v-300h60v300h-60z" />
    <glyph glyph-name="ebreve" unicode="&#x115;" horiz-adv-x="305" 
d="M153 384q62 0 113 23l15 -16q-55 -94 -128 -94t-128 94l15 16q51 -23 113 -23zM152.5 364q-51.5 0 -95.5 15q44 -62 96.5 -62t95.5 62q-45 -15 -96.5 -15zM58 100q0 -35 28 -60t67 -25q15 0 30 2q-45 37 -45 93v73q-35 -6 -57.5 -29t-22.5 -54zM38 100q0 43 35 74t85 31
q43 0 74 -22t31 -53q0 -27 -26.5 -46.5t-64.5 -22.5q14 -24 38 -39q31 8 58 25l10 -17q-57 -35 -125 -35q-48 0 -81.5 31t-33.5 74zM163 80q34 1 57 15.5t23 34.5q0 23 -25 39t-60 16v-75q0 -15 5 -30z" />
    <glyph glyph-name="Edotaccent" unicode="&#x116;" horiz-adv-x="365" 
d="M145 480q0 -12 9 -21t21 -9t21 9t9 21t-9 21t-21 9t-21 -9t-9 -21zM125 480q0 21 14.5 35.5t35.5 14.5t35.5 -14.5t14.5 -35.5t-14.5 -35.5t-35.5 -14.5t-35.5 14.5t-14.5 35.5zM10 320v20h300v60h20v-170h-20v90h-140v-140h60v50h20v-120h-20v50h-60v-140h140v90h20
v-170h-20v60h-300v20h60v300h-60zM90 320v-300h60v300h-60z" />
    <glyph glyph-name="edotaccent" unicode="&#x117;" horiz-adv-x="305" 
d="M123 350q0 -12 9 -21t21 -9t21 9t9 21t-9 21t-21 9t-21 -9t-9 -21zM103 350q0 21 14.5 35.5t35.5 14.5t35.5 -14.5t14.5 -35.5t-14.5 -35.5t-35.5 -14.5t-35.5 14.5t-14.5 35.5zM58 100q0 -35 28 -60t67 -25q15 0 30 2q-45 37 -45 93v73q-35 -6 -57.5 -29t-22.5 -54z
M38 100q0 43 35 74t85 31q43 0 74 -22t31 -53q0 -27 -26.5 -46.5t-64.5 -22.5q14 -24 38 -39q31 8 58 25l10 -17q-57 -35 -125 -35q-48 0 -81.5 31t-33.5 74zM163 80q34 1 57 15.5t23 34.5q0 23 -25 39t-60 16v-75q0 -15 5 -30z" />
    <glyph glyph-name="Eogonek" unicode="&#x118;" horiz-adv-x="370" 
d="M228 -88q-9 -23 -9 -48t15.5 -43t38.5 -18q16 0 26.5 12.5t10.5 29.5q-28 0 -50.5 19t-31.5 48zM90 320v-300h60v300h-60zM10 320v20h300v60h20v-170h-20v90h-140v-140h60v50h20v-120h-20v50h-60v-140h140v90h20v-110h-17q-45 -24 -70 -60q1 -31 20.5 -53t46.5 -22h20
v-20q0 -26 -16.5 -44t-40.5 -18q-31 0 -52.5 23.5t-21.5 57.5q0 81 76 136h-265v20h60v300h-60z" />
    <glyph glyph-name="eogonek" unicode="&#x119;" horiz-adv-x="300" 
d="M55 100q0 -35 28 -60t67 -25q15 0 30 2q-45 37 -45 93v73q-35 -6 -57.5 -29t-22.5 -54zM160 80q34 1 57 15.5t23 34.5q0 23 -25 39t-60 16v-75q0 -15 5 -30zM35 100q0 43 35 74t85 31q43 0 74 -22t31 -53q0 -27 -26.5 -46.5t-64.5 -22.5q14 -24 38 -39q31 8 58 25l10 -17
q-19 -12 -40 -20q-53 -24 -80 -67q0 -32 20.5 -55t48.5 -23h20v-20q0 -26 -17 -44t-40 -18q-31 0 -53 23.5t-22 57.5q1 79 66 133q-14 -2 -28 -2q-48 0 -81.5 31t-33.5 74zM140 -88q-8 -23 -8 -48t16 -43t38 -18q16 0 27 12.5t11 29.5q-28 0 -51.5 19t-32.5 48z" />
    <glyph glyph-name="Ecaron" unicode="&#x11a;" horiz-adv-x="365" 
d="M165 514l-65 -11l57 -53h36l57 53l-65 10v-38h-20v39zM72 519l93 15h20l93 -15v-17l-77 -72h-52l-77 72v17zM10 320v20h300v60h20v-170h-20v90h-140v-140h60v50h20v-120h-20v50h-60v-140h140v90h20v-170h-20v60h-300v20h60v300h-60zM90 320v-300h60v300h-60z" />
    <glyph glyph-name="ecaron" unicode="&#x11b;" horiz-adv-x="305" 
d="M143 384l-65 -11l57 -53h36l57 53l-65 10v-38h-20v39zM50 389l93 15h20l93 -15v-17l-77 -72h-52l-77 72v17zM58 100q0 -35 28 -60t67 -25q15 0 30 2q-45 37 -45 93v73q-35 -6 -57.5 -29t-22.5 -54zM38 100q0 43 35 74t85 31q43 0 74 -22t31 -53q0 -27 -26.5 -46.5
t-64.5 -22.5q14 -24 38 -39q31 8 58 25l10 -17q-57 -35 -125 -35q-48 0 -81.5 31t-33.5 74zM163 80q34 1 57 15.5t23 34.5q0 23 -25 39t-60 16v-75q0 -15 5 -30z" />
    <glyph glyph-name="Gcircumflex" unicode="&#x11c;" horiz-adv-x="370" 
d="M195 446l65 11l-57 53h-36l-57 -53l65 -10v38h20v-39zM288 441l-93 -15h-20l-93 15v17l77 72h52l77 -72v-17zM250 170h110v-20h-40v-190h-20v40h-112q-66 0 -113 50t-47 120q0 72 50.5 123.5t119.5 51.5q53 0 85 -33v108h20v-155h-20q0 18 -14.5 33t-37.5 22
q-26 -14 -42 -38t-16 -53v-208q7 -1 15 -1h112v130h-50v20zM153 25v204q0 58 49 96h-4q-61 0 -105.5 -45.5t-44.5 -109.5q0 -52 29.5 -92t75.5 -53z" />
    <glyph glyph-name="gcircumflex" unicode="&#x11d;" horiz-adv-x="345" 
d="M160 316l65 11l-57 53h-36l-57 -53l65 -10v38h20v-39zM253 311l-93 -15h-20l-93 15v17l77 72h52l77 -72v-17zM50 120q0 35 29.5 60t70.5 25q39 0 68 -23q5 46 30 77t57 31q21 0 35.5 -13t14.5 -32t-13 -32t-32 -13t-32 13t-13 32v5q-28 -31 -30 -85q15 -20 15 -45
q0 -31 -22.5 -54t-57.5 -29v-46q62 -19 101 -72t39 -119q0 -62 -44 -106t-106 -44q-60 0 -102.5 39.5t-42.5 95.5h20q0 -47 36.5 -81t88.5 -34q26 0 50 10v207q0 53 -40 82v-29q0 -25 -17.5 -42.5t-42.5 -17.5t-42.5 17.5t-17.5 42.5t17.5 42.5t42.5 17.5q20 0 40 -4v39
q-41 0 -70.5 25t-29.5 60zM150 -24q-20 4 -40 4q-17 0 -28.5 -11.5t-11.5 -28.5t11.5 -28.5t28.5 -11.5t28.5 11.5t11.5 28.5v36zM150 55v130q-33 0 -56.5 -19t-23.5 -46t23.5 -46t56.5 -19zM170 57q26 5 43 23t17 40t-17 39.5t-43 23.5v-126zM285 265v-20q0 -10 7.5 -17.5
t17.5 -7.5t17.5 7.5t7.5 17.5t-9 17.5t-21 7.5q-10 0 -20 -5zM230 -310q28 18 44 47t16 63q0 45 -21 84t-57 64q18 -28 18 -61v-197z" />
    <glyph glyph-name="Gbreve" unicode="&#x11e;" horiz-adv-x="370" 
d="M185 514q62 0 113 23l15 -16q-55 -94 -128 -94t-128 94l15 16q51 -23 113 -23zM184.5 494q-51.5 0 -95.5 15q44 -62 96.5 -62t95.5 62q-45 -15 -96.5 -15zM250 170h110v-20h-40v-190h-20v40h-112q-66 0 -113 50t-47 120q0 72 50.5 123.5t119.5 51.5q53 0 85 -33v108h20
v-155h-20q0 18 -14.5 33t-37.5 22q-26 -14 -42 -38t-16 -53v-208q7 -1 15 -1h112v130h-50v20zM153 25v204q0 58 49 96h-4q-61 0 -105.5 -45.5t-44.5 -109.5q0 -52 29.5 -92t75.5 -53z" />
    <glyph glyph-name="gbreve" unicode="&#x11f;" horiz-adv-x="345" 
d="M150 384q62 0 113 23l15 -16q-55 -94 -128 -94t-128 94l15 16q51 -23 113 -23zM149.5 364q-51.5 0 -95.5 15q44 -62 96.5 -62t95.5 62q-45 -15 -96.5 -15zM50 120q0 35 29.5 60t70.5 25q39 0 68 -23q5 46 30 77t57 31q21 0 35.5 -13t14.5 -32t-13 -32t-32 -13t-32 13
t-13 32v5q-28 -31 -30 -85q15 -20 15 -45q0 -31 -22.5 -54t-57.5 -29v-46q62 -19 101 -72t39 -119q0 -62 -44 -106t-106 -44q-60 0 -102.5 39.5t-42.5 95.5h20q0 -47 36.5 -81t88.5 -34q26 0 50 10v207q0 53 -40 82v-29q0 -25 -17.5 -42.5t-42.5 -17.5t-42.5 17.5
t-17.5 42.5t17.5 42.5t42.5 17.5q20 0 40 -4v39q-41 0 -70.5 25t-29.5 60zM150 -24q-20 4 -40 4q-17 0 -28.5 -11.5t-11.5 -28.5t11.5 -28.5t28.5 -11.5t28.5 11.5t11.5 28.5v36zM150 55v130q-33 0 -56.5 -19t-23.5 -46t23.5 -46t56.5 -19zM170 57q26 5 43 23t17 40
t-17 39.5t-43 23.5v-126zM285 265v-20q0 -10 7.5 -17.5t17.5 -7.5t17.5 7.5t7.5 17.5t-9 17.5t-21 7.5q-10 0 -20 -5zM230 -310q28 18 44 47t16 63q0 45 -21 84t-57 64q18 -28 18 -61v-197z" />
    <glyph glyph-name="Gdotaccent" unicode="&#x120;" horiz-adv-x="370" 
d="M155 480q0 -12 9 -21t21 -9t21 9t9 21t-9 21t-21 9t-21 -9t-9 -21zM135 480q0 21 14.5 35.5t35.5 14.5t35.5 -14.5t14.5 -35.5t-14.5 -35.5t-35.5 -14.5t-35.5 14.5t-14.5 35.5zM250 170h110v-20h-40v-190h-20v40h-112q-66 0 -113 50t-47 120q0 72 50.5 123.5t119.5 51.5
q53 0 85 -33v108h20v-155h-20q0 18 -14.5 33t-37.5 22q-26 -14 -42 -38t-16 -53v-208q7 -1 15 -1h112v130h-50v20zM153 25v204q0 58 49 96h-4q-61 0 -105.5 -45.5t-44.5 -109.5q0 -52 29.5 -92t75.5 -53z" />
    <glyph glyph-name="gdotaccent" unicode="&#x121;" horiz-adv-x="345" 
d="M120 350q0 -12 9 -21t21 -9t21 9t9 21t-9 21t-21 9t-21 -9t-9 -21zM100 350q0 21 14.5 35.5t35.5 14.5t35.5 -14.5t14.5 -35.5t-14.5 -35.5t-35.5 -14.5t-35.5 14.5t-14.5 35.5zM50 120q0 35 29.5 60t70.5 25q39 0 68 -23q5 46 30 77t57 31q21 0 35.5 -13t14.5 -32
t-13 -32t-32 -13t-32 13t-13 32v5q-28 -31 -30 -85q15 -20 15 -45q0 -31 -22.5 -54t-57.5 -29v-46q62 -19 101 -72t39 -119q0 -62 -44 -106t-106 -44q-60 0 -102.5 39.5t-42.5 95.5h20q0 -47 36.5 -81t88.5 -34q26 0 50 10v207q0 53 -40 82v-29q0 -25 -17.5 -42.5
t-42.5 -17.5t-42.5 17.5t-17.5 42.5t17.5 42.5t42.5 17.5q20 0 40 -4v39q-41 0 -70.5 25t-29.5 60zM150 -24q-20 4 -40 4q-17 0 -28.5 -11.5t-11.5 -28.5t11.5 -28.5t28.5 -11.5t28.5 11.5t11.5 28.5v36zM150 55v130q-33 0 -56.5 -19t-23.5 -46t23.5 -46t56.5 -19zM170 57
q26 5 43 23t17 40t-17 39.5t-43 23.5v-126zM285 265v-20q0 -10 7.5 -17.5t17.5 -7.5t17.5 7.5t7.5 17.5t-9 17.5t-21 7.5q-10 0 -20 -5zM230 -310q28 18 44 47t16 63q0 45 -21 84t-57 64q18 -28 18 -61v-197z" />
    <glyph glyph-name="Gcommaaccent" unicode="&#x122;" horiz-adv-x="370" 
d="M228 -174h-33q-21 0 -35.5 14.5t-14.5 35.5t14.5 35.5t35.5 14.5q25 0 42.5 -19t17.5 -45q0 -16 -4 -31q-9 -35 -34 -58t-58 -23v20q24 0 42 15t27 41zM234 -154q1 6 1 16q0 19 -12 31.5t-28 12.5q-12 0 -21 -8.5t-9 -21t9 -21.5t21 -9h39zM250 170h110v-20h-40v-190h-20
v40h-112q-66 0 -113 50t-47 120q0 72 50.5 123.5t119.5 51.5q53 0 85 -33v108h20v-155h-20q0 18 -14.5 33t-37.5 22q-26 -14 -42 -38t-16 -53v-208q7 -1 15 -1h112v130h-50v20zM153 25v204q0 58 49 96h-4q-61 0 -105.5 -45.5t-44.5 -109.5q0 -52 29.5 -92t75.5 -53z" />
    <glyph glyph-name="gcommaaccent" unicode="&#x123;" horiz-adv-x="345" 
d="M127 380h33q21 0 35.5 -14.5t14.5 -35.5t-14.5 -35.5t-35.5 -14.5q-25 0 -42.5 19t-17.5 45q0 16 4 31q9 35 34 58t58 23v-20q-24 0 -42 -15t-27 -41zM121 360q-1 -6 -1 -16q0 -19 12 -31.5t28 -12.5q12 0 21 9t9 21t-9 21t-21 9h-39zM50 120q0 35 29.5 60t70.5 25
q39 0 68 -23q5 46 30 77t57 31q21 0 35.5 -13t14.5 -32t-13 -32t-32 -13t-32 13t-13 32v5q-28 -31 -30 -85q15 -20 15 -45q0 -31 -22.5 -54t-57.5 -29v-46q62 -19 101 -72t39 -119q0 -62 -44 -106t-106 -44q-60 0 -102.5 39.5t-42.5 95.5h20q0 -47 36.5 -81t88.5 -34
q26 0 50 10v207q0 53 -40 82v-29q0 -25 -17.5 -42.5t-42.5 -17.5t-42.5 17.5t-17.5 42.5t17.5 42.5t42.5 17.5q20 0 40 -4v39q-41 0 -70.5 25t-29.5 60zM150 -24q-20 4 -40 4q-17 0 -28.5 -11.5t-11.5 -28.5t11.5 -28.5t28.5 -11.5t28.5 11.5t11.5 28.5v36zM150 55v130
q-33 0 -56.5 -19t-23.5 -46t23.5 -46t56.5 -19zM170 57q26 5 43 23t17 40t-17 39.5t-43 23.5v-126zM285 265v-20q0 -10 7.5 -17.5t17.5 -7.5t17.5 7.5t7.5 17.5t-9 17.5t-21 7.5q-10 0 -20 -5zM230 -310q28 18 44 47t16 63q0 45 -21 84t-57 64q18 -28 18 -61v-197z" />
    <glyph glyph-name="Hcircumflex" unicode="&#x124;" horiz-adv-x="440" 
d="M230 425l65 11l-57 53h-36l-57 -53l65 -10v38h20v-39zM323 420l-93 -15h-20l-93 15v17l77 72h52l77 -72v-17zM90 20h60v300h-60v-300zM350 320h-60v-300h60v300zM10 0v20h60v300h-60v20h160v-180h100v180h160v-20h-60v-300h60v-20h-160v140h-100v-140h-160z" />
    <glyph glyph-name="hcircumflex" unicode="&#x125;" horiz-adv-x="412" 
d="M90 20h60v430h-60v-430zM10 0v20h60v430h-50v20h150v-353q17 40 46 64t64 24q31 0 53 -22t22 -53v-70q0 -24 7 -43q11 -2 23 -2v-20q-29 0 -49.5 7t-34.5 23t-20.5 27.5t-15.5 33.5q-1 3 -5.5 13.5l-6 14t-5.5 11t-6.5 11t-6 9t-8 8.5t-8.5 6q-49 -46 -49 -129v-10h40
v-20h-200zM235 172q6 -4 12 -10.5t9.5 -11.5t8 -14l6.5 -13t6.5 -15t5.5 -14q10 -22 14.5 -31t16 -22t26.5 -19q-5 20 -5 38v70q0 23 -16 39t-39 16q-24 0 -45 -13zM260 516l65 11l-57 53h-36l-57 -53l65 -10v38h20v-39zM353 511l-93 -15h-20l-93 15v17l77 72h52l77 -72v-17
z" />
    <glyph glyph-name="Hbar" unicode="&#x126;" horiz-adv-x="440" 
d="M10 0v20h60v220h-45v20h45v60h-60v20h160v-80h100v80h160v-20h-60v-60h45v-20h-45v-220h60v-20h-160v140h-100v-140h-160zM350 320h-60v-300h60v300zM90 20h60v300h-60v-300zM270 240h-100v-80h100v80z" />
    <glyph glyph-name="hbar" unicode="&#x127;" horiz-adv-x="412" 
d="M235 172q6 -4 12 -10.5t9.5 -11.5t8 -14l6.5 -13t6.5 -15t5.5 -14q10 -22 14.5 -31t16 -22t26.5 -19q-5 20 -5 38v70q0 23 -16 39t-39 16q-24 0 -45 -13zM10 0v20h60v260h-45v20h45v230h-50v20h150v-250h106v-20h-106v-163q17 40 46 64t64 24q31 0 53 -22t22 -53v-70
q0 -24 7 -43q11 -2 23 -2v-20q-29 0 -49.5 7t-34.5 23t-20.5 27.5t-15.5 33.5q-1 3 -5.5 13.5l-6 14t-5.5 11t-6.5 11t-6 9t-8 8.5t-8.5 6q-49 -46 -49 -129v-10h40v-20h-200zM90 20h60v510h-60v-510z" />
    <glyph glyph-name="Itilde" unicode="&#x128;" horiz-adv-x="240" 
d="M229 487q0 -26 -16 -45t-37 -19q-19 0 -56 15q-35 14 -52 15q-16 0 -36 -16l-12 -10l-4 15q-4 15 -4 26q0 26 16 45t37 19q19 0 56 -15q35 -14 52 -15q16 0 36 16l12 10l4 -15q4 -15 4 -26zM209 486q0 4 -1 7q-18 -11 -35 -11q-22 0 -60 16q-33 14 -48 14
q-13 0 -22.5 -12.5t-10.5 -30.5q0 -5 1 -7q18 11 35 11q22 0 60 -16q33 -14 48 -14q14 0 23.5 12.5t9.5 30.5zM10 340h220v-20h-60v-300h60v-20h-220v20h60v300h-60v20zM150 20v300h-60v-300h60z" />
    <glyph glyph-name="itilde" unicode="&#x129;" horiz-adv-x="235" 
d="M229 357q0 -26 -16 -45t-37 -19q-19 0 -56 15q-35 14 -52 15q-16 0 -36 -16l-12 -10l-4 15q-4 15 -4 26q0 26 16 45t37 19q19 0 56 -15q35 -14 52 -15q16 0 36 16l12 10l4 -15q4 -15 4 -26zM209 356q0 4 -1 7q-18 -11 -35 -11q-22 0 -60 16q-33 14 -48 14
q-13 0 -22.5 -12.5t-10.5 -30.5q0 -5 1 -7q18 11 35 11q22 0 60 -16q33 -14 48 -14q14 0 23.5 12.5t9.5 30.5zM90 20h60v160h-60v-160zM10 0v20h60v160h-50v20h150v-180h60v-20h-220z" />
    <glyph glyph-name="Imacron" unicode="&#x12a;" horiz-adv-x="240" 
d="M50 500v-40h140v40h-140zM30 520h180v-80h-180v80zM10 340h220v-20h-60v-300h60v-20h-220v20h60v300h-60v20zM150 20v300h-60v-300h60z" />
    <glyph glyph-name="imacron" unicode="&#x12b;" horiz-adv-x="235" 
d="M50 370v-40h140v40h-140zM30 390h180v-80h-180v80zM90 20h60v160h-60v-160zM10 0v20h60v160h-50v20h150v-180h60v-20h-220z" />
    <glyph glyph-name="Ibreve" unicode="&#x12c;" horiz-adv-x="240" 
d="M120 514q62 0 113 23l15 -16q-55 -94 -128 -94t-128 94l15 16q51 -23 113 -23zM119.5 494q-51.5 0 -95.5 15q44 -62 96.5 -62t95.5 62q-45 -15 -96.5 -15zM10 340h220v-20h-60v-300h60v-20h-220v20h60v300h-60v20zM150 20v300h-60v-300h60z" />
    <glyph glyph-name="ibreve" unicode="&#x12d;" horiz-adv-x="235" 
d="M120 384q62 0 113 23l15 -16q-55 -94 -128 -94t-128 94l15 16q51 -23 113 -23zM119.5 364q-51.5 0 -95.5 15q44 -62 96.5 -62t95.5 62q-45 -15 -96.5 -15zM90 20h60v160h-60v-160zM10 0v20h60v160h-50v20h150v-180h60v-20h-220z" />
    <glyph glyph-name="Iogonek" unicode="&#x12e;" horiz-adv-x="240" 
d="M76 -88q-9 -23 -9 -48t16 -43t38 -18q16 0 27 12.5t11 29.5q-28 0 -51 19t-32 48zM150 20v300h-60v-300h60zM10 340h220v-20h-60v-300h60v-20h-68q-45 -24 -70 -60q1 -31 20.5 -53t46.5 -22h20v-20q0 -26 -17 -44t-40 -18q-31 0 -53 23.5t-22 57.5q0 81 77 136h-114v20
h60v300h-60v20z" />
    <glyph glyph-name="iogonek" unicode="&#x12f;" horiz-adv-x="235" 
d="M75 -88q-9 -23 -9 -48t16 -43t38 -18q16 0 27 12.5t11 29.5q-28 0 -51 19t-32 48zM10 0v20h60v160h-50v20h150v-180h60v-20h-69q-45 -24 -70 -60q1 -31 20.5 -53t46.5 -22h20v-20q0 -26 -17 -44t-40 -18q-31 0 -53 23.5t-22 57.5q0 81 77 136h-113zM90 20h60v160h-60
v-160zM70 350q0 21 14.5 35.5t35.5 14.5t35.5 -14.5t14.5 -35.5t-14.5 -35.5t-35.5 -14.5t-35.5 14.5t-14.5 35.5zM90 350q0 -12 9 -21t21 -9t21 9t9 21t-9 21t-21 9t-21 -9t-9 -21z" />
    <glyph glyph-name="Idotaccent" unicode="&#x130;" horiz-adv-x="240" 
d="M90 480q0 -12 9 -21t21 -9t21 9t9 21t-9 21t-21 9t-21 -9t-9 -21zM70 480q0 21 14.5 35.5t35.5 14.5t35.5 -14.5t14.5 -35.5t-14.5 -35.5t-35.5 -14.5t-35.5 14.5t-14.5 35.5zM10 340h220v-20h-60v-300h60v-20h-220v20h60v300h-60v20zM150 20v300h-60v-300h60z" />
    <glyph glyph-name="dotlessi" unicode="&#x131;" horiz-adv-x="235" 
d="M90 20h60v160h-60v-160zM10 0v20h60v160h-50v20h150v-180h60v-20h-220z" />
    <glyph glyph-name="IJ" unicode="&#x132;" horiz-adv-x="565" 
d="M435 320v-299q27 9 43.5 30.5t16.5 48.5v220h-60zM290 320v-110h-20v190h20v-60h265v-20h-40v-220q0 -43 -33.5 -74t-81.5 -31q-62 0 -115 29l9 17q49 -26 106 -26q8 0 15 1v304h-125zM10 340h220v-20h-60v-300h60v-20h-220v20h60v300h-60v20zM150 20v300h-60v-300h60z
" />
    <glyph glyph-name="ij" unicode="&#x133;" horiz-adv-x="460" 
d="M300 350q0 21 14.5 35.5t35.5 14.5t35.5 -14.5t14.5 -35.5t-14.5 -35.5t-35.5 -14.5t-35.5 14.5t-14.5 35.5zM320 350q0 -12 9 -21t21 -9t21 9t9 21t-9 21t-21 9t-21 -9t-9 -21zM320 -299q60 44 60 114v365h-60v-479zM300 -311v491h-50v20h150v-385q0 -68 -52 -116.5
t-125 -48.5q-72 0 -123.5 39.5t-51.5 95.5q0 31 22 53t53 22h20q0 -76 35.5 -130t85.5 -55q19 5 36 14zM68 -215q0 -45 41.5 -78t101.5 -37q-36 21 -59.5 67t-27.5 103h-1q-23 0 -39 -16t-16 -39zM90 350q0 -12 9 -21t21 -9t21 9t9 21t-9 21t-21 9t-21 -9t-9 -21zM70 350
q0 21 14.5 35.5t35.5 14.5t35.5 -14.5t14.5 -35.5t-14.5 -35.5t-35.5 -14.5t-35.5 14.5t-14.5 35.5zM90 20h60v160h-60v-160zM10 0v20h60v160h-50v20h150v-180h60v-20h-220z" />
    <glyph glyph-name="Jcircumflex" unicode="&#x134;" horiz-adv-x="325" 
d="M180 446l65 11l-57 53h-36l-57 -53l65 -10v38h20v-39zM273 441l-93 -15h-20l-93 15v17l77 72h52l77 -72v-17zM195 320v-299q27 9 43.5 30.5t16.5 48.5v220h-60zM50 320v-110h-20v190h20v-60h265v-20h-40v-220q0 -43 -33.5 -74t-81.5 -31q-62 0 -115 29l9 17
q49 -26 106 -26q8 0 15 1v304h-125z" />
    <glyph glyph-name="jcircumflex" unicode="&#x135;" horiz-adv-x="225" 
d="M125 316l65 11l-57 53h-36l-57 -53l65 -10v38h20v-39zM218 311l-93 -15h-20l-93 15v17l77 72h52l77 -72v-17zM65 180h-50v20h150v-445q0 -43 -33.5 -74t-81.5 -31q-62 0 -115 29l9 17q49 -26 106 -26q8 0 15 1v509zM85 180v-504q27 9 43.5 30.5t16.5 48.5v425h-60z" />
    <glyph glyph-name="Kcommaaccent" unicode="&#x136;" horiz-adv-x="450" 
d="M263 -174h-33q-21 0 -35.5 14.5t-14.5 35.5t14.5 35.5t35.5 14.5q25 0 42.5 -19t17.5 -45q0 -16 -4 -31q-9 -35 -34 -58t-58 -23v20q24 0 42 15t27 41zM269 -154q1 6 1 16q0 19 -12 31.5t-28 12.5q-12 0 -21 -8.5t-9 -21t9 -21.5t21 -9h39zM90 20h60v300h-60v-300z
M427 20v-20h-7h-71q-37 0 -67 18t-46 51l-19 36t-19.5 27.5t-27.5 24.5v-157h-160v20h60v300h-50v20h150v-159q17 3 37 23l116 116h-56v20h100q24 0 42 -17l14 -15l-14 -14l-15 15q-11 11 -27 11t-27 -11l-95 -95q27 -11 47 -34.5t38 -58.5q25 -48 48 -74.5t49 -26.5z
M229 198l-8 -8q-16 -16 -30 -23q6 -4 11.5 -9t9.5 -9.5t9 -12l7.5 -11t7 -12.5t6 -11.5t6.5 -12.5t6 -11q14 -27 39 -42.5t56 -15.5h27q-28 23 -64 91q-19 36 -38 58t-45 29z" />
    <glyph glyph-name="kcommaaccent" unicode="&#x137;" horiz-adv-x="432" 
d="M253 -174h-33q-21 0 -35.5 14.5t-14.5 35.5t14.5 35.5t35.5 14.5q25 0 42.5 -19t17.5 -45q0 -16 -4 -31q-9 -35 -34 -58t-58 -23v20q24 0 42 15t27 41zM259 -154q1 6 1 16q0 19 -12 31.5t-28 12.5q-12 0 -21 -8.5t-9 -21t9 -21.5t21 -9h39zM339 20q-25 18 -40 48
q-11 22 -21.5 39t-27.5 26l-29 -29l-5 -5q3 -8 16 -32q25 -47 77 -47h30zM10 0v20h60v510h-50v20h150v-455q17 3 37 23l64 64l3 3h-46v20h100q32 0 56 -23l14 -15l-14 -14l-15 15q-17 17 -41 17q-26 0 -43 -17l-21 -21q14 -6 27.5 -25.5t25.5 -44.5q29 -55 83 -57v-20h-91
q-65 0 -95 58q-12 23 -15 28q-14 -9 -29 -11v-75h-160zM90 20h60v510h-60v-510z" />
    <glyph glyph-name="kgreenlandic" unicode="&#x138;" horiz-adv-x="432" 
d="M339 20q-25 18 -40 48q-11 22 -21.5 39t-27.5 26l-29 -29l-5 -5q3 -8 16 -32q25 -47 77 -47h30zM10 0v20h60v160h-50v20h150v-105q17 3 37 23l64 64l3 3h-46v20h100q35 0 56 -23l14 -15l-14 -14l-15 15q-17 17 -41 17q-26 0 -43 -17l-21 -21q15 -7 28.5 -26.5t24.5 -43.5
q29 -55 83 -57v-20h-91q-65 0 -95 58q-12 23 -15 28q-14 -9 -29 -11v-75h-160zM90 20h60v160h-60v-160z" />
    <glyph glyph-name="Lacute" unicode="&#x139;" horiz-adv-x="360" 
d="M152 405l25 100h120l-110 -100h-35zM171 414h1l78 73h-59zM10 340h220v-20h-55v-300h135v110h20v-190h-20v60h-300v20h60v300h-60v20zM155 20v300h-65v-300h65z" />
    <glyph glyph-name="lacute" unicode="&#x13a;" horiz-adv-x="240" 
d="M90 20h60v420h-60v-420zM10 0v20h60v420h-50v20h150v-440h60v-20h-220zM85 500l25 100h120l-110 -100h-35zM104 509h1l78 73h-59z" />
    <glyph glyph-name="Lcommaaccent" unicode="&#x13b;" horiz-adv-x="360" 
d="M213 -174h-33q-21 0 -35.5 14.5t-14.5 35.5t14.5 35.5t35.5 14.5q25 0 42.5 -19t17.5 -45q0 -16 -4 -31q-9 -35 -34 -58t-58 -23v20q24 0 42 15t27 41zM219 -154q1 6 1 16q0 19 -12 31.5t-28 12.5q-12 0 -21 -8.5t-9 -21t9 -21.5t21 -9h39zM10 340h220v-20h-55v-300h135
v110h20v-190h-20v60h-300v20h60v300h-60v20zM155 20v300h-65v-300h65z" />
    <glyph glyph-name="lcommaaccent" unicode="&#x13c;" horiz-adv-x="240" 
d="M153 -174h-33q-21 0 -35.5 14.5t-14.5 35.5t14.5 35.5t35.5 14.5q25 0 42.5 -19t17.5 -45q0 -16 -4 -31q-9 -35 -34 -58t-58 -23v20q24 0 42 15t27 41zM159 -154q1 6 1 16q0 19 -12 31.5t-28 12.5q-12 0 -21 -8.5t-9 -21t9 -21.5t21 -9h39zM90 20h60v510h-60v-510zM10 0
v20h60v510h-50v20h150v-530h60v-20h-220z" />
    <glyph glyph-name="Lcaron" unicode="&#x13d;" horiz-adv-x="405" 
d="M332 247q31 36 40 88h-32q-21 0 -35.5 14.5t-14.5 35.5q0 19 14.5 32t35.5 13q23 0 39 -17.5t16 -41.5q0 -82 -49 -137zM374 355q1 8 1 16q0 16 -10.5 27.5t-24.5 11.5q-12 0 -21 -7.5t-9 -17.5q0 -12 9 -21t21 -9h34zM10 340h210v-20h-45v-300h140v110h20v-190h-20v60
h-305v20h60v300h-60v20zM155 20v300h-65v-300h65z" />
    <glyph glyph-name="lcaron" unicode="&#x13e;" horiz-adv-x="325" 
d="M90 20h60v510h-60v-510zM10 0v20h60v510h-50v20h150v-530h60v-20h-220zM272 337q31 36 40 88h-32q-21 0 -35.5 14.5t-14.5 35.5q0 19 14.5 32t35.5 13q23 0 39 -17.5t16 -41.5q0 -82 -49 -137zM314 445q1 8 1 16q0 16 -10.5 27.5t-24.5 11.5q-12 0 -21 -7.5t-9 -17.5
q0 -12 9 -21t21 -9h34z" />
    <glyph glyph-name="Ldot" unicode="&#x13f;" horiz-adv-x="390" 
d="M10 340h220v-20h-55v-300h165v110h20v-190h-20v60h-330v20h60v300h-60v20zM155 20v300h-65v-300h65zM235 162.5q0 -12.5 9 -21.5t21 -9t21 9t9 21.5t-9 21t-21 8.5t-21 -8.5t-9 -21zM215 162.5q0 20.5 14.5 35t35.5 14.5t35.5 -14.5t14.5 -35t-14.5 -35.5t-35.5 -15
t-35.5 15t-14.5 35.5z" />
    <glyph glyph-name="ldot" unicode="&#x140;" horiz-adv-x="350" 
d="M250 160q0 -12 9 -21t21 -9t21 9t9 21t-9 21t-21 9t-21 -9t-9 -21zM230 160q0 21 14.5 35.5t35.5 14.5t35.5 -14.5t14.5 -35.5t-14.5 -35.5t-35.5 -14.5t-35.5 14.5t-14.5 35.5zM90 20h60v510h-60v-510zM10 0v20h60v510h-50v20h150v-530h60v-20h-220z" />
    <glyph glyph-name="Lslash" unicode="&#x141;" horiz-adv-x="380" 
d="M284 259l12 -16l-106 -74v-149h140v110h20v-190h-20v60h-300v20h60v107l-60 -42l-12 16l72 50v169h-60v20h220v-20h-60v-127zM170 20v300h-60v-300h60z" />
    <glyph glyph-name="lslash" unicode="&#x142;" horiz-adv-x="270" 
d="M110 20h60v510h-60v-510zM30 0v20h60v114l-56 -56l-14 14l70 70v368h-50v20h150v-321l56 56l14 -14l-70 -70v-181h60v-20h-220z" />
    <glyph glyph-name="Nacute" unicode="&#x143;" horiz-adv-x="410" 
d="M165 430l25 100h120l-110 -100h-35zM184 439h1l78 73h-59zM90 20h45v-20h-125v20h60v299q-5 1 -10 1h-40v20h40q25 0 48 -9t46 -29.5t38.5 -36.5t40.5 -46l97 -114v215h-60v20h135v-20h-55v-320h-62l-95 112l-33.5 39t-31.5 31t-38 29v-191zM90 233q32 -18 58.5 -43.5
t59.5 -64.5l89 -105h33v54l-112 132q-40 47 -69 73.5t-59 35.5v-82z" />
    <glyph glyph-name="nacute" unicode="&#x144;" horiz-adv-x="412" 
d="M155 300l25 100h120l-110 -100h-35zM174 309h1l78 73h-59zM90 20h60v160h-60v-160zM385 15v-20q-29 0 -49.5 7t-34.5 23t-20.5 27.5t-15.5 33.5q-1 3 -5.5 13.5l-6 14t-5.5 11t-6.5 11t-6 9t-8 8.5t-8.5 6q-49 -46 -49 -129v-30h-160v20h60v160h-50v20h150v-83
q17 40 46 64t64 24q31 0 53 -22t22 -53v-70q0 -24 7 -43q10 -2 23 -2zM235 172q6 -4 12 -10.5t9.5 -11.5t8 -14l6.5 -13t6.5 -15t5.5 -14q10 -22 14.5 -31t16 -22t26.5 -19q-5 20 -5 38v70q0 23 -16 39t-39 16q-24 0 -45 -13z" />
    <glyph glyph-name="Ncommaaccent" unicode="&#x145;" horiz-adv-x="410" 
d="M253 -174h-33q-21 0 -35.5 14.5t-14.5 35.5t14.5 35.5t35.5 14.5q25 0 42.5 -19t17.5 -45q0 -16 -4 -31q-9 -35 -34 -58t-58 -23v20q24 0 42 15t27 41zM259 -154q1 6 1 16q0 19 -12 31.5t-28 12.5q-12 0 -21 -8.5t-9 -21t9 -21.5t21 -9h39zM90 20h45v-20h-125v20h60v299
q-5 1 -10 1h-40v20h40q25 0 48 -9t46 -29.5t38.5 -36.5t40.5 -46l97 -114v215h-60v20h135v-20h-55v-320h-62l-95 112l-33.5 39t-31.5 31t-38 29v-191zM90 233q32 -18 58.5 -43.5t59.5 -64.5l89 -105h33v54l-112 132q-40 47 -69 73.5t-59 35.5v-82z" />
    <glyph glyph-name="ncommaaccent" unicode="&#x146;" horiz-adv-x="412" 
d="M278 -174h-33q-21 0 -35.5 14.5t-14.5 35.5t14.5 35.5t35.5 14.5q25 0 42.5 -19t17.5 -45q0 -16 -4 -31q-9 -35 -34 -58t-58 -23v20q24 0 42 15t27 41zM284 -154q1 6 1 16q0 19 -12 31.5t-28 12.5q-12 0 -21 -8.5t-9 -21t9 -21.5t21 -9h39zM90 20h60v160h-60v-160z
M385 15v-20q-29 0 -49.5 7t-34.5 23t-20.5 27.5t-15.5 33.5q-1 3 -5.5 13.5l-6 14t-5.5 11t-6.5 11t-6 9t-8 8.5t-8.5 6q-49 -46 -49 -129v-30h-160v20h60v160h-50v20h150v-83q17 40 46 64t64 24q31 0 53 -22t22 -53v-70q0 -24 7 -43q10 -2 23 -2zM235 172q6 -4 12 -10.5
t9.5 -11.5t8 -14l6.5 -13t6.5 -15t5.5 -14q10 -22 14.5 -31t16 -22t26.5 -19q-5 20 -5 38v70q0 23 -16 39t-39 16q-24 0 -45 -13z" />
    <glyph glyph-name="Ncaron" unicode="&#x147;" horiz-adv-x="410" 
d="M190 514l-65 -11l57 -53h36l57 53l-65 10v-38h-20v39zM97 519l93 15h20l93 -15v-17l-77 -72h-52l-77 72v17zM90 20h45v-20h-125v20h60v299q-5 1 -10 1h-40v20h40q25 0 48 -9t46 -29.5t38.5 -36.5t40.5 -46l97 -114v215h-60v20h135v-20h-55v-320h-62l-95 112l-33.5 39
t-31.5 31t-38 29v-191zM90 233q32 -18 58.5 -43.5t59.5 -64.5l89 -105h33v54l-112 132q-40 47 -69 73.5t-59 35.5v-82z" />
    <glyph glyph-name="ncaron" unicode="&#x148;" horiz-adv-x="412" 
d="M180 384l-65 -11l57 -53h36l57 53l-65 10v-38h-20v39zM87 389l93 15h20l93 -15v-17l-77 -72h-52l-77 72v17zM90 20h60v160h-60v-160zM385 15v-20q-29 0 -49.5 7t-34.5 23t-20.5 27.5t-15.5 33.5q-1 3 -5.5 13.5l-6 14t-5.5 11t-6.5 11t-6 9t-8 8.5t-8.5 6
q-49 -46 -49 -129v-30h-160v20h60v160h-50v20h150v-83q17 40 46 64t64 24q31 0 53 -22t22 -53v-70q0 -24 7 -43q10 -2 23 -2zM235 172q6 -4 12 -10.5t9.5 -11.5t8 -14l6.5 -13t6.5 -15t5.5 -14q10 -22 14.5 -31t16 -22t26.5 -19q-5 20 -5 38v70q0 23 -16 39t-39 16
q-24 0 -45 -13z" />
    <glyph glyph-name="Eng" unicode="&#x14a;" horiz-adv-x="412" 
d="M10 0v20h60v299q-5 1 -10 1h-40v20h40q25 0 48 -9t46 -29.5t38.5 -36.5t40.5 -46l97 -114v215h-60v20h135v-20h-55v-465q0 -43 -33.5 -74t-81.5 -31q-62 0 -115 29l9 17q49 -26 106 -26q8 0 15 1v136q0 58 40 90l-97 115q-21 25 -34 39t-31.5 31t-37.5 29v-191h45v-20
h-125zM319 -6q-49 -25 -49 -87v-131q27 9 43.5 30.5t16.5 48.5v219l-112 132q-40 47 -69 73.5t-59 35.5v-82q32 -18 58.5 -43.5t59.5 -64.5z" />
    <glyph glyph-name="eng" unicode="&#x14b;" horiz-adv-x="412" 
d="M355 130v-275q0 -43 -33.5 -74t-81.5 -31q-62 0 -115 29l9 17q49 -26 106 -26q8 0 15 1v410q-37 -12 -61 -54t-24 -97v-30h-100h-60v20h60v160h-50v20h50h100v-83q17 40 46 64t64 24q31 0 53 -22t22 -53zM90 20h60v160h-60v-160zM275 185v-409q27 9 43.5 30.5t16.5 48.5
v275q0 23 -16 39t-39 16h-5z" />
    <glyph glyph-name="Omacron" unicode="&#x14c;" 
d="M130 500v-40h140v40h-140zM110 520h180v-80h-180v80zM25 170q0 72 51.5 123.5t123.5 51.5t123.5 -51.5t51.5 -123.5t-51.5 -123.5t-123.5 -51.5t-123.5 51.5t-51.5 123.5zM355 170q0 61 -42 106t-103 49v-310q61 4 103 49t42 106zM45 170q0 -61 42 -106t103 -49v310
q-61 -4 -103 -49t-42 -106z" />
    <glyph glyph-name="omacron" unicode="&#x14d;" horiz-adv-x="320" 
d="M90 370v-40h140v40h-140zM70 390h180v-80h-180v80zM35 100q0 43 36.5 74t88.5 31t88.5 -31t36.5 -74t-36.5 -74t-88.5 -31t-88.5 31t-36.5 74zM265 100q0 33 -27.5 57.5t-67.5 27.5v-170q40 3 67.5 27.5t27.5 57.5zM55 100q0 -33 27.5 -57.5t67.5 -27.5v170
q-40 -3 -67.5 -27.5t-27.5 -57.5z" />
    <glyph glyph-name="Obreve" unicode="&#x14e;" 
d="M200 514q62 0 113 23l15 -16q-55 -94 -128 -94t-128 94l15 16q51 -23 113 -23zM199.5 494q-51.5 0 -95.5 15q44 -62 96.5 -62t95.5 62q-45 -15 -96.5 -15zM25 170q0 72 51.5 123.5t123.5 51.5t123.5 -51.5t51.5 -123.5t-51.5 -123.5t-123.5 -51.5t-123.5 51.5
t-51.5 123.5zM355 170q0 61 -42 106t-103 49v-310q61 4 103 49t42 106zM45 170q0 -61 42 -106t103 -49v310q-61 -4 -103 -49t-42 -106z" />
    <glyph glyph-name="obreve" unicode="&#x14f;" horiz-adv-x="320" 
d="M160 384q62 0 113 23l15 -16q-55 -94 -128 -94t-128 94l15 16q51 -23 113 -23zM159.5 364q-51.5 0 -95.5 15q44 -62 96.5 -62t95.5 62q-45 -15 -96.5 -15zM35 100q0 43 36.5 74t88.5 31t88.5 -31t36.5 -74t-36.5 -74t-88.5 -31t-88.5 31t-36.5 74zM265 100
q0 33 -27.5 57.5t-67.5 27.5v-170q40 3 67.5 27.5t27.5 57.5zM55 100q0 -33 27.5 -57.5t67.5 -27.5v170q-40 -3 -67.5 -27.5t-27.5 -57.5z" />
    <glyph glyph-name="Ohungarumlaut" unicode="&#x150;" 
d="M230 430l25 100h120l-110 -100h-35zM249 439h1l78 73h-59zM80 430l25 100h120l-110 -100h-35zM99 439h1l78 73h-59zM25 170q0 72 51.5 123.5t123.5 51.5t123.5 -51.5t51.5 -123.5t-51.5 -123.5t-123.5 -51.5t-123.5 51.5t-51.5 123.5zM355 170q0 61 -42 106t-103 49v-310
q61 4 103 49t42 106zM45 170q0 -61 42 -106t103 -49v310q-61 -4 -103 -49t-42 -106z" />
    <glyph glyph-name="ohungarumlaut" unicode="&#x151;" horiz-adv-x="320" 
d="M190 300l25 100h120l-110 -100h-35zM209 309h1l78 73h-59zM40 300l25 100h120l-110 -100h-35zM59 309h1l78 73h-59zM35 100q0 43 36.5 74t88.5 31t88.5 -31t36.5 -74t-36.5 -74t-88.5 -31t-88.5 31t-36.5 74zM265 100q0 33 -27.5 57.5t-67.5 27.5v-170q40 3 67.5 27.5
t27.5 57.5zM55 100q0 -33 27.5 -57.5t67.5 -27.5v170q-40 -3 -67.5 -27.5t-27.5 -57.5z" />
    <glyph glyph-name="OE" unicode="&#x152;" horiz-adv-x="540" 
d="M265 320v-300h60v300h-60zM200 0q-72 0 -123.5 50t-51.5 120t51.5 120t123.5 50h285v60h20v-170h-20v90h-140v-140h60v50h20v-120h-20v50h-60v-140h140v90h20v-170h-20v60h-285zM200 20h45v300h-45q-64 0 -109.5 -44t-45.5 -106t45.5 -106t109.5 -44z" />
    <glyph glyph-name="oe" unicode="&#x153;" horiz-adv-x="455" 
d="M236 159q-27 23 -66 26v-170q38 3 65 26q28 -26 68 -26q15 0 30 2q-45 37 -45 93v73q-30 -5 -52 -24zM236 184q32 21 72 21q43 0 74 -22t31 -53q0 -27 -26.5 -46.5t-64.5 -22.5q14 -24 38 -39q31 8 58 25l10 -17q-57 -35 -125 -35q-38 0 -69 21q-33 -21 -74 -21
q-52 0 -88.5 31t-36.5 74t36.5 74t88.5 31q43 0 76 -21zM313 80q34 1 57 15.5t23 34.5q0 23 -25 39t-60 16v-75q0 -15 5 -30zM150 15v170q-40 -3 -67.5 -27.5t-27.5 -57.5t27.5 -57.5t67.5 -27.5z" />
    <glyph glyph-name="Racute" unicode="&#x154;" horiz-adv-x="415" 
d="M155 430l25 100h120l-110 -100h-35zM174 439h1l78 73h-59zM90 20h60v300h-60v-300zM405 0h-67q-59 0 -101 35t-42 85q0 21 13 35.5t32 14.5q43 0 74 22t31 53t-31 53t-74 22h-70v-320h-100h-60v20h60v300h-50v20h220q52 0 88.5 -28t36.5 -67q0 -31 -23.5 -55.5
t-61.5 -34.5q18 -13 45 -59q12 -20 19 -30.5t19.5 -23t25.5 -17.5q10 -4 16 -5v-20zM240 150q-10 0 -17.5 -9t-7.5 -21q0 -41 36 -70.5t87 -29.5h19q-29 22 -60 75q-11 19 -17 28.5t-17 18t-23 8.5z" />
    <glyph glyph-name="racute" unicode="&#x155;" horiz-adv-x="345" 
d="M155 300l25 100h120l-110 -100h-35zM174 309h1l78 73h-59zM10 0v20h60v160h-50v20h150v-80q18 45 48.5 72.5t66.5 27.5q21 0 35.5 -14.5t14.5 -35.5t-14.5 -35.5t-35.5 -14.5q-36 0 -74 37q-41 -54 -41 -137h60v-20h-220zM90 20h62l-2 160h-60v-160zM224 172
q33 -32 61 -32q12 0 21 9t9 21t-9 21t-21 9q-33 0 -61 -28z" />
    <glyph glyph-name="Rcommaaccent" unicode="&#x156;" horiz-adv-x="415" 
d="M253 -174h-33q-21 0 -35.5 14.5t-14.5 35.5t14.5 35.5t35.5 14.5q25 0 42.5 -19t17.5 -45q0 -16 -4 -31q-9 -35 -34 -58t-58 -23v20q24 0 42 15t27 41zM259 -154q1 6 1 16q0 19 -12 31.5t-28 12.5q-12 0 -21 -8.5t-9 -21t9 -21.5t21 -9h39zM90 20h60v300h-60v-300zM405 0
h-67q-59 0 -101 35t-42 85q0 21 13 35.5t32 14.5q43 0 74 22t31 53t-31 53t-74 22h-70v-320h-100h-60v20h60v300h-50v20h220q52 0 88.5 -28t36.5 -67q0 -31 -23.5 -55.5t-61.5 -34.5q18 -13 45 -59q12 -20 19 -30.5t19.5 -23t25.5 -17.5q10 -4 16 -5v-20zM240 150
q-10 0 -17.5 -9t-7.5 -21q0 -41 36 -70.5t87 -29.5h19q-29 22 -60 75q-11 19 -17 28.5t-17 18t-23 8.5z" />
    <glyph glyph-name="rcommaaccent" unicode="&#x157;" horiz-adv-x="345" 
d="M153 -174h-33q-21 0 -35.5 14.5t-14.5 35.5t14.5 35.5t35.5 14.5q25 0 42.5 -19t17.5 -45q0 -16 -4 -31q-9 -35 -34 -58t-58 -23v20q24 0 42 15t27 41zM159 -154q1 6 1 16q0 19 -12 31.5t-28 12.5q-12 0 -21 -8.5t-9 -21t9 -21.5t21 -9h39zM10 0v20h60v160h-50v20h150
v-80q18 45 48.5 72.5t66.5 27.5q21 0 35.5 -14.5t14.5 -35.5t-14.5 -35.5t-35.5 -14.5q-36 0 -74 37q-41 -54 -41 -137h60v-20h-220zM90 20h62l-2 160h-60v-160zM224 172q33 -32 61 -32q12 0 21 9t9 21t-9 21t-21 9q-33 0 -61 -28z" />
    <glyph glyph-name="Rcaron" unicode="&#x158;" horiz-adv-x="415" 
d="M180 514l-65 -11l57 -53h36l57 53l-65 10v-38h-20v39zM87 519l93 15h20l93 -15v-17l-77 -72h-52l-77 72v17zM90 20h60v300h-60v-300zM405 0h-67q-59 0 -101 35t-42 85q0 21 13 35.5t32 14.5q43 0 74 22t31 53t-31 53t-74 22h-70v-320h-100h-60v20h60v300h-50v20h220
q52 0 88.5 -28t36.5 -67q0 -31 -23.5 -55.5t-61.5 -34.5q18 -13 45 -59q12 -20 19 -30.5t19.5 -23t25.5 -17.5q10 -4 16 -5v-20zM240 150q-10 0 -17.5 -9t-7.5 -21q0 -41 36 -70.5t87 -29.5h19q-29 22 -60 75q-11 19 -17 28.5t-17 18t-23 8.5z" />
    <glyph glyph-name="rcaron" unicode="&#x159;" horiz-adv-x="345" 
d="M180 384l-65 -11l57 -53h36l57 53l-65 10v-38h-20v39zM87 389l93 15h20l93 -15v-17l-77 -72h-52l-77 72v17zM10 0v20h60v160h-50v20h150v-80q18 45 48.5 72.5t66.5 27.5q21 0 35.5 -14.5t14.5 -35.5t-14.5 -35.5t-35.5 -14.5q-36 0 -74 37q-41 -54 -41 -137h60v-20h-220z
M90 20h62l-2 160h-60v-160zM224 172q33 -32 61 -32q12 0 21 9t9 21t-9 21t-21 9q-33 0 -61 -28z" />
    <glyph glyph-name="Sacute" unicode="&#x15a;" horiz-adv-x="305" 
d="M125 430l25 100h120l-110 -100h-35zM144 439h1l78 73h-59zM55 27q35 -12 80 -12h10v15q0 53 -50 94q-60 50 -60 110q0 46 39.5 78.5t95.5 32.5q32 0 60 -6v71h20v-97q-34 12 -80 12h-10v-15q0 -53 50 -94q60 -50 60 -110q0 -46 -39.5 -78.5t-95.5 -32.5q-32 0 -60 6v-71
h-20v97zM140 322q-37 -8 -61 -32.5t-24 -55.5q0 -50 52 -94q58 -48 58 -110v-12q37 8 61 32.5t24 55.5q0 50 -52 94q-58 48 -58 110v12z" />
    <glyph glyph-name="sacute" unicode="&#x15b;" horiz-adv-x="260" 
d="M95 300l25 100h120l-110 -100h-35zM114 309h1l78 73h-59zM45 27q27 -9 60 -11q-3 25 -29 46q-36 30 -36 68q0 31 28 53t67 22q31 0 60 -6v71h20v-97q-27 9 -60 11q3 -25 29 -46q36 -30 36 -68q0 -31 -28 -53t-67 -22q-31 0 -60 6v-71h-20v97zM135 185q-31 0 -53 -16
t-22 -39q0 -28 29 -52q33 -28 36 -63q31 0 53 16t22 39q0 28 -29 52q-33 28 -36 63z" />
    <glyph glyph-name="Scircumflex" unicode="&#x15c;" horiz-adv-x="305" 
d="M170 446l65 11l-57 53h-36l-57 -53l65 -10v38h20v-39zM263 441l-93 -15h-20l-93 15v17l77 72h52l77 -72v-17zM55 27q35 -12 80 -12h10v15q0 53 -50 94q-60 50 -60 110q0 46 39.5 78.5t95.5 32.5q32 0 60 -6v71h20v-97q-34 12 -80 12h-10v-15q0 -53 50 -94q60 -50 60 -110
q0 -46 -39.5 -78.5t-95.5 -32.5q-32 0 -60 6v-71h-20v97zM140 322q-37 -8 -61 -32.5t-24 -55.5q0 -50 52 -94q58 -48 58 -110v-12q37 8 61 32.5t24 55.5q0 50 -52 94q-58 48 -58 110v12z" />
    <glyph glyph-name="scircumflex" unicode="&#x15d;" horiz-adv-x="260" 
d="M140 316l65 11l-57 53h-36l-57 -53l65 -10v38h20v-39zM233 311l-93 -15h-20l-93 15v17l77 72h52l77 -72v-17zM45 27q27 -9 60 -11q-3 25 -29 46q-36 30 -36 68q0 31 28 53t67 22q31 0 60 -6v71h20v-97q-27 9 -60 11q3 -25 29 -46q36 -30 36 -68q0 -31 -28 -53t-67 -22
q-31 0 -60 6v-71h-20v97zM135 185q-31 0 -53 -16t-22 -39q0 -28 29 -52q33 -28 36 -63q31 0 53 16t22 39q0 28 -29 52q-33 28 -36 63z" />
    <glyph glyph-name="Scedilla" unicode="&#x15e;" horiz-adv-x="305" 
d="M212 -139q-23 -43 -65 -43h-49q-1 -3 -1 -6q0 -18 14.5 -31.5t35.5 -13.5q29 0 49.5 20.5t20.5 48.5q0 13 -5 25zM55 27q35 -12 80 -12h10v15q0 53 -50 94q-60 50 -60 110q0 46 39.5 78.5t95.5 32.5q32 0 60 -6v71h20v-97q-34 12 -80 12h-10v-15q0 -53 50 -94
q60 -50 60 -110q0 -39 -29.5 -69.5t-75.5 -38.5l-18 -68q52 -6 77 -48q13 -21 13 -46q0 -37 -26.5 -63t-63.5 -26q-29 0 -49.5 19t-20.5 46q0 10 4 20l2 6h64q17 0 31.5 12t21.5 32q-25 29 -66 29h-13l23 84h-9q-32 0 -60 6v-71h-20v97zM140 322q-37 -8 -61 -32.5t-24 -55.5
q0 -50 52 -94q58 -48 58 -110v-12q37 8 61 32.5t24 55.5q0 50 -52 94q-58 48 -58 110v12z" />
    <glyph glyph-name="scedilla" unicode="&#x15f;" horiz-adv-x="260" 
d="M184 -139q-23 -43 -65 -43h-49q-1 -3 -1 -6q0 -18 14.5 -31.5t35.5 -13.5q29 0 49.5 20.5t20.5 48.5q0 13 -5 25zM45 27q27 -9 60 -11q-3 25 -29 46q-36 30 -36 68q0 31 28 53t67 22q31 0 60 -6v71h20v-97q-27 9 -60 11q3 -25 29 -46q36 -30 36 -68q0 -29 -24 -50
t-60 -24l-17 -66q52 -6 77 -48q13 -21 13 -46q0 -37 -26.5 -63t-63.5 -26q-29 0 -49.5 19t-20.5 46q0 10 4 20l2 6h64q17 0 31.5 12t21.5 32q-25 29 -66 29h-13l23 84q-26 1 -51 6v-31h-20v57zM135 185q-31 0 -53 -16t-22 -39q0 -28 29 -52q33 -28 36 -63q31 0 53 16t22 39
q0 28 -29 52q-33 28 -36 63z" />
    <glyph glyph-name="Scaron" unicode="&#x160;" horiz-adv-x="305" 
d="M150 514l-65 -11l57 -53h36l57 53l-65 10v-38h-20v39zM57 519l93 15h20l93 -15v-17l-77 -72h-52l-77 72v17zM55 27q35 -12 80 -12h10v15q0 53 -50 94q-60 50 -60 110q0 46 39.5 78.5t95.5 32.5q32 0 60 -6v71h20v-97q-34 12 -80 12h-10v-15q0 -53 50 -94q60 -50 60 -110
q0 -46 -39.5 -78.5t-95.5 -32.5q-32 0 -60 6v-71h-20v97zM140 322q-37 -8 -61 -32.5t-24 -55.5q0 -50 52 -94q58 -48 58 -110v-12q37 8 61 32.5t24 55.5q0 50 -52 94q-58 48 -58 110v12z" />
    <glyph glyph-name="scaron" unicode="&#x161;" horiz-adv-x="260" 
d="M120 384l-65 -11l57 -53h36l57 53l-65 10v-38h-20v39zM27 389l93 15h20l93 -15v-17l-77 -72h-52l-77 72v17zM45 27q27 -9 60 -11q-3 25 -29 46q-36 30 -36 68q0 31 28 53t67 22q31 0 60 -6v71h20v-97q-27 9 -60 11q3 -25 29 -46q36 -30 36 -68q0 -31 -28 -53t-67 -22
q-31 0 -60 6v-71h-20v97zM135 185q-31 0 -53 -16t-22 -39q0 -28 29 -52q33 -28 36 -63q31 0 53 16t22 39q0 28 -29 52q-33 28 -36 63z" />
    <glyph glyph-name="Tcommaaccent" unicode="&#x162;" 
d="M247 -139q-23 -43 -65 -43h-49q-1 -3 -1 -6q0 -18 14.5 -31.5t35.5 -13.5q29 0 49.5 20.5t20.5 48.5q0 13 -5 25zM235 -118q-25 29 -66 29h-13l24 89h-90v20h55v300h-100v-110h-20v190h20v-60h310v60h20v-190h-20v110h-100v-300h55v-20h-109l-19 -70q52 -6 77 -48
q13 -21 13 -46q0 -37 -26.5 -63t-63.5 -26q-29 0 -49.5 19t-20.5 46q0 10 4 20l2 6h64q17 0 31.5 12t21.5 32zM165 20h70v300h-70v-300z" />
    <glyph glyph-name="tcommaaccent" unicode="&#x163;" horiz-adv-x="299" 
d="M202 -139q-23 -43 -65 -43h-49q-1 -3 -1 -6q0 -18 14.5 -31.5t35.5 -13.5q29 0 49.5 20.5t20.5 48.5q0 13 -5 25zM190 -118q-25 29 -66 29h-13l23 87q-26 7 -42.5 28.5t-16.5 48.5v105h-50v20h55q31 0 53 22t22 53v45h20v-120h60v70h20v-130h-20v40h-60v-95
q0 -20 14 -34.5t34 -15.5q11 7 20 17l14 -14q-43 -43 -102 -43h-1l-17 -65q52 -6 77 -48q13 -21 13 -46q0 -37 -26.5 -63t-63.5 -26q-29 0 -49.5 19t-20.5 46q0 10 4 20l2 6h64q17 0 31.5 12t21.5 32zM197 22q-42 17 -42 63v134q-22 -32 -60 -38v-106q0 -25 17.5 -42.5
t42.5 -17.5q24 0 42 7z" />
    <glyph glyph-name="Tcaron" unicode="&#x164;" 
d="M190 544l-65 -11l57 -53h36l57 53l-65 10v-38h-20v39zM97 549l93 15h20l93 -15v-17l-77 -72h-52l-77 72v17zM90 0v20h55v300h-100v-110h-20v190h20v-60h310v60h20v-190h-20v110h-100v-300h55v-20h-220zM165 20h70v300h-70v-300z" />
    <glyph glyph-name="tcaron" unicode="&#x165;" horiz-adv-x="325" 
d="M243 52l14 -14q-43 -43 -102 -43q-33 0 -56.5 23.5t-23.5 56.5v105h-50v20h55q31 0 53 22t22 53v45h20v-120h60v50h20v-110h-20v40h-60v-95q0 -20 14 -34.5t34 -15.5q11 7 20 17zM197 22q-42 17 -42 63v134q-22 -32 -60 -38v-106q0 -25 17.5 -42.5t42.5 -17.5q24 0 42 7z
M297 267q31 36 40 88h-37q-21 0 -35.5 14.5t-14.5 35.5t14.5 35.5t35.5 14.5q25 0 42.5 -19t17.5 -45q0 -82 -49 -137zM339 375q1 8 1 16q0 19 -12 31.5t-28 12.5q-12 0 -21 -9t-9 -21t9 -21t21 -9h39z" />
    <glyph glyph-name="Tbar" unicode="&#x166;" 
d="M165 20h70v300h-70v-300zM90 0v20h55v180h-55v20h55v100h-100v-110h-20v190h20v-60h310v60h20v-190h-20v110h-100v-100h55v-20h-55v-180h55v-20h-220z" />
    <glyph glyph-name="tbar" unicode="&#x167;" horiz-adv-x="299" 
d="M197 22q-42 17 -42 63v134q-22 -32 -60 -38v-106q0 -25 17.5 -42.5t42.5 -17.5q24 0 42 7zM243 52l14 -14q-43 -43 -102 -43q-33 0 -56.5 23.5t-23.5 56.5v40h-50v20h50v45h-50v20h55q31 0 53 22t22 53v45h20v-120h60v70h20v-90h-80v-45h70v-20h-70v-30q0 -20 14 -34.5
t34 -15.5q11 7 20 17z" />
    <glyph glyph-name="Utilde" unicode="&#x168;" 
d="M319 487q0 -26 -16 -45t-37 -19q-19 0 -56 15q-35 14 -52 15q-16 0 -36 -16l-12 -10l-4 15q-4 15 -4 26q0 26 16 45t37 19q19 0 56 -15q35 -14 52 -15q16 0 36 16l12 10l4 -15q4 -15 4 -26zM299 486q0 4 -1 7q-18 -11 -35 -11q-22 0 -60 16q-33 14 -48 14
q-13 0 -22.5 -12.5t-10.5 -30.5q0 -5 1 -7q18 11 35 11q22 0 60 -16q33 -14 48 -14q14 0 23.5 12.5t9.5 30.5zM290 340h100v-20h-40v-195q0 -54 -45.5 -92t-109.5 -38q-57 0 -101 37t-44 88v200h-40v20h185v-20h-35v-212q0 -29 16 -53.5t42 -37.5q48 7 80 37.5t32 70.5v195
h-40v20zM70 320v-200q0 -41 35 -71.5t82 -33.5q-47 37 -47 93v212h-1h-69z" />
    <glyph glyph-name="utilde" unicode="&#x169;" horiz-adv-x="412" 
d="M304 357q0 -26 -16 -45t-37 -19q-19 0 -56 15q-35 14 -52 15q-16 0 -36 -16l-12 -10l-4 15q-4 15 -4 26q0 26 16 45t37 19q19 0 56 -15q35 -14 52 -15q16 0 36 16l12 10l4 -15q4 -15 4 -26zM284 356q0 4 -1 7q-18 -11 -35 -11q-22 0 -60 16q-33 14 -48 14
q-13 0 -22.5 -12.5t-10.5 -30.5q0 -5 1 -7q18 11 35 11q22 0 60 -16q33 -14 48 -14q14 0 23.5 12.5t9.5 30.5zM332 180h-60v-160h60v160zM352 200v-180h50v-20h-150v80q-18 -39 -50 -62t-70 -23q-31 0 -53 22t-22 53v70q0 24 -7 43q-11 2 -23 2v20q29 0 49.5 -7t34.5 -22.5
t20.5 -27.5t15.5 -34l15.5 -35t15.5 -24t20 -16q25 20 39.5 52t14.5 69v20h-40v20h140zM179 27q-26 18 -50 79q-11 29 -23.5 46.5t-33.5 25.5q5 -20 5 -38v-70q0 -23 16 -39t39 -16q25 0 47 12z" />
    <glyph glyph-name="Umacron" unicode="&#x16a;" 
d="M140 500v-40h140v40h-140zM120 520h180v-80h-180v80zM290 340h100v-20h-40v-195q0 -54 -45.5 -92t-109.5 -38q-57 0 -101 37t-44 88v200h-40v20h185v-20h-35v-212q0 -29 16 -53.5t42 -37.5q48 7 80 37.5t32 70.5v195h-40v20zM70 320v-200q0 -41 35 -71.5t82 -33.5
q-47 37 -47 93v212h-1h-69z" />
    <glyph glyph-name="umacron" unicode="&#x16b;" horiz-adv-x="412" 
d="M125 370v-40h140v40h-140zM105 390h180v-80h-180v80zM332 180h-60v-160h60v160zM352 200v-180h50v-20h-150v80q-18 -39 -50 -62t-70 -23q-31 0 -53 22t-22 53v70q0 24 -7 43q-11 2 -23 2v20q29 0 49.5 -7t34.5 -22.5t20.5 -27.5t15.5 -34l15.5 -35t15.5 -24t20 -16
q25 20 39.5 52t14.5 69v20h-40v20h140zM179 27q-26 18 -50 79q-11 29 -23.5 46.5t-33.5 25.5q5 -20 5 -38v-70q0 -23 16 -39t39 -16q25 0 47 12z" />
    <glyph glyph-name="Ubreve" unicode="&#x16c;" 
d="M210 514q62 0 113 23l15 -16q-55 -94 -128 -94t-128 94l15 16q51 -23 113 -23zM209.5 494q-51.5 0 -95.5 15q44 -62 96.5 -62t95.5 62q-45 -15 -96.5 -15zM290 340h100v-20h-40v-195q0 -54 -45.5 -92t-109.5 -38q-57 0 -101 37t-44 88v200h-40v20h185v-20h-35v-212
q0 -29 16 -53.5t42 -37.5q48 7 80 37.5t32 70.5v195h-40v20zM70 320v-200q0 -41 35 -71.5t82 -33.5q-47 37 -47 93v212h-1h-69z" />
    <glyph glyph-name="ubreve" unicode="&#x16d;" horiz-adv-x="412" 
d="M195 384q62 0 113 23l15 -16q-55 -94 -128 -94t-128 94l15 16q51 -23 113 -23zM194.5 364q-51.5 0 -95.5 15q44 -62 96.5 -62t95.5 62q-45 -15 -96.5 -15zM332 180h-60v-160h60v160zM352 200v-180h50v-20h-150v80q-18 -39 -50 -62t-70 -23q-31 0 -53 22t-22 53v70
q0 24 -7 43q-11 2 -23 2v20q29 0 49.5 -7t34.5 -22.5t20.5 -27.5t15.5 -34l15.5 -35t15.5 -24t20 -16q25 20 39.5 52t14.5 69v20h-40v20h140zM179 27q-26 18 -50 79q-11 29 -23.5 46.5t-33.5 25.5q5 -20 5 -38v-70q0 -23 16 -39t39 -16q25 0 47 12z" />
    <glyph glyph-name="Uring" unicode="&#x16e;" 
d="M160 480q0 -21 14.5 -35.5t35.5 -14.5t35.5 14.5t14.5 35.5t-14.5 35.5t-35.5 14.5t-35.5 -14.5t-14.5 -35.5zM140 480q0 29 20.5 49.5t49.5 20.5t49.5 -20.5t20.5 -49.5t-20.5 -49.5t-49.5 -20.5t-49.5 20.5t-20.5 49.5zM290 340h100v-20h-40v-195q0 -54 -45.5 -92
t-109.5 -38q-57 0 -101 37t-44 88v200h-40v20h185v-20h-35v-212q0 -29 16 -53.5t42 -37.5q48 7 80 37.5t32 70.5v195h-40v20zM70 320v-200q0 -41 35 -71.5t82 -33.5q-47 37 -47 93v212h-1h-69z" />
    <glyph glyph-name="uring" unicode="&#x16f;" horiz-adv-x="412" 
d="M145 350q0 -21 14.5 -35.5t35.5 -14.5t35.5 14.5t14.5 35.5t-14.5 35.5t-35.5 14.5t-35.5 -14.5t-14.5 -35.5zM125 350q0 29 20.5 49.5t49.5 20.5t49.5 -20.5t20.5 -49.5t-20.5 -49.5t-49.5 -20.5t-49.5 20.5t-20.5 49.5zM332 180h-60v-160h60v160zM352 200v-180h50v-20
h-150v80q-18 -39 -50 -62t-70 -23q-31 0 -53 22t-22 53v70q0 24 -7 43q-11 2 -23 2v20q29 0 49.5 -7t34.5 -22.5t20.5 -27.5t15.5 -34l15.5 -35t15.5 -24t20 -16q25 20 39.5 52t14.5 69v20h-40v20h140zM179 27q-26 18 -50 79q-11 29 -23.5 46.5t-33.5 25.5q5 -20 5 -38v-70
q0 -23 16 -39t39 -16q25 0 47 12z" />
    <glyph glyph-name="Uhungarumlaut" unicode="&#x170;" 
d="M240 430l25 100h120l-110 -100h-35zM259 439h1l78 73h-59zM90 430l25 100h120l-110 -100h-35zM109 439h1l78 73h-59zM290 340h100v-20h-40v-195q0 -54 -45.5 -92t-109.5 -38q-57 0 -101 37t-44 88v200h-40v20h185v-20h-35v-212q0 -29 16 -53.5t42 -37.5q48 7 80 37.5
t32 70.5v195h-40v20zM70 320v-200q0 -41 35 -71.5t82 -33.5q-47 37 -47 93v212h-1h-69z" />
    <glyph glyph-name="uhungarumlaut" unicode="&#x171;" horiz-adv-x="412" 
d="M225 300l25 100h120l-110 -100h-35zM244 309h1l78 73h-59zM75 300l25 100h120l-110 -100h-35zM94 309h1l78 73h-59zM332 180h-60v-160h60v160zM352 200v-180h50v-20h-150v80q-18 -39 -50 -62t-70 -23q-31 0 -53 22t-22 53v70q0 24 -7 43q-11 2 -23 2v20q29 0 49.5 -7
t34.5 -22.5t20.5 -27.5t15.5 -34l15.5 -35t15.5 -24t20 -16q25 20 39.5 52t14.5 69v20h-40v20h140zM179 27q-26 18 -50 79q-11 29 -23.5 46.5t-33.5 25.5q5 -20 5 -38v-70q0 -23 16 -39t39 -16q25 0 47 12z" />
    <glyph glyph-name="Uogonek" unicode="&#x172;" 
d="M152 -88q-9 -23 -9 -48t16 -43t38 -18q16 0 27 12.5t11 29.5q-28 0 -51 19t-32 48zM70 320v-200q0 -41 35 -71.5t82 -33.5q-47 37 -47 93v212h-1h-69zM290 340h100v-20h-40v-195q0 -44 -31.5 -78.5t-80.5 -46.5q-45 -24 -70 -60q1 -31 20.5 -53t46.5 -22h20v-20
q0 -26 -17 -44t-40 -18q-31 0 -53 23.5t-22 57.5q0 77 70 131q-56 1 -99.5 37.5t-43.5 87.5v200h-40v20h185v-20h-35v-212q0 -29 16 -53.5t42 -37.5q48 7 80 37.5t32 70.5v195h-40v20z" />
    <glyph glyph-name="uogonek" unicode="&#x173;" horiz-adv-x="412" 
d="M300 -88q-9 -23 -9 -48t15.5 -43t38.5 -18q16 0 26.5 12.5t10.5 29.5q-28 0 -50.5 19t-31.5 48zM179 27q-26 18 -50 79q-11 29 -23.5 46.5t-33.5 25.5q5 -20 5 -38v-70q0 -23 16 -39t39 -16q25 0 47 12zM352 200v-180h50v-20h-17q-46 -25 -70 -60q1 -31 20.5 -53
t46.5 -22h20v-20q0 -26 -16.5 -44t-40.5 -18q-31 0 -52.5 23.5t-21.5 57.5q0 81 76 136h-95v80q-18 -39 -50 -62t-70 -23q-31 0 -53 22t-22 53v70q0 24 -7 43q-11 2 -23 2v20q29 0 49.5 -7t34.5 -22.5t20.5 -27.5t15.5 -34l15.5 -35t15.5 -24t20 -16q25 20 39.5 52t14.5 69
v20h-40v20h140zM332 180h-60v-160h60v160z" />
    <glyph glyph-name="Wcircumflex" unicode="&#x174;" horiz-adv-x="510" 
d="M265 425l65 11l-57 53h-36l-57 -53l65 -10v38h20v-39zM358 420l-93 -15h-20l-93 15v17l77 72h52l77 -72v-17zM57 320q1 -91 32 -146l78 -134q14 -25 33 -25q18 0 33 25l13 21l-150 259h-39zM120 320l161 -280q14 -25 33 -25t33 25l12 21l-128 221q-22 38 -61 38h-50z
M365 320q3 -26 16.5 -45t26.5 -28t36 -21q1 -1 2 -1q11 38 11 95h-92zM440 205q-3 1 -5 3q-20 11 -32.5 19.5t-28 24t-23 37.5t-7.5 51h161v-20h-28q-1 -97 -35 -156l-78 -134q-20 -35 -50 -35t-50 35q-3 6 -7 11l-7 -11q-21 -35 -50 -35q-30 0 -50 35l-78 134
q-34 59 -35 156h-32v20h165q51 0 80 -50l121 -210l54 94q9 15 15 31z" />
    <glyph glyph-name="wcircumflex" unicode="&#x175;" horiz-adv-x="455" 
d="M230 316l65 11l-57 53h-36l-57 -53l65 -10v38h20v-39zM323 311l-93 -15h-20l-93 15v17l77 72h52l77 -72v-17zM175 23l46 46l-98 99q-18 18 -43 18t-42 -19l-4 -3zM359 190v20h27q24 0 38 -14.5t14 -34.5q0 -23 -16 -39l-127 -127l-60 60l-60 -60l-169 169l17 18
q24 24 57 24t57 -24l3 -4l3 4q24 24 57 24t57 -24l28 -28q38 -38 43 -97l80 79q10 10 10 25q0 12 -8 20.5t-24 8.5h-27zM295 23l16 16q0 60 -40 100l-28 29q-18 18 -43 18t-42 -19l-4 -3z" />
    <glyph glyph-name="Ycircumflex" unicode="&#x176;" horiz-adv-x="395" 
d="M225 446l65 11l-57 53h-36l-57 -53l65 -10v38h20v-39zM318 441l-93 -15h-20l-93 15v17l77 72h52l77 -72v-17zM251 198l97 111q7 8 7 17q0 8 -5.5 13.5t-13.5 5.5h-34v20h34q16 0 27.5 -11.5t11.5 -27.5t-14 -32l-101 -115v-159h60v-20h-220v20h55v126l-125 174h-25v20
h144zM240 179l-102 141h-83l120 -167v-133h65v159z" />
    <glyph glyph-name="ycircumflex" unicode="&#x177;" horiz-adv-x="345" 
d="M200 316l65 11l-57 53h-36l-57 -53l65 -10v38h20v-39zM293 311l-93 -15h-20l-93 15v17l77 72h52l77 -72v-17zM166 9l-155 155l17 18q24 24 57 24t57 -24l28 -28q39 -39 45 -96l78 78q11 11 11 25q0 12 -8.5 20.5t-24.5 8.5h-27v20h27q24 0 38.5 -14.5t14.5 -34.5
q0 -22 -17 -39l-142 -142q-39 -39 -39 -90v-212q22 -8 46 -8q57 0 98.5 41.5t41.5 98.5t-42 98l14 14q48 -48 48 -112.5t-47.5 -112t-112.5 -47.5t-111 47.5t-46 112.5q0 48 54 102zM180 23l16 16q0 60 -40 100l-28 29q-18 18 -43 18t-42 -19l-4 -3zM106 -312v202q0 18 5 36
l-28 -28q-48 -48 -48 -88q0 -38 19.5 -71t51.5 -51z" />
    <glyph glyph-name="Ydieresis" unicode="&#x178;" horiz-adv-x="395" 
d="M235 480q0 17 11.5 28.5t28.5 11.5t28.5 -11.5t11.5 -28.5t-11.5 -28.5t-28.5 -11.5t-28.5 11.5t-11.5 28.5zM255 480q0 -8 6 -14t14 -6t14 6t6 14t-6 14t-14 6t-14 -6t-6 -14zM115 480q0 17 11.5 28.5t28.5 11.5t28.5 -11.5t11.5 -28.5t-11.5 -28.5t-28.5 -11.5
t-28.5 11.5t-11.5 28.5zM135 480q0 -8 6 -14t14 -6t14 6t6 14t-6 14t-14 6t-14 -6t-6 -14zM251 198l97 111q7 8 7 17q0 8 -5.5 13.5t-13.5 5.5h-34v20h34q16 0 27.5 -11.5t11.5 -27.5t-14 -32l-101 -115v-159h60v-20h-220v20h55v126l-125 174h-25v20h144zM240 179l-102 141
h-83l120 -167v-133h65v159z" />
    <glyph glyph-name="Zacute" unicode="&#x179;" horiz-adv-x="370" 
d="M155 430l25 100h120l-110 -100h-35zM174 439h1l78 73h-59zM40 270v150h20v-80h284l-216 -320h182v50h20v-110h-20v40h-260v20h33l96 300h-119v-50h-20zM104 20l202 300h-106z" />
    <glyph glyph-name="zacute" unicode="&#x17a;" horiz-adv-x="330" 
d="M145 300l25 100h120l-110 -100h-35zM164 309h1l78 73h-59zM50 0v20h31l53 160h-74v-50h-20v140h20v-70h238l-169 -180h131v50h20v-140h-20v70h-210zM155 180l-53 -160l150 160h-97z" />
    <glyph glyph-name="Zdotaccent" unicode="&#x17b;" horiz-adv-x="370" 
d="M160 480q0 -12 9 -21t21 -9t21 9t9 21t-9 21t-21 9t-21 -9t-9 -21zM140 480q0 21 14.5 35.5t35.5 14.5t35.5 -14.5t14.5 -35.5t-14.5 -35.5t-35.5 -14.5t-35.5 14.5t-14.5 35.5zM40 270v150h20v-80h284l-216 -320h182v50h20v-110h-20v40h-260v20h33l96 300h-119v-50h-20z
M104 20l202 300h-106z" />
    <glyph glyph-name="zdotaccent" unicode="&#x17c;" horiz-adv-x="330" 
d="M150 350q0 -12 9 -21t21 -9t21 9t9 21t-9 21t-21 9t-21 -9t-9 -21zM130 350q0 21 14.5 35.5t35.5 14.5t35.5 -14.5t14.5 -35.5t-14.5 -35.5t-35.5 -14.5t-35.5 14.5t-14.5 35.5zM50 0v20h31l53 160h-74v-50h-20v140h20v-70h238l-169 -180h131v50h20v-140h-20v70h-210z
M155 180l-53 -160l150 160h-97z" />
    <glyph glyph-name="Zcaron" unicode="&#x17d;" horiz-adv-x="370" 
d="M180 514l-65 -11l57 -53h36l57 53l-65 10v-38h-20v39zM87 519l93 15h20l93 -15v-17l-77 -72h-52l-77 72v17zM40 270v150h20v-80h284l-216 -320h182v50h20v-110h-20v40h-260v20h33l96 300h-119v-50h-20zM104 20l202 300h-106z" />
    <glyph glyph-name="zcaron" unicode="&#x17e;" horiz-adv-x="330" 
d="M170 384l-65 -11l57 -53h36l57 53l-65 10v-38h-20v39zM77 389l93 15h20l93 -15v-17l-77 -72h-52l-77 72v17zM50 0v20h31l53 160h-74v-50h-20v140h20v-70h238l-169 -180h131v50h20v-140h-20v70h-210zM155 180l-53 -160l150 160h-97z" />
    <glyph glyph-name="uni01CD" unicode="&#x1cd;" horiz-adv-x="425" 
d="M185 514l-65 -11l57 -53h36l57 53l-65 10v-38h-20v39zM92 519l93 15h20l93 -15v-17l-77 -72h-52l-77 72v17zM159 325l198 -343q18 18 18 55q0 45 -27 91l-100 172q-14 25 -33 25h-56zM136 325h-31v20h110q30 0 51 -35l100 -172q29 -50 29 -101q0 -53 -35 -78l-9 -6
l-73 127h-203l-35 -60h89v-20h-123l159 275zM176 255l-90 -155h180z" />
    <glyph glyph-name="uni01CE" unicode="&#x1ce;" horiz-adv-x="315" 
d="M150 384l-65 -11l57 -53h36l57 53l-65 10v-38h-20v39zM57 389l93 15h20l93 -15v-17l-77 -72h-52l-77 72v17zM47 57q0 -17 14.5 -29.5t35.5 -12.5q16 0 28 14.5t12 35.5v10q-26 15 -50 15q-17 0 -28.5 -10t-11.5 -23zM157 185v-99q12 -8 39.5 -30.5t43.5 -30.5
q-5 11 -5 22v73q0 25 -22.5 44t-55.5 21zM27 57q0 23 18 38t42 15q25 0 50 -12v87q-36 -2 -67 -12v97h20v-73q30 8 60 8q43 0 74 -25t31 -60v-73q0 -14 8 -23t19 -9q10 0 21 2l4 -19q-13 -3 -25 -3q-19 0 -38.5 7.5t-29.5 14.5t-31 24t-26 20q-1 -29 -18 -47.5t-42 -18.5
q-29 0 -49.5 18t-20.5 44z" />
    <glyph glyph-name="uni01CF" unicode="&#x1cf;" horiz-adv-x="240" 
d="M110 514l-65 -11l57 -53h36l57 53l-65 10v-38h-20v39zM17 519l93 15h20l93 -15v-17l-77 -72h-52l-77 72v17zM10 340h220v-20h-60v-300h60v-20h-220v20h60v300h-60v20zM150 20v300h-60v-300h60z" />
    <glyph glyph-name="uni01D0" unicode="&#x1d0;" horiz-adv-x="235" 
d="M110 384l-65 -11l57 -53h36l57 53l-65 10v-38h-20v39zM17 389l93 15h20l93 -15v-17l-77 -72h-52l-77 72v17zM90 20h60v160h-60v-160zM10 0v20h60v160h-50v20h150v-180h60v-20h-220z" />
    <glyph glyph-name="uni01D1" unicode="&#x1d1;" 
d="M190 514l-65 -11l57 -53h36l57 53l-65 10v-38h-20v39zM97 519l93 15h20l93 -15v-17l-77 -72h-52l-77 72v17zM25 170q0 72 51.5 123.5t123.5 51.5t123.5 -51.5t51.5 -123.5t-51.5 -123.5t-123.5 -51.5t-123.5 51.5t-51.5 123.5zM355 170q0 61 -42 106t-103 49v-310
q61 4 103 49t42 106zM45 170q0 -61 42 -106t103 -49v310q-61 -4 -103 -49t-42 -106z" />
    <glyph glyph-name="uni01D2" unicode="&#x1d2;" horiz-adv-x="320" 
d="M150 384l-65 -11l57 -53h36l57 53l-65 10v-38h-20v39zM57 389l93 15h20l93 -15v-17l-77 -72h-52l-77 72v17zM35 100q0 43 36.5 74t88.5 31t88.5 -31t36.5 -74t-36.5 -74t-88.5 -31t-88.5 31t-36.5 74zM265 100q0 33 -27.5 57.5t-67.5 27.5v-170q40 3 67.5 27.5t27.5 57.5
zM55 100q0 -33 27.5 -57.5t67.5 -27.5v170q-40 -3 -67.5 -27.5t-27.5 -57.5z" />
    <glyph glyph-name="uni01D3" unicode="&#x1d3;" 
d="M200 514l-65 -11l57 -53h36l57 53l-65 10v-38h-20v39zM107 519l93 15h20l93 -15v-17l-77 -72h-52l-77 72v17zM290 340h100v-20h-40v-195q0 -54 -45.5 -92t-109.5 -38q-57 0 -101 37t-44 88v200h-40v20h185v-20h-35v-212q0 -29 16 -53.5t42 -37.5q48 7 80 37.5t32 70.5
v195h-40v20zM70 320v-200q0 -41 35 -71.5t82 -33.5q-47 37 -47 93v212h-1h-69z" />
    <glyph glyph-name="uni01D4" unicode="&#x1d4;" horiz-adv-x="412" 
d="M185 384l-65 -11l57 -53h36l57 53l-65 10v-38h-20v39zM92 389l93 15h20l93 -15v-17l-77 -72h-52l-77 72v17zM332 180h-60v-160h60v160zM352 200v-180h50v-20h-150v80q-18 -39 -50 -62t-70 -23q-31 0 -53 22t-22 53v70q0 24 -7 43q-11 2 -23 2v20q29 0 49.5 -7t34.5 -22.5
t20.5 -27.5t15.5 -34l15.5 -35t15.5 -24t20 -16q25 20 39.5 52t14.5 69v20h-40v20h140zM179 27q-26 18 -50 79q-11 29 -23.5 46.5t-33.5 25.5q5 -20 5 -38v-70q0 -23 16 -39t39 -16q25 0 47 12z" />
    <glyph glyph-name="uni01E2" unicode="&#x1e2;" horiz-adv-x="565" 
d="M250 500v-40h140v40h-140zM230 520h180v-80h-180v80zM290 320v-300h60v300h-60zM130 320v20h380v60h20v-170h-20v90h-140v-140h60v50h20v-120h-20v50h-60v-140h140v90h20v-170h-20v60h-300v20h60v140h-149l-81 -140h89v-20h-123l185 320h-61zM214 320l-81 -140h137v140
h-56z" />
    <glyph glyph-name="uni01E3" unicode="&#x1e3;" horiz-adv-x="415" 
d="M133 370v-40h140v40h-140zM113 390h180v-80h-180v80zM147 68l-3 3q-25 24 -57 24q-16 0 -28 -12t-12 -26q0 -17 14.5 -29.5t35.5 -12.5q17 0 33.5 15.5t16.5 34.5v3zM167 77l3 -3l14.5 -14t14.5 -14.5t13.5 -11.5t16 -10.5t15.5 -6t19 -2.5q15 0 30 2q-45 37 -45 93v75
h-81v-108zM90 199q29 6 60 6h118q43 0 74 -22t31 -53q0 -27 -26.5 -46.5t-64.5 -22.5q14 -24 38 -39q31 8 58 25l10 -17q-57 -35 -125 -35q-21 0 -41 10t-29 18.5l-28 27.5q-6 -24 -26 -40t-42 -16q-29 0 -49.5 18t-20.5 44q0 23 17.5 40.5t42.5 17.5q31 0 60 -21v91
q-42 0 -77 -12v97h20v-71zM273 80q34 1 57 15.5t23 34.5q0 23 -25 39t-60 16v-75q0 -15 5 -30z" />
    <glyph glyph-name="Gcaron" unicode="&#x1e6;" horiz-adv-x="370" 
d="M175 514l-65 -11l57 -53h36l57 53l-65 10v-38h-20v39zM82 519l93 15h20l93 -15v-17l-77 -72h-52l-77 72v17zM250 170h110v-20h-40v-190h-20v40h-112q-66 0 -113 50t-47 120q0 72 50.5 123.5t119.5 51.5q53 0 85 -33v108h20v-155h-20q0 18 -14.5 33t-37.5 22
q-26 -14 -42 -38t-16 -53v-208q7 -1 15 -1h112v130h-50v20zM153 25v204q0 58 49 96h-4q-61 0 -105.5 -45.5t-44.5 -109.5q0 -52 29.5 -92t75.5 -53z" />
    <glyph glyph-name="gcaron" unicode="&#x1e7;" horiz-adv-x="345" 
d="M140 384l-65 -11l57 -53h36l57 53l-65 10v-38h-20v39zM47 389l93 15h20l93 -15v-17l-77 -72h-52l-77 72v17zM50 120q0 35 29.5 60t70.5 25q39 0 68 -23q5 46 30 77t57 31q21 0 35.5 -13t14.5 -32t-13 -32t-32 -13t-32 13t-13 32v5q-28 -31 -30 -85q15 -20 15 -45
q0 -31 -22.5 -54t-57.5 -29v-46q62 -19 101 -72t39 -119q0 -62 -44 -106t-106 -44q-60 0 -102.5 39.5t-42.5 95.5h20q0 -47 36.5 -81t88.5 -34q26 0 50 10v207q0 53 -40 82v-29q0 -25 -17.5 -42.5t-42.5 -17.5t-42.5 17.5t-17.5 42.5t17.5 42.5t42.5 17.5q20 0 40 -4v39
q-41 0 -70.5 25t-29.5 60zM150 -24q-20 4 -40 4q-17 0 -28.5 -11.5t-11.5 -28.5t11.5 -28.5t28.5 -11.5t28.5 11.5t11.5 28.5v36zM150 55v130q-33 0 -56.5 -19t-23.5 -46t23.5 -46t56.5 -19zM170 57q26 5 43 23t17 40t-17 39.5t-43 23.5v-126zM285 265v-20q0 -10 7.5 -17.5
t17.5 -7.5t17.5 7.5t7.5 17.5t-9 17.5t-21 7.5q-10 0 -20 -5zM230 -310q28 18 44 47t16 63q0 45 -21 84t-57 64q18 -28 18 -61v-197z" />
    <glyph glyph-name="uni01E8" unicode="&#x1e8;" horiz-adv-x="450" 
d="M210 514l-65 -11l57 -53h36l57 53l-65 10v-38h-20v39zM117 519l93 15h20l93 -15v-17l-77 -72h-52l-77 72v17zM90 20h60v300h-60v-300zM427 20v-20h-7h-71q-37 0 -67 18t-46 51l-19 36t-19.5 27.5t-27.5 24.5v-157h-160v20h60v300h-50v20h150v-159q17 3 37 23l116 116h-56
v20h100q24 0 42 -17l14 -15l-14 -14l-15 15q-11 11 -27 11t-27 -11l-95 -95q27 -11 47 -34.5t38 -58.5q25 -48 48 -74.5t49 -26.5zM229 198l-8 -8q-16 -16 -30 -23q6 -4 11.5 -9t9.5 -9.5t9 -12l7.5 -11t7 -12.5t6 -11.5t6.5 -12.5t6 -11q14 -27 39 -42.5t56 -15.5h27
q-28 23 -64 91q-19 36 -38 58t-45 29z" />
    <glyph glyph-name="uni01E9" unicode="&#x1e9;" horiz-adv-x="432" 
d="M339 20q-25 18 -40 48q-11 22 -21.5 39t-27.5 26l-29 -29l-5 -5q3 -8 16 -32q25 -47 77 -47h30zM10 0v20h60v430h-50v20h150v-375q17 3 37 23l64 64l3 3h-46v20h100q35 0 56 -23l14 -15l-14 -14l-15 15q-17 17 -41 17q-26 0 -43 -17l-21 -21q14 -6 27.5 -25.5t25.5 -44.5
q29 -55 83 -57v-20h-91q-65 0 -95 58q-12 23 -15 28q-14 -9 -29 -11v-75h-160zM90 20h60v430h-60v-430zM250 581l-65 -11l57 -53h36l57 53l-65 10v-38h-20v39zM157 586l93 15h20l93 -15v-17l-77 -72h-52l-77 72v17z" />
    <glyph glyph-name="uni01EA" unicode="&#x1ea;" 
d="M156 -88q-9 -23 -9 -48t16 -43t38 -18q16 0 27 12.5t11 29.5q-28 0 -51 19t-32 48zM190 15v310q-61 -4 -103 -49t-42 -106t42 -106t103 -49zM210 15q61 4 103 49t42 106t-42 106t-103 49v-310zM25 170q0 72 51.5 123.5t123.5 51.5t123.5 -51.5t51.5 -123.5
q0 -61 -37.5 -108.5t-95.5 -61.5q-45 -24 -70 -60q1 -31 20.5 -53t46.5 -22h20v-20q0 -26 -17 -44t-40 -18q-31 0 -53 23.5t-22 57.5q0 77 70 131q-72 1 -122 52t-50 123z" />
    <glyph glyph-name="uni01EB" unicode="&#x1eb;" horiz-adv-x="320" 
d="M122 -85q-9 -23 -9 -48t16 -43t38 -18q16 0 27 12.5t11 29.5q-28 0 -51 19t-32 48zM150 15v170q-40 -3 -67.5 -27.5t-27.5 -57.5t27.5 -57.5t67.5 -27.5zM170 15q40 3 67.5 27.5t27.5 57.5t-27.5 57.5t-67.5 27.5v-170zM35 100q0 43 36.5 74t88.5 31t88.5 -31t36.5 -74
q0 -32 -21.5 -58.5t-56.5 -38.5q-45 -24 -69 -60q1 -31 20.5 -53t46.5 -22h20v-20q0 -26 -17 -44t-40 -18q-31 0 -53 23.5t-22 57.5q0 74 67 128q-52 0 -88.5 31t-36.5 74z" />
    <glyph glyph-name="uni01EC" unicode="&#x1ec;" 
d="M130 465v-40h140v40h-140zM110 485h180v-80h-180v80zM156 -88q-9 -23 -9 -48t16 -43t38 -18q16 0 27 12.5t11 29.5q-28 0 -51 19t-32 48zM190 15v310q-61 -4 -103 -49t-42 -106t42 -106t103 -49zM210 15q61 4 103 49t42 106t-42 106t-103 49v-310zM25 170
q0 72 51.5 123.5t123.5 51.5t123.5 -51.5t51.5 -123.5q0 -61 -37.5 -108.5t-95.5 -61.5q-45 -24 -70 -60q1 -31 20.5 -53t46.5 -22h20v-20q0 -26 -17 -44t-40 -18q-31 0 -53 23.5t-22 57.5q0 77 70 131q-72 1 -122 52t-50 123z" />
    <glyph glyph-name="uni01ED" unicode="&#x1ed;" horiz-adv-x="320" 
d="M90 325v-40h140v40h-140zM70 345h180v-80h-180v80zM122 -85q-9 -23 -9 -48t16 -43t38 -18q16 0 27 12.5t11 29.5q-28 0 -51 19t-32 48zM150 15v170q-40 -3 -67.5 -27.5t-27.5 -57.5t27.5 -57.5t67.5 -27.5zM170 15q40 3 67.5 27.5t27.5 57.5t-27.5 57.5t-67.5 27.5v-170z
M35 100q0 43 36.5 74t88.5 31t88.5 -31t36.5 -74q0 -32 -21.5 -58.5t-56.5 -38.5q-45 -24 -69 -60q1 -31 20.5 -53t46.5 -22h20v-20q0 -26 -17 -44t-40 -18q-31 0 -53 23.5t-22 57.5q0 74 67 128q-52 0 -88.5 31t-36.5 74z" />
    <glyph glyph-name="uni01F0" unicode="&#x1f0;" horiz-adv-x="225" 
d="M105 384l-65 -11l57 -53h36l57 53l-65 10v-38h-20v39zM12 389l93 15h20l93 -15v-17l-77 -72h-52l-77 72v17zM65 180h-50v20h150v-445q0 -43 -33.5 -74t-81.5 -31q-62 0 -115 29l9 17q49 -26 106 -26q8 0 15 1v509zM85 180v-504q27 9 43.5 30.5t16.5 48.5v425h-60z" />
    <glyph glyph-name="uni01F4" unicode="&#x1f4;" horiz-adv-x="370" 
d="M150 430l25 100h120l-110 -100h-35zM169 439h1l78 73h-59zM250 170h110v-20h-40v-190h-20v40h-112q-66 0 -113 50t-47 120q0 72 50.5 123.5t119.5 51.5q53 0 85 -33v108h20v-155h-20q0 18 -14.5 33t-37.5 22q-26 -14 -42 -38t-16 -53v-208q7 -1 15 -1h112v130h-50v20z
M153 25v204q0 58 49 96h-4q-61 0 -105.5 -45.5t-44.5 -109.5q0 -52 29.5 -92t75.5 -53z" />
    <glyph glyph-name="uni01F5" unicode="&#x1f5;" horiz-adv-x="345" 
d="M115 300l25 100h120l-110 -100h-35zM134 309h1l78 73h-59zM50 120q0 35 29.5 60t70.5 25q39 0 68 -23q5 46 30 77t57 31q21 0 35.5 -13t14.5 -32t-13 -32t-32 -13t-32 13t-13 32v5q-28 -31 -30 -85q15 -20 15 -45q0 -31 -22.5 -54t-57.5 -29v-46q62 -19 101 -72t39 -119
q0 -62 -44 -106t-106 -44q-60 0 -102.5 39.5t-42.5 95.5h20q0 -47 36.5 -81t88.5 -34q26 0 50 10v207q0 53 -40 82v-29q0 -25 -17.5 -42.5t-42.5 -17.5t-42.5 17.5t-17.5 42.5t17.5 42.5t42.5 17.5q20 0 40 -4v39q-41 0 -70.5 25t-29.5 60zM150 -24q-20 4 -40 4
q-17 0 -28.5 -11.5t-11.5 -28.5t11.5 -28.5t28.5 -11.5t28.5 11.5t11.5 28.5v36zM150 55v130q-33 0 -56.5 -19t-23.5 -46t23.5 -46t56.5 -19zM170 57q26 5 43 23t17 40t-17 39.5t-43 23.5v-126zM285 265v-20q0 -10 7.5 -17.5t17.5 -7.5t17.5 7.5t7.5 17.5t-9 17.5t-21 7.5
q-10 0 -20 -5zM230 -310q28 18 44 47t16 63q0 45 -21 84t-57 64q18 -28 18 -61v-197z" />
    <glyph glyph-name="uni01F8" unicode="&#x1f8;" horiz-adv-x="410" 
d="M235 430h-35l-110 100h120zM216 439l-20 73h-59l78 -73h1zM90 20h45v-20h-125v20h60v299q-5 1 -10 1h-40v20h40q25 0 48 -9t46 -29.5t38.5 -36.5t40.5 -46l97 -114v215h-60v20h135v-20h-55v-320h-62l-95 112l-33.5 39t-31.5 31t-38 29v-191zM90 233q32 -18 58.5 -43.5
t59.5 -64.5l89 -105h33v54l-112 132q-40 47 -69 73.5t-59 35.5v-82z" />
    <glyph glyph-name="uni01F9" unicode="&#x1f9;" horiz-adv-x="412" 
d="M225 300h-35l-110 100h120zM206 309l-20 73h-59l78 -73h1zM90 20h60v160h-60v-160zM385 15v-20q-29 0 -49.5 7t-34.5 23t-20.5 27.5t-15.5 33.5q-1 3 -5.5 13.5l-6 14t-5.5 11t-6.5 11t-6 9t-8 8.5t-8.5 6q-49 -46 -49 -129v-30h-160v20h60v160h-50v20h150v-83
q17 40 46 64t64 24q31 0 53 -22t22 -53v-70q0 -24 7 -43q10 -2 23 -2zM235 172q6 -4 12 -10.5t9.5 -11.5t8 -14l6.5 -13t6.5 -15t5.5 -14q10 -22 14.5 -31t16 -22t26.5 -19q-5 20 -5 38v70q0 23 -16 39t-39 16q-24 0 -45 -13z" />
    <glyph glyph-name="AEacute" unicode="&#x1fc;" horiz-adv-x="565" 
d="M285 430l25 100h120l-110 -100h-35zM304 439h1l78 73h-59zM290 320v-300h60v300h-60zM130 320v20h380v60h20v-170h-20v90h-140v-140h60v50h20v-120h-20v50h-60v-140h140v90h20v-170h-20v60h-300v20h60v140h-149l-81 -140h89v-20h-123l185 320h-61zM214 320l-81 -140h137
v140h-56z" />
    <glyph glyph-name="aeacute" unicode="&#x1fd;" horiz-adv-x="415" 
d="M168 300l25 100h120l-110 -100h-35zM187 309h1l78 73h-59zM147 68l-3 3q-25 24 -57 24q-16 0 -28 -12t-12 -26q0 -17 14.5 -29.5t35.5 -12.5q17 0 33.5 15.5t16.5 34.5v3zM167 77l3 -3l14.5 -14t14.5 -14.5t13.5 -11.5t16 -10.5t15.5 -6t19 -2.5q15 0 30 2q-45 37 -45 93
v75h-81v-108zM90 199q29 6 60 6h118q43 0 74 -22t31 -53q0 -27 -26.5 -46.5t-64.5 -22.5q14 -24 38 -39q31 8 58 25l10 -17q-57 -35 -125 -35q-21 0 -41 10t-29 18.5l-28 27.5q-6 -24 -26 -40t-42 -16q-29 0 -49.5 18t-20.5 44q0 23 17.5 40.5t42.5 17.5q31 0 60 -21v91
q-42 0 -77 -12v97h20v-71zM273 80q34 1 57 15.5t23 34.5q0 23 -25 39t-60 16v-75q0 -15 5 -30z" />
    <glyph glyph-name="Oslashacute" unicode="&#x1fe;" 
d="M165 430l25 100h120l-110 -100h-35zM184 439h1l78 73h-59zM25 170q0 72 51.5 123.5t123.5 51.5q53 0 97 -29l45 60l16 -12l-45 -60q62 -53 62 -134q0 -72 -51.5 -123.5t-123.5 -51.5q-53 0 -97 29l-45 -60l-16 12l45 60q-62 53 -62 134zM99 52l186 248q-39 25 -85 25
q-64 0 -109.5 -45.5t-45.5 -109.5q0 -72 54 -118zM115 40q39 -25 85 -25q64 0 109.5 45.5t45.5 109.5q0 71 -54 118z" />
    <glyph glyph-name="oslashacute" unicode="&#x1ff;" horiz-adv-x="320" 
d="M125 300l25 100h120l-110 -100h-35zM144 309h1l78 73h-59zM35 100q0 43 36.5 74t88.5 31q34 0 63 -15l39 46l16 -12l-37 -44q44 -31 44 -80q0 -43 -36.5 -74t-88.5 -31q-34 0 -63 15l-39 -46l-16 12l37 44q-44 31 -44 80zM92 35l118 140q-23 10 -50 10q-43 0 -74 -25
t-31 -60q0 -40 37 -65zM110 25q23 -10 50 -10q43 0 74 25t31 60q0 39 -37 65z" />
    <glyph glyph-name="uni0200" unicode="&#x200;" horiz-adv-x="425" 
d="M165 430h-35l-110 100h120zM146 439l-20 73h-59l78 -73h1zM315 430h-35l-110 100h120zM296 439l-20 73h-59l78 -73h1zM159 325l198 -343q18 18 18 55q0 45 -27 91l-100 172q-14 25 -33 25h-56zM136 325h-31v20h110q30 0 51 -35l100 -172q29 -50 29 -101q0 -53 -35 -78
l-9 -6l-73 127h-203l-35 -60h89v-20h-123l159 275zM176 255l-90 -155h180z" />
    <glyph glyph-name="uni0201" unicode="&#x201;" horiz-adv-x="315" 
d="M130 300h-35l-110 100h120zM111 309l-20 73h-59l78 -73h1zM280 300h-35l-110 100h120zM261 309l-20 73h-59l78 -73h1zM47 57q0 -17 14.5 -29.5t35.5 -12.5q16 0 28 14.5t12 35.5v10q-26 15 -50 15q-17 0 -28.5 -10t-11.5 -23zM157 185v-99q12 -8 39.5 -30.5t43.5 -30.5
q-5 11 -5 22v73q0 25 -22.5 44t-55.5 21zM27 57q0 23 18 38t42 15q25 0 50 -12v87q-36 -2 -67 -12v97h20v-73q30 8 60 8q43 0 74 -25t31 -60v-73q0 -14 8 -23t19 -9q10 0 21 2l4 -19q-13 -3 -25 -3q-19 0 -38.5 7.5t-29.5 14.5t-31 24t-26 20q-1 -29 -18 -47.5t-42 -18.5
q-29 0 -49.5 18t-20.5 44z" />
    <glyph glyph-name="uni0202" unicode="&#x202;" horiz-adv-x="425" 
d="M195 445q-61 0 -113 -23l-15 16q55 94 128 94t128 -94l-15 -16q-52 23 -113 23zM195 465q52 0 96 -15q-43 62 -96 62q-51 0 -96 -62q48 15 96 15zM159 325l198 -343q18 18 18 55q0 45 -27 91l-100 172q-14 25 -33 25h-56zM136 325h-31v20h110q30 0 51 -35l100 -172
q29 -50 29 -101q0 -53 -35 -78l-9 -6l-73 127h-203l-35 -60h89v-20h-123l159 275zM176 255l-90 -155h180z" />
    <glyph glyph-name="uni0203" unicode="&#x203;" horiz-adv-x="315" 
d="M160 315q-61 0 -113 -23l-15 16q55 94 128 94t128 -94l-15 -16q-52 23 -113 23zM160 335q52 0 96 -15q-43 62 -96 62q-51 0 -96 -62q48 15 96 15zM47 57q0 -17 14.5 -29.5t35.5 -12.5q16 0 28 14.5t12 35.5v10q-26 15 -50 15q-17 0 -28.5 -10t-11.5 -23zM157 185v-99
q12 -8 39.5 -30.5t43.5 -30.5q-5 11 -5 22v73q0 25 -22.5 44t-55.5 21zM27 57q0 23 18 38t42 15q25 0 50 -12v87q-36 -2 -67 -12v97h20v-73q30 8 60 8q43 0 74 -25t31 -60v-73q0 -14 8 -23t19 -9q10 0 21 2l4 -19q-13 -3 -25 -3q-19 0 -38.5 7.5t-29.5 14.5t-31 24t-26 20
q-1 -29 -18 -47.5t-42 -18.5q-29 0 -49.5 18t-20.5 44z" />
    <glyph glyph-name="uni0204" unicode="&#x204;" horiz-adv-x="365" 
d="M145 430h-35l-110 100h120zM126 439l-20 73h-59l78 -73h1zM295 430h-35l-110 100h120zM276 439l-20 73h-59l78 -73h1zM10 320v20h300v60h20v-170h-20v90h-140v-140h60v50h20v-120h-20v50h-60v-140h140v90h20v-170h-20v60h-300v20h60v300h-60zM90 320v-300h60v300h-60z
" />
    <glyph glyph-name="uni0205" unicode="&#x205;" horiz-adv-x="305" 
d="M123 300h-35l-110 100h120zM104 309l-20 73h-59l78 -73h1zM273 300h-35l-110 100h120zM254 309l-20 73h-59l78 -73h1zM58 100q0 -35 28 -60t67 -25q15 0 30 2q-45 37 -45 93v73q-35 -6 -57.5 -29t-22.5 -54zM38 100q0 43 35 74t85 31q43 0 74 -22t31 -53
q0 -27 -26.5 -46.5t-64.5 -22.5q14 -24 38 -39q31 8 58 25l10 -17q-57 -35 -125 -35q-48 0 -81.5 31t-33.5 74zM163 80q34 1 57 15.5t23 34.5q0 23 -25 39t-60 16v-75q0 -15 5 -30z" />
    <glyph glyph-name="uni0206" unicode="&#x206;" horiz-adv-x="365" 
d="M175 445q-61 0 -113 -23l-15 16q55 94 128 94t128 -94l-15 -16q-52 23 -113 23zM175 465q52 0 96 -15q-43 62 -96 62q-51 0 -96 -62q48 15 96 15zM10 320v20h300v60h20v-170h-20v90h-140v-140h60v50h20v-120h-20v50h-60v-140h140v90h20v-170h-20v60h-300v20h60v300h-60z
M90 320v-300h60v300h-60z" />
    <glyph glyph-name="uni0207" unicode="&#x207;" horiz-adv-x="305" 
d="M153 315q-61 0 -113 -23l-15 16q55 94 128 94t128 -94l-15 -16q-52 23 -113 23zM153 335q52 0 96 -15q-43 62 -96 62q-51 0 -96 -62q48 15 96 15zM58 100q0 -35 28 -60t67 -25q15 0 30 2q-45 37 -45 93v73q-35 -6 -57.5 -29t-22.5 -54zM38 100q0 43 35 74t85 31
q43 0 74 -22t31 -53q0 -27 -26.5 -46.5t-64.5 -22.5q14 -24 38 -39q31 8 58 25l10 -17q-57 -35 -125 -35q-48 0 -81.5 31t-33.5 74zM163 80q34 1 57 15.5t23 34.5q0 23 -25 39t-60 16v-75q0 -15 5 -30z" />
    <glyph glyph-name="uni0208" unicode="&#x208;" horiz-adv-x="240" 
d="M90 430h-35l-110 100h120zM71 439l-20 73h-59l78 -73h1zM240 430h-35l-110 100h120zM221 439l-20 73h-59l78 -73h1zM10 340h220v-20h-60v-300h60v-20h-220v20h60v300h-60v20zM150 20v300h-60v-300h60z" />
    <glyph glyph-name="uni0209" unicode="&#x209;" horiz-adv-x="235" 
d="M90 300h-35l-110 100h120zM71 309l-20 73h-59l78 -73h1zM240 300h-35l-110 100h120zM221 309l-20 73h-59l78 -73h1zM90 20h60v160h-60v-160zM10 0v20h60v160h-50v20h150v-180h60v-20h-220z" />
    <glyph glyph-name="uni020A" unicode="&#x20a;" horiz-adv-x="240" 
d="M120 445q-61 0 -113 -23l-15 16q55 94 128 94t128 -94l-15 -16q-52 23 -113 23zM120 465q52 0 96 -15q-43 62 -96 62q-51 0 -96 -62q48 15 96 15zM10 340h220v-20h-60v-300h60v-20h-220v20h60v300h-60v20zM150 20v300h-60v-300h60z" />
    <glyph glyph-name="uni020B" unicode="&#x20b;" horiz-adv-x="235" 
d="M120 315q-61 0 -113 -23l-15 16q55 94 128 94t128 -94l-15 -16q-52 23 -113 23zM120 335q52 0 96 -15q-43 62 -96 62q-51 0 -96 -62q48 15 96 15zM90 20h60v160h-60v-160zM10 0v20h60v160h-50v20h150v-180h60v-20h-220z" />
    <glyph glyph-name="uni020C" unicode="&#x20c;" 
d="M170 430h-35l-110 100h120zM151 439l-20 73h-59l78 -73h1zM320 430h-35l-110 100h120zM301 439l-20 73h-59l78 -73h1zM25 170q0 72 51.5 123.5t123.5 51.5t123.5 -51.5t51.5 -123.5t-51.5 -123.5t-123.5 -51.5t-123.5 51.5t-51.5 123.5zM355 170q0 61 -42 106t-103 49
v-310q61 4 103 49t42 106zM45 170q0 -61 42 -106t103 -49v310q-61 -4 -103 -49t-42 -106z" />
    <glyph glyph-name="uni020D" unicode="&#x20d;" horiz-adv-x="320" 
d="M130 300h-35l-110 100h120zM111 309l-20 73h-59l78 -73h1zM280 300h-35l-110 100h120zM261 309l-20 73h-59l78 -73h1zM35 100q0 43 36.5 74t88.5 31t88.5 -31t36.5 -74t-36.5 -74t-88.5 -31t-88.5 31t-36.5 74zM265 100q0 33 -27.5 57.5t-67.5 27.5v-170q40 3 67.5 27.5
t27.5 57.5zM55 100q0 -33 27.5 -57.5t67.5 -27.5v170q-40 -3 -67.5 -27.5t-27.5 -57.5z" />
    <glyph glyph-name="uni020E" unicode="&#x20e;" 
d="M200 445q-61 0 -113 -23l-15 16q55 94 128 94t128 -94l-15 -16q-52 23 -113 23zM200 465q52 0 96 -15q-43 62 -96 62q-51 0 -96 -62q48 15 96 15zM25 170q0 72 51.5 123.5t123.5 51.5t123.5 -51.5t51.5 -123.5t-51.5 -123.5t-123.5 -51.5t-123.5 51.5t-51.5 123.5z
M355 170q0 61 -42 106t-103 49v-310q61 4 103 49t42 106zM45 170q0 -61 42 -106t103 -49v310q-61 -4 -103 -49t-42 -106z" />
    <glyph glyph-name="uni020F" unicode="&#x20f;" horiz-adv-x="320" 
d="M160 315q-61 0 -113 -23l-15 16q55 94 128 94t128 -94l-15 -16q-52 23 -113 23zM160 335q52 0 96 -15q-43 62 -96 62q-51 0 -96 -62q48 15 96 15zM35 100q0 43 36.5 74t88.5 31t88.5 -31t36.5 -74t-36.5 -74t-88.5 -31t-88.5 31t-36.5 74zM265 100q0 33 -27.5 57.5
t-67.5 27.5v-170q40 3 67.5 27.5t27.5 57.5zM55 100q0 -33 27.5 -57.5t67.5 -27.5v170q-40 -3 -67.5 -27.5t-27.5 -57.5z" />
    <glyph glyph-name="uni0210" unicode="&#x210;" horiz-adv-x="415" 
d="M160 430h-35l-110 100h120zM141 439l-20 73h-59l78 -73h1zM310 430h-35l-110 100h120zM291 439l-20 73h-59l78 -73h1zM90 20h60v300h-60v-300zM405 0h-67q-59 0 -101 35t-42 85q0 21 13 35.5t32 14.5q43 0 74 22t31 53t-31 53t-74 22h-70v-320h-100h-60v20h60v300h-50v20
h220q52 0 88.5 -28t36.5 -67q0 -31 -23.5 -55.5t-61.5 -34.5q18 -13 45 -59q12 -20 19 -30.5t19.5 -23t25.5 -17.5q10 -4 16 -5v-20zM240 150q-10 0 -17.5 -9t-7.5 -21q0 -41 36 -70.5t87 -29.5h19q-29 22 -60 75q-11 19 -17 28.5t-17 18t-23 8.5z" />
    <glyph glyph-name="uni0211" unicode="&#x211;" horiz-adv-x="345" 
d="M160 300h-35l-110 100h120zM141 309l-20 73h-59l78 -73h1zM310 300h-35l-110 100h120zM291 309l-20 73h-59l78 -73h1zM10 0v20h60v160h-50v20h150v-80q18 45 48.5 72.5t66.5 27.5q21 0 35.5 -14.5t14.5 -35.5t-14.5 -35.5t-35.5 -14.5q-36 0 -74 37q-41 -54 -41 -137h60
v-20h-220zM90 20h62l-2 160h-60v-160zM224 172q33 -32 61 -32q12 0 21 9t9 21t-9 21t-21 9q-33 0 -61 -28z" />
    <glyph glyph-name="uni0212" unicode="&#x212;" horiz-adv-x="415" 
d="M190 445q-61 0 -113 -23l-15 16q55 94 128 94t128 -94l-15 -16q-52 23 -113 23zM190 465q52 0 96 -15q-43 62 -96 62q-51 0 -96 -62q48 15 96 15zM90 20h60v300h-60v-300zM405 0h-67q-59 0 -101 35t-42 85q0 21 13 35.5t32 14.5q43 0 74 22t31 53t-31 53t-74 22h-70v-320
h-100h-60v20h60v300h-50v20h220q52 0 88.5 -28t36.5 -67q0 -31 -23.5 -55.5t-61.5 -34.5q18 -13 45 -59q12 -20 19 -30.5t19.5 -23t25.5 -17.5q10 -4 16 -5v-20zM240 150q-10 0 -17.5 -9t-7.5 -21q0 -41 36 -70.5t87 -29.5h19q-29 22 -60 75q-11 19 -17 28.5t-17 18t-23 8.5
z" />
    <glyph glyph-name="uni0213" unicode="&#x213;" horiz-adv-x="345" 
d="M190 315q-61 0 -113 -23l-15 16q55 94 128 94t128 -94l-15 -16q-52 23 -113 23zM190 335q52 0 96 -15q-43 62 -96 62q-51 0 -96 -62q48 15 96 15zM10 0v20h60v160h-50v20h150v-80q18 45 48.5 72.5t66.5 27.5q21 0 35.5 -14.5t14.5 -35.5t-14.5 -35.5t-35.5 -14.5
q-36 0 -74 37q-41 -54 -41 -137h60v-20h-220zM90 20h62l-2 160h-60v-160zM224 172q33 -32 61 -32q12 0 21 9t9 21t-9 21t-21 9q-33 0 -61 -28z" />
    <glyph glyph-name="uni0214" unicode="&#x214;" 
d="M180 430h-35l-110 100h120zM161 439l-20 73h-59l78 -73h1zM330 430h-35l-110 100h120zM311 439l-20 73h-59l78 -73h1zM290 340h100v-20h-40v-195q0 -54 -45.5 -92t-109.5 -38q-57 0 -101 37t-44 88v200h-40v20h185v-20h-35v-212q0 -29 16 -53.5t42 -37.5q48 7 80 37.5
t32 70.5v195h-40v20zM70 320v-200q0 -41 35 -71.5t82 -33.5q-47 37 -47 93v212h-1h-69z" />
    <glyph glyph-name="uni0215" unicode="&#x215;" horiz-adv-x="412" 
d="M165 300h-35l-110 100h120zM146 309l-20 73h-59l78 -73h1zM315 300h-35l-110 100h120zM296 309l-20 73h-59l78 -73h1zM332 180h-60v-160h60v160zM352 200v-180h50v-20h-150v80q-18 -39 -50 -62t-70 -23q-31 0 -53 22t-22 53v70q0 24 -7 43q-11 2 -23 2v20q29 0 49.5 -7
t34.5 -22.5t20.5 -27.5t15.5 -34l15.5 -35t15.5 -24t20 -16q25 20 39.5 52t14.5 69v20h-40v20h140zM179 27q-26 18 -50 79q-11 29 -23.5 46.5t-33.5 25.5q5 -20 5 -38v-70q0 -23 16 -39t39 -16q25 0 47 12z" />
    <glyph glyph-name="uni0216" unicode="&#x216;" 
d="M210 445q-61 0 -113 -23l-15 16q55 94 128 94t128 -94l-15 -16q-52 23 -113 23zM210 465q52 0 96 -15q-43 62 -96 62q-51 0 -96 -62q48 15 96 15zM290 340h100v-20h-40v-195q0 -54 -45.5 -92t-109.5 -38q-57 0 -101 37t-44 88v200h-40v20h185v-20h-35v-212
q0 -29 16 -53.5t42 -37.5q48 7 80 37.5t32 70.5v195h-40v20zM70 320v-200q0 -41 35 -71.5t82 -33.5q-47 37 -47 93v212h-1h-69z" />
    <glyph glyph-name="uni0217" unicode="&#x217;" horiz-adv-x="412" 
d="M195 315q-61 0 -113 -23l-15 16q55 94 128 94t128 -94l-15 -16q-52 23 -113 23zM195 335q52 0 96 -15q-43 62 -96 62q-51 0 -96 -62q48 15 96 15zM332 180h-60v-160h60v160zM352 200v-180h50v-20h-150v80q-18 -39 -50 -62t-70 -23q-31 0 -53 22t-22 53v70q0 24 -7 43
q-11 2 -23 2v20q29 0 49.5 -7t34.5 -22.5t20.5 -27.5t15.5 -34l15.5 -35t15.5 -24t20 -16q25 20 39.5 52t14.5 69v20h-40v20h140zM179 27q-26 18 -50 79q-11 29 -23.5 46.5t-33.5 25.5q5 -20 5 -38v-70q0 -23 16 -39t39 -16q25 0 47 12z" />
    <glyph glyph-name="Scommaaccent" unicode="&#x218;" horiz-adv-x="305" 
d="M188 -174h-33q-21 0 -35.5 14.5t-14.5 35.5t14.5 35.5t35.5 14.5q25 0 42.5 -19t17.5 -45q0 -16 -4 -31q-9 -35 -34 -58t-58 -23v20q24 0 42 15t27 41zM194 -154q1 6 1 16q0 19 -12 31.5t-28 12.5q-12 0 -21 -8.5t-9 -21t9 -21.5t21 -9h39zM55 27q35 -12 80 -12h10v15
q0 53 -50 94q-60 50 -60 110q0 46 39.5 78.5t95.5 32.5q32 0 60 -6v71h20v-97q-34 12 -80 12h-10v-15q0 -53 50 -94q60 -50 60 -110q0 -46 -39.5 -78.5t-95.5 -32.5q-32 0 -60 6v-71h-20v97zM140 322q-37 -8 -61 -32.5t-24 -55.5q0 -50 52 -94q58 -48 58 -110v-12
q37 8 61 32.5t24 55.5q0 50 -52 94q-58 48 -58 110v12z" />
    <glyph glyph-name="scommaaccent" unicode="&#x219;" horiz-adv-x="260" 
d="M163 -174h-33q-21 0 -35.5 14.5t-14.5 35.5t14.5 35.5t35.5 14.5q25 0 42.5 -19t17.5 -45q0 -16 -4 -31q-9 -35 -34 -58t-58 -23v20q24 0 42 15t27 41zM169 -154q1 6 1 16q0 19 -12 31.5t-28 12.5q-12 0 -21 -8.5t-9 -21t9 -21.5t21 -9h39zM45 27q27 -9 60 -11
q-3 25 -29 46q-36 30 -36 68q0 31 28 53t67 22q31 0 60 -6v71h20v-97q-27 9 -60 11q3 -25 29 -46q36 -30 36 -68q0 -31 -28 -53t-67 -22q-31 0 -60 6v-71h-20v97zM135 185q-31 0 -53 -16t-22 -39q0 -28 29 -52q33 -28 36 -63q31 0 53 16t22 39q0 28 -29 52q-33 28 -36 63z
" />
    <glyph glyph-name="uni021A" unicode="&#x21a;" 
d="M233 -174h-33q-21 0 -35.5 14.5t-14.5 35.5t14.5 35.5t35.5 14.5q25 0 42.5 -19t17.5 -45q0 -16 -4 -31q-9 -35 -34 -58t-58 -23v20q24 0 42 15t27 41zM239 -154q1 6 1 16q0 19 -12 31.5t-28 12.5q-12 0 -21 -8.5t-9 -21t9 -21.5t21 -9h39zM90 0v20h55v300h-100v-110h-20
v190h20v-60h310v60h20v-190h-20v110h-100v-300h55v-20h-220zM165 20h70v300h-70v-300z" />
    <glyph glyph-name="uni021B" unicode="&#x21b;" horiz-adv-x="299" 
d="M188 -174h-33q-21 0 -35.5 14.5t-14.5 35.5t14.5 35.5t35.5 14.5q25 0 42.5 -19t17.5 -45q0 -16 -4 -31q-9 -35 -34 -58t-58 -23v20q24 0 42 15t27 41zM194 -154q1 6 1 16q0 19 -12 31.5t-28 12.5q-12 0 -21 -8.5t-9 -21t9 -21.5t21 -9h39zM243 52l14 -14
q-43 -43 -102 -43q-33 0 -56.5 23.5t-23.5 56.5v105h-50v20h55q31 0 53 22t22 53v45h20v-120h60v70h20v-130h-20v40h-60v-95q0 -20 14 -34.5t34 -15.5q11 7 20 17zM197 22q-42 17 -42 63v134q-22 -32 -60 -38v-106q0 -25 17.5 -42.5t42.5 -17.5q24 0 42 7z" />
    <glyph glyph-name="uni021E" unicode="&#x21e;" horiz-adv-x="440" 
d="M210 489l-65 -11l57 -53h36l57 53l-65 10v-38h-20v39zM117 494l93 15h20l93 -15v-17l-77 -72h-52l-77 72v17zM90 20h60v300h-60v-300zM350 320h-60v-300h60v300zM10 0v20h60v300h-60v20h160v-180h100v180h160v-20h-60v-300h60v-20h-160v140h-100v-140h-160z" />
    <glyph glyph-name="uni021F" unicode="&#x21f;" horiz-adv-x="412" 
d="M250 580l-65 -11l57 -53h36l57 53l-65 10v-38h-20v39zM157 585l93 15h20l93 -15v-17l-77 -72h-52l-77 72v17zM90 20h60v430h-60v-430zM10 0v20h60v430h-50v20h150v-353q17 40 46 64t64 24q31 0 53 -22t22 -53v-70q0 -24 7 -43q11 -2 23 -2v-20q-29 0 -49.5 7t-34.5 23
t-20.5 27.5t-15.5 33.5q-1 3 -5.5 13.5l-6 14t-5.5 11t-6.5 11t-6 9t-8 8.5t-8.5 6q-49 -46 -49 -129v-10h40v-20h-200zM235 172q6 -4 12 -10.5t9.5 -11.5t8 -14l6.5 -13t6.5 -15t5.5 -14q10 -22 14.5 -31t16 -22t26.5 -19q-5 20 -5 38v70q0 23 -16 39t-39 16q-24 0 -45 -13
z" />
    <glyph glyph-name="uni0226" unicode="&#x226;" horiz-adv-x="425" 
d="M165 480q0 -12 9 -21t21 -9t21 9t9 21t-9 21t-21 9t-21 -9t-9 -21zM145 480q0 21 14.5 35.5t35.5 14.5t35.5 -14.5t14.5 -35.5t-14.5 -35.5t-35.5 -14.5t-35.5 14.5t-14.5 35.5zM159 325l198 -343q18 18 18 55q0 45 -27 91l-100 172q-14 25 -33 25h-56zM136 325h-31v20
h110q30 0 51 -35l100 -172q29 -50 29 -101q0 -53 -35 -78l-9 -6l-73 127h-203l-35 -60h89v-20h-123l159 275zM176 255l-90 -155h180z" />
    <glyph glyph-name="uni0227" unicode="&#x227;" horiz-adv-x="315" 
d="M130 350q0 -12 9 -21t21 -9t21 9t9 21t-9 21t-21 9t-21 -9t-9 -21zM110 350q0 21 14.5 35.5t35.5 14.5t35.5 -14.5t14.5 -35.5t-14.5 -35.5t-35.5 -14.5t-35.5 14.5t-14.5 35.5zM47 57q0 -17 14.5 -29.5t35.5 -12.5q16 0 28 14.5t12 35.5v10q-26 15 -50 15
q-17 0 -28.5 -10t-11.5 -23zM157 185v-99q12 -8 39.5 -30.5t43.5 -30.5q-5 11 -5 22v73q0 25 -22.5 44t-55.5 21zM27 57q0 23 18 38t42 15q25 0 50 -12v87q-36 -2 -67 -12v97h20v-73q30 8 60 8q43 0 74 -25t31 -60v-73q0 -14 8 -23t19 -9q10 0 21 2l4 -19q-13 -3 -25 -3
q-19 0 -38.5 7.5t-29.5 14.5t-31 24t-26 20q-1 -29 -18 -47.5t-42 -18.5q-29 0 -49.5 18t-20.5 44z" />
    <glyph glyph-name="uni0228" unicode="&#x228;" horiz-adv-x="365" 
d="M232 -139q-23 -43 -65 -43h-49q-1 -3 -1 -6q0 -18 14.5 -31.5t35.5 -13.5q29 0 49.5 20.5t20.5 48.5q0 13 -5 25zM220 -118q-25 29 -66 29h-13l24 89h-155v20h60v300h-60v20h300v60h20v-170h-20v90h-140v-140h60v50h20v-120h-20v50h-60v-140h140v90h20v-170h-20v60h-124
l-19 -70q52 -6 77 -48q13 -21 13 -46q0 -37 -26.5 -63t-63.5 -26q-29 0 -49.5 19t-20.5 46q0 10 4 20l2 6h64q17 0 31.5 12t21.5 32zM90 320v-300h60v300h-60z" />
    <glyph glyph-name="uni0229" unicode="&#x229;" horiz-adv-x="305" 
d="M203 -139q-23 -43 -65 -43h-49q-1 -3 -1 -6q0 -18 14.5 -31.5t35.5 -13.5q29 0 49.5 20.5t20.5 48.5q0 13 -5 25zM38 100q0 43 35 74t85 31q43 0 74 -22t31 -53q0 -27 -26.5 -46.5t-64.5 -22.5q14 -24 38 -39q31 8 58 25l10 -17q-56 -34 -123 -35l-17 -65q52 -6 77 -48
q13 -21 13 -46q0 -37 -26.5 -63t-63.5 -26q-29 0 -49.5 19t-20.5 46q0 10 4 20l2 6h64q17 0 31.5 12t21.5 32q-25 29 -66 29h-13l23 85q-41 6 -69 35.5t-28 68.5zM163 80q34 1 57 15.5t23 34.5q0 23 -25 39t-60 16v-75q0 -15 5 -30zM58 100q0 -35 28 -60t67 -25q15 0 30 2
q-45 37 -45 93v73q-35 -6 -57.5 -29t-22.5 -54z" />
    <glyph glyph-name="uni022E" unicode="&#x22e;" 
d="M170 480q0 -12 9 -21t21 -9t21 9t9 21t-9 21t-21 9t-21 -9t-9 -21zM150 480q0 21 14.5 35.5t35.5 14.5t35.5 -14.5t14.5 -35.5t-14.5 -35.5t-35.5 -14.5t-35.5 14.5t-14.5 35.5zM25 170q0 72 51.5 123.5t123.5 51.5t123.5 -51.5t51.5 -123.5t-51.5 -123.5t-123.5 -51.5
t-123.5 51.5t-51.5 123.5zM355 170q0 61 -42 106t-103 49v-310q61 4 103 49t42 106zM45 170q0 -61 42 -106t103 -49v310q-61 -4 -103 -49t-42 -106z" />
    <glyph glyph-name="uni022F" unicode="&#x22f;" horiz-adv-x="320" 
d="M130 350q0 -12 9 -21t21 -9t21 9t9 21t-9 21t-21 9t-21 -9t-9 -21zM110 350q0 21 14.5 35.5t35.5 14.5t35.5 -14.5t14.5 -35.5t-14.5 -35.5t-35.5 -14.5t-35.5 14.5t-14.5 35.5zM35 100q0 43 36.5 74t88.5 31t88.5 -31t36.5 -74t-36.5 -74t-88.5 -31t-88.5 31t-36.5 74z
M265 100q0 33 -27.5 57.5t-67.5 27.5v-170q40 3 67.5 27.5t27.5 57.5zM55 100q0 -33 27.5 -57.5t67.5 -27.5v170q-40 -3 -67.5 -27.5t-27.5 -57.5z" />
    <glyph glyph-name="uni0232" unicode="&#x232;" horiz-adv-x="395" 
d="M145 500v-40h140v40h-140zM125 520h180v-80h-180v80zM251 198l97 111q7 8 7 17q0 8 -5.5 13.5t-13.5 5.5h-34v20h34q16 0 27.5 -11.5t11.5 -27.5t-14 -32l-101 -115v-159h60v-20h-220v20h55v126l-125 174h-25v20h144zM240 179l-102 141h-83l120 -167v-133h65v159z" />
    <glyph glyph-name="uni0233" unicode="&#x233;" horiz-adv-x="345" 
d="M120 370v-40h140v40h-140zM100 390h180v-80h-180v80zM166 9l-155 155l17 18q24 24 57 24t57 -24l28 -28q39 -39 45 -96l78 78q11 11 11 25q0 12 -8.5 20.5t-24.5 8.5h-27v20h27q24 0 38.5 -14.5t14.5 -34.5q0 -22 -17 -39l-142 -142q-39 -39 -39 -90v-212q22 -8 46 -8
q57 0 98.5 41.5t41.5 98.5t-42 98l14 14q48 -48 48 -112.5t-47.5 -112t-112.5 -47.5t-111 47.5t-46 112.5q0 48 54 102zM180 23l16 16q0 60 -40 100l-28 29q-18 18 -43 18t-42 -19l-4 -3zM106 -312v202q0 18 5 36l-28 -28q-48 -48 -48 -88q0 -38 19.5 -71t51.5 -51z" />
    <glyph glyph-name="uni0237" unicode="&#x237;" horiz-adv-x="225" 
d="M65 180h-50v20h150v-445q0 -43 -33.5 -74t-81.5 -31q-62 0 -115 29l9 17q49 -26 106 -26q8 0 15 1v509zM85 180v-504q27 9 43.5 30.5t16.5 48.5v425h-60z" />
    <glyph glyph-name="ogonek" unicode="&#x2db;" horiz-adv-x="200" 
d="M20 -137q0 48 28.5 88t76.5 66q1 -1 3 -5l2 -4q3 -5 5 -9q-45 -24 -70 -60q1 -31 20 -53t47 -22h20v-20q0 -26 -17 -44t-41 -18q-31 0 -52.5 23.5t-21.5 57.5zM49 -89q-9 -23 -9 -48t16 -43t38 -18q16 0 27 12.5t11 29.5q-28 0 -51 19t-32 48z" />
    <glyph glyph-name="gravecomb" unicode="&#x300;" horiz-adv-x="0" 
d="M35 300h-35l-110 100h120zM16 309l-20 73h-59l78 -73h1z" />
    <glyph glyph-name="acutecomb" unicode="&#x301;" horiz-adv-x="0" 
d="M-35 300l25 100h120l-110 -100h-35zM-16 309h1l78 73h-59z" />
    <glyph glyph-name="uni0302" unicode="&#x302;" horiz-adv-x="0" 
d="M10 316l65 11l-57 53h-36l-57 -53l65 -10v38h20v-39zM103 311l-93 -15h-20l-93 15v17l77 72h52l77 -72v-17z" />
    <glyph glyph-name="tildecomb" unicode="&#x303;" horiz-adv-x="0" 
d="M109 357q0 -26 -16 -45t-37 -19q-19 0 -56 15q-35 14 -52 15q-16 0 -36 -16l-12 -10l-4 15q-4 15 -4 26q0 26 16 45t37 19q19 0 56 -15q35 -14 52 -15q16 0 36 16l12 10l4 -15q4 -15 4 -26zM89 356q0 4 -1 7q-18 -11 -35 -11q-22 0 -60 16q-33 14 -48 14
q-13 0 -22.5 -12.5t-10.5 -30.5q0 -5 1 -7q18 11 35 11q22 0 60 -16q33 -14 48 -14q14 0 23.5 12.5t9.5 30.5z" />
    <glyph glyph-name="uni0304" unicode="&#x304;" horiz-adv-x="0" 
d="M-70 370v-40h140v40h-140zM-90 390h180v-80h-180v80z" />
    <glyph glyph-name="uni0305" unicode="&#x305;" horiz-adv-x="0" 
d="M-90 370v-40h180v40h-180zM-110 390h220v-80h-220v80z" />
    <glyph glyph-name="uni0306" unicode="&#x306;" horiz-adv-x="0" 
d="M0 384q62 0 113 23l15 -16q-55 -94 -128 -94t-128 94l15 16q51 -23 113 -23zM-0.5 364q-51.5 0 -95.5 15q44 -62 96.5 -62t95.5 62q-45 -15 -96.5 -15z" />
    <glyph glyph-name="uni0307" unicode="&#x307;" horiz-adv-x="0" 
d="M-30 350q0 -12 9 -21t21 -9t21 9t9 21t-9 21t-21 9t-21 -9t-9 -21zM-50 350q0 21 14.5 35.5t35.5 14.5t35.5 -14.5t14.5 -35.5t-14.5 -35.5t-35.5 -14.5t-35.5 14.5t-14.5 35.5z" />
    <glyph glyph-name="uni0308" unicode="&#x308;" horiz-adv-x="0" 
d="M20 350q0 17 11.5 28.5t28.5 11.5t28.5 -11.5t11.5 -28.5t-11.5 -28.5t-28.5 -11.5t-28.5 11.5t-11.5 28.5zM40 350q0 -8 6 -14t14 -6t14 6t6 14t-6 14t-14 6t-14 -6t-6 -14zM-100 350q0 17 11.5 28.5t28.5 11.5t28.5 -11.5t11.5 -28.5t-11.5 -28.5t-28.5 -11.5
t-28.5 11.5t-11.5 28.5zM-80 350q0 -8 6 -14t14 -6t14 6t6 14t-6 14t-14 6t-14 -6t-6 -14z" />
    <glyph glyph-name="uni030A" unicode="&#x30a;" horiz-adv-x="0" 
d="M-50 350q0 -21 14.5 -35.5t35.5 -14.5t35.5 14.5t14.5 35.5t-14.5 35.5t-35.5 14.5t-35.5 -14.5t-14.5 -35.5zM-70 350q0 29 20.5 49.5t49.5 20.5t49.5 -20.5t20.5 -49.5t-20.5 -49.5t-49.5 -20.5t-49.5 20.5t-20.5 49.5z" />
    <glyph glyph-name="uni030B" unicode="&#x30b;" horiz-adv-x="0" 
d="M30 300l25 100h120l-110 -100h-35zM49 309h1l78 73h-59zM-120 300l25 100h120l-110 -100h-35zM-101 309h1l78 73h-59z" />
    <glyph glyph-name="uni030C" unicode="&#x30c;" horiz-adv-x="0" 
d="M-10 384l-65 -11l57 -53h36l57 53l-65 10v-38h-20v39zM-103 389l93 15h20l93 -15v-17l-77 -72h-52l-77 72v17z" />
    <glyph glyph-name="uni030D" unicode="&#x30d;" horiz-adv-x="0" 
d="M-20 410v-100h40v100h-40zM-40 430h80v-140h-80v140z" />
    <glyph glyph-name="uni030E" unicode="&#x30e;" horiz-adv-x="0" 
d="M50 410v-100h40v100h-40zM30 430h80v-140h-80v140zM-90 410v-100h40v100h-40zM-110 430h80v-140h-80v140z" />
    <glyph glyph-name="uni030F" unicode="&#x30f;" horiz-adv-x="0" 
d="M-30 300h-35l-110 100h120zM-49 309l-20 73h-59l78 -73h1zM120 300h-35l-110 100h120zM101 309l-20 73h-59l78 -73h1z" />
    <glyph glyph-name="uni0311" unicode="&#x311;" horiz-adv-x="0" 
d="M0 314q-61 0 -113 -23l-15 16q55 94 128 94t128 -94l-15 -16q-52 23 -113 23zM0 334q52 0 96 -15q-43 62 -96 62q-51 0 -96 -62q48 15 96 15z" />
    <glyph glyph-name="uni0312" unicode="&#x312;" horiz-adv-x="0" 
d="M-23 380h33q21 0 35.5 -14.5t14.5 -35.5t-14.5 -35.5t-35.5 -14.5q-25 0 -42.5 19t-17.5 45q0 16 4 31q9 35 34 58t58 23v-20q-24 0 -42 -15t-27 -41zM-29 360q-1 -6 -1 -16q0 -19 12 -31.5t28 -12.5q12 0 21 9t9 21t-9 21t-21 9h-39z" />
    <glyph glyph-name="uni0326" unicode="&#x326;" horiz-adv-x="0" 
d="M33 -174h-33q-21 0 -35.5 14.5t-14.5 35.5t14.5 35.5t35.5 14.5q25 0 42.5 -19t17.5 -45q0 -16 -4 -31q-9 -35 -34 -58t-58 -23v20q24 0 42 15t27 41zM39 -154q1 6 1 16q0 19 -12 31.5t-28 12.5q-12 0 -21 -8.5t-9 -21t9 -21.5t21 -9h39z" />
    <glyph glyph-name="Wgrave" unicode="&#x1e80;" horiz-adv-x="510" 
d="M273 405h-35l-110 100h120zM254 414l-20 73h-59l78 -73h1zM57 320q1 -91 32 -146l78 -134q14 -25 33 -25q18 0 33 25l13 21l-150 259h-39zM120 320l161 -280q14 -25 33 -25t33 25l12 21l-128 221q-22 38 -61 38h-50zM365 320q3 -26 16.5 -45t26.5 -28t36 -21q1 -1 2 -1
q11 38 11 95h-92zM440 205q-3 1 -5 3q-20 11 -32.5 19.5t-28 24t-23 37.5t-7.5 51h161v-20h-28q-1 -97 -35 -156l-78 -134q-20 -35 -50 -35t-50 35q-3 6 -7 11l-7 -11q-21 -35 -50 -35q-30 0 -50 35l-78 134q-34 59 -35 156h-32v20h165q51 0 80 -50l121 -210l54 94
q9 15 15 31z" />
    <glyph glyph-name="wgrave" unicode="&#x1e81;" horiz-adv-x="455" 
d="M255 300h-35l-110 100h120zM236 309l-20 73h-59l78 -73h1zM175 23l46 46l-98 99q-18 18 -43 18t-42 -19l-4 -3zM359 190v20h27q24 0 38 -14.5t14 -34.5q0 -23 -16 -39l-127 -127l-60 60l-60 -60l-169 169l17 18q24 24 57 24t57 -24l3 -4l3 4q24 24 57 24t57 -24l28 -28
q38 -38 43 -97l80 79q10 10 10 25q0 12 -8 20.5t-24 8.5h-27zM295 23l16 16q0 60 -40 100l-28 29q-18 18 -43 18t-42 -19l-4 -3z" />
    <glyph glyph-name="Wacute" unicode="&#x1e82;" horiz-adv-x="510" 
d="M237 405l25 100h120l-110 -100h-35zM256 414h1l78 73h-59zM57 320q1 -91 32 -146l78 -134q14 -25 33 -25q18 0 33 25l13 21l-150 259h-39zM120 320l161 -280q14 -25 33 -25t33 25l12 21l-128 221q-22 38 -61 38h-50zM365 320q3 -26 16.5 -45t26.5 -28t36 -21q1 -1 2 -1
q11 38 11 95h-92zM440 205q-3 1 -5 3q-20 11 -32.5 19.5t-28 24t-23 37.5t-7.5 51h161v-20h-28q-1 -97 -35 -156l-78 -134q-20 -35 -50 -35t-50 35q-3 6 -7 11l-7 -11q-21 -35 -50 -35q-30 0 -50 35l-78 134q-34 59 -35 156h-32v20h165q51 0 80 -50l121 -210l54 94
q9 15 15 31z" />
    <glyph glyph-name="wacute" unicode="&#x1e83;" horiz-adv-x="455" 
d="M185 300l25 100h120l-110 -100h-35zM204 309h1l78 73h-59zM175 23l46 46l-98 99q-18 18 -43 18t-42 -19l-4 -3zM359 190v20h27q24 0 38 -14.5t14 -34.5q0 -23 -16 -39l-127 -127l-60 60l-60 -60l-169 169l17 18q24 24 57 24t57 -24l3 -4l3 4q24 24 57 24t57 -24l28 -28
q38 -38 43 -97l80 79q10 10 10 25q0 12 -8 20.5t-24 8.5h-27zM295 23l16 16q0 60 -40 100l-28 29q-18 18 -43 18t-42 -19l-4 -3z" />
    <glyph glyph-name="Wdieresis" unicode="&#x1e84;" horiz-adv-x="510" 
d="M275 445q0 17 11.5 28.5t28.5 11.5t28.5 -11.5t11.5 -28.5t-11.5 -28.5t-28.5 -11.5t-28.5 11.5t-11.5 28.5zM295 445q0 -8 6 -14t14 -6t14 6t6 14t-6 14t-14 6t-14 -6t-6 -14zM155 445q0 17 11.5 28.5t28.5 11.5t28.5 -11.5t11.5 -28.5t-11.5 -28.5t-28.5 -11.5
t-28.5 11.5t-11.5 28.5zM175 445q0 -8 6 -14t14 -6t14 6t6 14t-6 14t-14 6t-14 -6t-6 -14zM57 320q1 -91 32 -146l78 -134q14 -25 33 -25q18 0 33 25l13 21l-150 259h-39zM120 320l161 -280q14 -25 33 -25t33 25l12 21l-128 221q-22 38 -61 38h-50zM365 320q3 -26 16.5 -45
t26.5 -28t36 -21q1 -1 2 -1q11 38 11 95h-92zM440 205q-3 1 -5 3q-20 11 -32.5 19.5t-28 24t-23 37.5t-7.5 51h161v-20h-28q-1 -97 -35 -156l-78 -134q-20 -35 -50 -35t-50 35q-3 6 -7 11l-7 -11q-21 -35 -50 -35q-30 0 -50 35l-78 134q-34 59 -35 156h-32v20h165
q51 0 80 -50l121 -210l54 94q9 15 15 31z" />
    <glyph glyph-name="wdieresis" unicode="&#x1e85;" horiz-adv-x="455" 
d="M240 350q0 17 11.5 28.5t28.5 11.5t28.5 -11.5t11.5 -28.5t-11.5 -28.5t-28.5 -11.5t-28.5 11.5t-11.5 28.5zM260 350q0 -8 6 -14t14 -6t14 6t6 14t-6 14t-14 6t-14 -6t-6 -14zM120 350q0 17 11.5 28.5t28.5 11.5t28.5 -11.5t11.5 -28.5t-11.5 -28.5t-28.5 -11.5
t-28.5 11.5t-11.5 28.5zM140 350q0 -8 6 -14t14 -6t14 6t6 14t-6 14t-14 6t-14 -6t-6 -14zM175 23l46 46l-98 99q-18 18 -43 18t-42 -19l-4 -3zM359 190v20h27q24 0 38 -14.5t14 -34.5q0 -23 -16 -39l-127 -127l-60 60l-60 -60l-169 169l17 18q24 24 57 24t57 -24l3 -4l3 4
q24 24 57 24t57 -24l28 -28q38 -38 43 -97l80 79q10 10 10 25q0 12 -8 20.5t-24 8.5h-27zM295 23l16 16q0 60 -40 100l-28 29q-18 18 -43 18t-42 -19l-4 -3z" />
    <glyph glyph-name="uni1E86" unicode="&#x1e86;" horiz-adv-x="510" 
d="M225 455q0 -12 9 -21t21 -9t21 9t9 21t-9 21t-21 9t-21 -9t-9 -21zM205 455q0 21 14.5 35.5t35.5 14.5t35.5 -14.5t14.5 -35.5t-14.5 -35.5t-35.5 -14.5t-35.5 14.5t-14.5 35.5zM57 320q1 -91 32 -146l78 -134q14 -25 33 -25q18 0 33 25l13 21l-150 259h-39zM120 320
l161 -280q14 -25 33 -25t33 25l12 21l-128 221q-22 38 -61 38h-50zM365 320q3 -26 16.5 -45t26.5 -28t36 -21q1 -1 2 -1q11 38 11 95h-92zM440 205q-3 1 -5 3q-20 11 -32.5 19.5t-28 24t-23 37.5t-7.5 51h161v-20h-28q-1 -97 -35 -156l-78 -134q-20 -35 -50 -35t-50 35
q-3 6 -7 11l-7 -11q-21 -35 -50 -35q-30 0 -50 35l-78 134q-34 59 -35 156h-32v20h165q51 0 80 -50l121 -210l54 94q9 15 15 31z" />
    <glyph glyph-name="uni1E87" unicode="&#x1e87;" horiz-adv-x="455" 
d="M190 350q0 -12 9 -21t21 -9t21 9t9 21t-9 21t-21 9t-21 -9t-9 -21zM170 350q0 21 14.5 35.5t35.5 14.5t35.5 -14.5t14.5 -35.5t-14.5 -35.5t-35.5 -14.5t-35.5 14.5t-14.5 35.5zM175 23l46 46l-98 99q-18 18 -43 18t-42 -19l-4 -3zM359 190v20h27q24 0 38 -14.5t14 -34.5
q0 -23 -16 -39l-127 -127l-60 60l-60 -60l-169 169l17 18q24 24 57 24t57 -24l3 -4l3 4q24 24 57 24t57 -24l28 -28q38 -38 43 -97l80 79q10 10 10 25q0 12 -8 20.5t-24 8.5h-27zM295 23l16 16q0 60 -40 100l-28 29q-18 18 -43 18t-42 -19l-4 -3z" />
    <glyph glyph-name="uni1E8E" unicode="&#x1e8e;" horiz-adv-x="395" 
d="M185 480q0 -12 9 -21t21 -9t21 9t9 21t-9 21t-21 9t-21 -9t-9 -21zM165 480q0 21 14.5 35.5t35.5 14.5t35.5 -14.5t14.5 -35.5t-14.5 -35.5t-35.5 -14.5t-35.5 14.5t-14.5 35.5zM251 198l97 111q7 8 7 17q0 8 -5.5 13.5t-13.5 5.5h-34v20h34q16 0 27.5 -11.5t11.5 -27.5
t-14 -32l-101 -115v-159h60v-20h-220v20h55v126l-125 174h-25v20h144zM240 179l-102 141h-83l120 -167v-133h65v159z" />
    <glyph glyph-name="uni1E8F" unicode="&#x1e8f;" horiz-adv-x="345" 
d="M160 350q0 -12 9 -21t21 -9t21 9t9 21t-9 21t-21 9t-21 -9t-9 -21zM140 350q0 21 14.5 35.5t35.5 14.5t35.5 -14.5t14.5 -35.5t-14.5 -35.5t-35.5 -14.5t-35.5 14.5t-14.5 35.5zM166 9l-155 155l17 18q24 24 57 24t57 -24l28 -28q39 -39 45 -96l78 78q11 11 11 25
q0 12 -8.5 20.5t-24.5 8.5h-27v20h27q24 0 38.5 -14.5t14.5 -34.5q0 -22 -17 -39l-142 -142q-39 -39 -39 -90v-212q22 -8 46 -8q57 0 98.5 41.5t41.5 98.5t-42 98l14 14q48 -48 48 -112.5t-47.5 -112t-112.5 -47.5t-111 47.5t-46 112.5q0 48 54 102zM180 23l16 16
q0 60 -40 100l-28 29q-18 18 -43 18t-42 -19l-4 -3zM106 -312v202q0 18 5 36l-28 -28q-48 -48 -48 -88q0 -38 19.5 -71t51.5 -51z" />
    <glyph glyph-name="uni1E9E" unicode="&#x1e9e;" horiz-adv-x="435" 
d="M10 0v20h55v180q0 61 41 103t104 42q87 0 135 -37v77h20v-150h-5q-15 0 -30 -3v-42q0 -28 29 -52q36 -30 36 -68q0 -31 -28 -53t-67 -22q-28 0 -55 5v-70h-20v96q25 -8 55 -10q-3 25 -29 46q-38 32 -38 76q0 45 38 78.5t94 37.5v27q-44 44 -135 44q-24 0 -45 -8v-217
q0 -41 -29.5 -70.5t-70.5 -29.5h-55zM85 23q26 7 43 28t17 49v208q-28 -16 -44 -44.5t-16 -63.5v-177zM300 15q31 0 53 16t22 39q0 28 -29 52q-36 30 -36 68v37q-35 -11 -56 -35t-21 -53q0 -35 31 -61q33 -28 36 -63z" />
    <glyph glyph-name="uni1EBC" unicode="&#x1ebc;" horiz-adv-x="365" 
d="M284 487q0 -26 -16 -45t-37 -19q-19 0 -56 15q-35 14 -52 15q-16 0 -36 -16l-12 -10l-4 15q-4 15 -4 26q0 26 16 45t37 19q19 0 56 -15q35 -14 52 -15q16 0 36 16l12 10l4 -15q4 -15 4 -26zM264 486q0 4 -1 7q-18 -11 -35 -11q-22 0 -60 16q-33 14 -48 14
q-13 0 -22.5 -12.5t-10.5 -30.5q0 -5 1 -7q18 11 35 11q22 0 60 -16q33 -14 48 -14q14 0 23.5 12.5t9.5 30.5zM10 320v20h300v60h20v-170h-20v90h-140v-140h60v50h20v-120h-20v50h-60v-140h140v90h20v-170h-20v60h-300v20h60v300h-60zM90 320v-300h60v300h-60z" />
    <glyph glyph-name="uni1EBD" unicode="&#x1ebd;" horiz-adv-x="305" 
d="M262 357q0 -26 -16 -45t-37 -19q-19 0 -56 15q-35 14 -52 15q-16 0 -36 -16l-12 -10l-4 15q-4 15 -4 26q0 26 16 45t37 19q19 0 56 -15q35 -14 52 -15q16 0 36 16l12 10l4 -15q4 -15 4 -26zM242 356q0 4 -1 7q-18 -11 -35 -11q-22 0 -60 16q-33 14 -48 14
q-13 0 -22.5 -12.5t-10.5 -30.5q0 -5 1 -7q18 11 35 11q22 0 60 -16q33 -14 48 -14q14 0 23.5 12.5t9.5 30.5zM58 100q0 -35 28 -60t67 -25q15 0 30 2q-45 37 -45 93v73q-35 -6 -57.5 -29t-22.5 -54zM38 100q0 43 35 74t85 31q43 0 74 -22t31 -53q0 -27 -26.5 -46.5
t-64.5 -22.5q14 -24 38 -39q31 8 58 25l10 -17q-57 -35 -125 -35q-48 0 -81.5 31t-33.5 74zM163 80q34 1 57 15.5t23 34.5q0 23 -25 39t-60 16v-75q0 -15 5 -30z" />
    <glyph glyph-name="Ygrave" unicode="&#x1ef2;" horiz-adv-x="395" 
d="M250 430h-35l-110 100h120zM231 439l-20 73h-59l78 -73h1zM251 198l97 111q7 8 7 17q0 8 -5.5 13.5t-13.5 5.5h-34v20h34q16 0 27.5 -11.5t11.5 -27.5t-14 -32l-101 -115v-159h60v-20h-220v20h55v126l-125 174h-25v20h144zM240 179l-102 141h-83l120 -167v-133h65v159z
" />
    <glyph glyph-name="ygrave" unicode="&#x1ef3;" horiz-adv-x="345" 
d="M225 300h-35l-110 100h120zM206 309l-20 73h-59l78 -73h1zM166 9l-155 155l17 18q24 24 57 24t57 -24l28 -28q39 -39 45 -96l78 78q11 11 11 25q0 12 -8.5 20.5t-24.5 8.5h-27v20h27q24 0 38.5 -14.5t14.5 -34.5q0 -22 -17 -39l-142 -142q-39 -39 -39 -90v-212
q22 -8 46 -8q57 0 98.5 41.5t41.5 98.5t-42 98l14 14q48 -48 48 -112.5t-47.5 -112t-112.5 -47.5t-111 47.5t-46 112.5q0 48 54 102zM180 23l16 16q0 60 -40 100l-28 29q-18 18 -43 18t-42 -19l-4 -3zM106 -312v202q0 18 5 36l-28 -28q-48 -48 -48 -88q0 -38 19.5 -71
t51.5 -51z" />
    <glyph glyph-name="uni1EF8" unicode="&#x1ef8;" horiz-adv-x="395" 
d="M324 487q0 -26 -16 -45t-37 -19q-19 0 -56 15q-35 14 -52 15q-16 0 -36 -16l-12 -10l-4 15q-4 15 -4 26q0 26 16 45t37 19q19 0 56 -15q35 -14 52 -15q16 0 36 16l12 10l4 -15q4 -15 4 -26zM304 486q0 4 -1 7q-18 -11 -35 -11q-22 0 -60 16q-33 14 -48 14
q-13 0 -22.5 -12.5t-10.5 -30.5q0 -5 1 -7q18 11 35 11q22 0 60 -16q33 -14 48 -14q14 0 23.5 12.5t9.5 30.5zM251 198l97 111q7 8 7 17q0 8 -5.5 13.5t-13.5 5.5h-34v20h34q16 0 27.5 -11.5t11.5 -27.5t-14 -32l-101 -115v-159h60v-20h-220v20h55v126l-125 174h-25v20h144z
M240 179l-102 141h-83l120 -167v-133h65v159z" />
    <glyph glyph-name="uni1EF9" unicode="&#x1ef9;" horiz-adv-x="345" 
d="M299 357q0 -26 -16 -45t-37 -19q-19 0 -56 15q-35 14 -52 15q-16 0 -36 -16l-12 -10l-4 15q-4 15 -4 26q0 26 16 45t37 19q19 0 56 -15q35 -14 52 -15q16 0 36 16l12 10l4 -15q4 -15 4 -26zM279 356q0 4 -1 7q-18 -11 -35 -11q-22 0 -60 16q-33 14 -48 14
q-13 0 -22.5 -12.5t-10.5 -30.5q0 -5 1 -7q18 11 35 11q22 0 60 -16q33 -14 48 -14q14 0 23.5 12.5t9.5 30.5zM166 9l-155 155l17 18q24 24 57 24t57 -24l28 -28q39 -39 45 -96l78 78q11 11 11 25q0 12 -8.5 20.5t-24.5 8.5h-27v20h27q24 0 38.5 -14.5t14.5 -34.5
q0 -22 -17 -39l-142 -142q-39 -39 -39 -90v-212q22 -8 46 -8q57 0 98.5 41.5t41.5 98.5t-42 98l14 14q48 -48 48 -112.5t-47.5 -112t-112.5 -47.5t-111 47.5t-46 112.5q0 48 54 102zM180 23l16 16q0 60 -40 100l-28 29q-18 18 -43 18t-42 -19l-4 -3zM106 -312v202q0 18 5 36
l-28 -28q-48 -48 -48 -88q0 -38 19.5 -71t51.5 -51z" />
    <glyph glyph-name="uni2000" unicode="&#x2000;" horiz-adv-x="453" 
 />
    <glyph glyph-name="uni2001" unicode="&#x2001;" horiz-adv-x="908" 
 />
    <glyph glyph-name="uni2002" unicode="&#x2002;" horiz-adv-x="453" 
 />
    <glyph glyph-name="uni2003" unicode="&#x2003;" horiz-adv-x="908" 
 />
    <glyph glyph-name="uni2004" unicode="&#x2004;" horiz-adv-x="294" 
 />
    <glyph glyph-name="uni2005" unicode="&#x2005;" horiz-adv-x="220" 
 />
    <glyph glyph-name="uni2006" unicode="&#x2006;" horiz-adv-x="146" 
 />
    <glyph glyph-name="uni2007" unicode="&#x2007;" horiz-adv-x="547" 
 />
    <glyph glyph-name="uni2008" unicode="&#x2008;" horiz-adv-x="212" 
 />
    <glyph glyph-name="uni2009" unicode="&#x2009;" horiz-adv-x="176" 
 />
    <glyph glyph-name="uni200A" unicode="&#x200a;" horiz-adv-x="87" 
 />
    <glyph glyph-name="uni200B" unicode="&#x200b;" horiz-adv-x="0" 
 />
    <glyph glyph-name="uni2010" unicode="&#x2010;" horiz-adv-x="300" 
d="M70 140v-40h160v40h-160zM50 160h180v20h20v-100h-180v-20h-20v100z" />
    <glyph glyph-name="uni2011" unicode="&#x2011;" horiz-adv-x="260" 
d="M70 140v-40h120v40h-120zM50 160h140v20h20v-100h-140v-20h-20v100z" />
    <glyph glyph-name="figuredash" unicode="&#x2012;" horiz-adv-x="330" 
d="M60 145v-40h210v40h-210zM40 165h230v20h20v-100h-230v-20h-20v100z" />
    <glyph glyph-name="endash" unicode="&#x2013;" horiz-adv-x="420" 
d="M70 140v-40h280v40h-280zM50 160h300v20h20v-100h-300v-20h-20v100z" />
    <glyph glyph-name="emdash" unicode="&#x2014;" horiz-adv-x="680" 
d="M70 140v-40h540v40h-540zM50 160h560v20h20v-100h-560v-20h-20v100z" />
    <glyph glyph-name="quoteleft" unicode="&#x2018;" horiz-adv-x="190" 
d="M131 485l9 -18q-29 -15 -49.5 -46t-27.5 -71h37q21 0 35.5 -14.5t14.5 -35.5t-14.5 -35.5t-35.5 -14.5q-25 0 -42.5 19t-17.5 45q0 56 25 102.5t66 68.5zM61 330q-1 -8 -1 -16q0 -19 12 -31.5t28 -12.5q12 0 21 9t9 21t-9 21t-21 9h-39z" />
    <glyph glyph-name="quoteright" unicode="&#x2019;" horiz-adv-x="190" 
d="M59 230l-9 18q29 15 49.5 46t27.5 71h-37q-21 0 -35.5 14.5t-14.5 35.5t14.5 35.5t35.5 14.5q25 0 42.5 -19t17.5 -45q0 -56 -25 -102.5t-66 -68.5zM129 385q1 8 1 16q0 19 -12 31.5t-28 12.5q-12 0 -21 -9t-9 -21t9 -21t21 -9h39z" />
    <glyph glyph-name="quotesinglbase" unicode="&#x201a;" horiz-adv-x="190" 
d="M59 -145l-9 18q29 15 49.5 46t27.5 71h-37q-21 0 -35.5 14.5t-14.5 35.5t14.5 35.5t35.5 14.5q25 0 42.5 -19t17.5 -45q0 -56 -25 -102.5t-66 -68.5zM129 10q1 8 1 16q0 19 -12 31.5t-28 12.5q-12 0 -21 -9t-9 -21t9 -21t21 -9h39z" />
    <glyph glyph-name="quotereversed" unicode="&#x201b;" horiz-adv-x="190" 
d="M131 230q-41 22 -66 68t-25 103q0 26 17.5 45t42.5 19q21 0 35.5 -14.5t14.5 -35.5t-14.5 -35.5t-35.5 -14.5h-37q7 -40 27.5 -71t49.5 -46zM61 385h39q12 0 21 9t9 21t-9 21t-21 9q-16 0 -28 -13t-12 -31q0 -8 1 -16z" />
    <glyph glyph-name="quotedblleft" unicode="&#x201c;" horiz-adv-x="340" 
d="M281 485l9 -18q-29 -15 -49.5 -46t-27.5 -71h37q21 0 35.5 -14.5t14.5 -35.5t-14.5 -35.5t-35.5 -14.5q-25 0 -42.5 19t-17.5 45q0 56 25 102.5t66 68.5zM211 330q-1 -8 -1 -16q0 -19 12 -31.5t28 -12.5q12 0 21 9t9 21t-9 21t-21 9h-39zM131 485l9 -18
q-29 -15 -49.5 -46t-27.5 -71h37q21 0 35.5 -14.5t14.5 -35.5t-14.5 -35.5t-35.5 -14.5q-25 0 -42.5 19t-17.5 45q0 56 25 102.5t66 68.5zM61 330q-1 -8 -1 -16q0 -19 12 -31.5t28 -12.5q12 0 21 9t9 21t-9 21t-21 9h-39z" />
    <glyph glyph-name="quotedblright" unicode="&#x201d;" horiz-adv-x="340" 
d="M209 230l-9 18q29 15 49.5 46t27.5 71h-37q-21 0 -35.5 14.5t-14.5 35.5t14.5 35.5t35.5 14.5q25 0 42.5 -19t17.5 -45q0 -56 -25 -102.5t-66 -68.5zM279 385q1 8 1 16q0 19 -12 31.5t-28 12.5q-12 0 -21 -9t-9 -21t9 -21t21 -9h39zM59 230l-9 18q29 15 49.5 46t27.5 71
h-37q-21 0 -35.5 14.5t-14.5 35.5t14.5 35.5t35.5 14.5q25 0 42.5 -19t17.5 -45q0 -56 -25 -102.5t-66 -68.5zM129 385q1 8 1 16q0 19 -12 31.5t-28 12.5q-12 0 -21 -9t-9 -21t9 -21t21 -9h39z" />
    <glyph glyph-name="quotedblbase" unicode="&#x201e;" horiz-adv-x="340" 
d="M209 -145l-9 18q29 15 49.5 46t27.5 71h-37q-21 0 -35.5 14.5t-14.5 35.5t14.5 35.5t35.5 14.5q25 0 42.5 -19t17.5 -45q0 -56 -25 -102.5t-66 -68.5zM279 10q1 8 1 16q0 19 -12 31.5t-28 12.5q-12 0 -21 -9t-9 -21t9 -21t21 -9h39zM59 -145l-9 18q29 15 49.5 46t27.5 71
h-37q-21 0 -35.5 14.5t-14.5 35.5t14.5 35.5t35.5 14.5q25 0 42.5 -19t17.5 -45q0 -56 -25 -102.5t-66 -68.5zM129 10q1 8 1 16q0 19 -12 31.5t-28 12.5q-12 0 -21 -9t-9 -21t9 -21t21 -9h39z" />
    <glyph glyph-name="uni201F" unicode="&#x201f;" horiz-adv-x="340" 
d="M131 230q-41 22 -66 68t-25 103q0 26 17.5 45t42.5 19q21 0 35.5 -14.5t14.5 -35.5t-14.5 -35.5t-35.5 -14.5h-37q7 -40 27.5 -71t49.5 -46zM61 385h39q12 0 21 9t9 21t-9 21t-21 9q-16 0 -28 -13t-12 -31q0 -8 1 -16zM281 230q-41 22 -66 68t-25 103q0 26 17.5 45
t42.5 19q21 0 35.5 -14.5t14.5 -35.5t-14.5 -35.5t-35.5 -14.5h-37q7 -40 27.5 -71t49.5 -46zM211 385h39q12 0 21 9t9 21t-9 21t-21 9q-16 0 -28 -13t-12 -31q0 -8 1 -16z" />
    <glyph glyph-name="bullet" unicode="&#x2022;" horiz-adv-x="200" 
d="M25 170q0 31 22 53t53 22t53 -22t22 -53t-22 -53t-53 -22t-53 22t-22 53z" />
    <glyph glyph-name="uni2023" unicode="&#x2023;" horiz-adv-x="310" 
d="M60 79v181l220 -90z" />
    <glyph glyph-name="onedotenleader" unicode="&#x2024;" horiz-adv-x="200" 
d="M70 40q0 -12 9 -21t21 -9t21 9t9 21t-9 21t-21 9t-21 -9t-9 -21zM50 40q0 21 14.5 35.5t35.5 14.5t35.5 -14.5t14.5 -35.5t-14.5 -35.5t-35.5 -14.5t-35.5 14.5t-14.5 35.5z" />
    <glyph glyph-name="twodotenleader" unicode="&#x2025;" horiz-adv-x="360" 
d="M230 40q0 -12 9 -21t21 -9t21 9t9 21t-9 21t-21 9t-21 -9t-9 -21zM210 40q0 21 14.5 35.5t35.5 14.5t35.5 -14.5t14.5 -35.5t-14.5 -35.5t-35.5 -14.5t-35.5 14.5t-14.5 35.5zM70 40q0 -12 9 -21t21 -9t21 9t9 21t-9 21t-21 9t-21 -9t-9 -21zM50 40q0 21 14.5 35.5
t35.5 14.5t35.5 -14.5t14.5 -35.5t-14.5 -35.5t-35.5 -14.5t-35.5 14.5t-14.5 35.5z" />
    <glyph glyph-name="ellipsis" unicode="&#x2026;" horiz-adv-x="520" 
d="M390 40q0 -12 9 -21t21 -9t21 9t9 21t-9 21t-21 9t-21 -9t-9 -21zM370 40q0 21 14.5 35.5t35.5 14.5t35.5 -14.5t14.5 -35.5t-14.5 -35.5t-35.5 -14.5t-35.5 14.5t-14.5 35.5zM230 40q0 -12 9 -21t21 -9t21 9t9 21t-9 21t-21 9t-21 -9t-9 -21zM210 40q0 21 14.5 35.5
t35.5 14.5t35.5 -14.5t14.5 -35.5t-14.5 -35.5t-35.5 -14.5t-35.5 14.5t-14.5 35.5zM70 40q0 -12 9 -21t21 -9t21 9t9 21t-9 21t-21 9t-21 -9t-9 -21zM50 40q0 21 14.5 35.5t35.5 14.5t35.5 -14.5t14.5 -35.5t-14.5 -35.5t-35.5 -14.5t-35.5 14.5t-14.5 35.5z" />
    <glyph glyph-name="perthousand" unicode="&#x2030;" horiz-adv-x="550" 
d="M380 0q0 -25 17.5 -42.5t42.5 -17.5t42.5 17.5t17.5 42.5t-17.5 42.5t-42.5 17.5t-42.5 -17.5t-17.5 -42.5zM360 0q0 33 23.5 56.5t56.5 23.5t56.5 -23.5t23.5 -56.5t-23.5 -56.5t-56.5 -23.5t-56.5 23.5t-23.5 56.5zM50 250q0 -25 17.5 -42.5t42.5 -17.5t42.5 17.5
t17.5 42.5t-17.5 42.5t-42.5 17.5t-42.5 -17.5t-17.5 -42.5zM30 250q0 33 23.5 56.5t56.5 23.5t56.5 -23.5t23.5 -56.5t-23.5 -56.5t-56.5 -23.5t-56.5 23.5t-23.5 56.5zM180 0q0 -25 17.5 -42.5t42.5 -17.5t42.5 17.5t17.5 42.5t-17.5 42.5t-42.5 17.5t-42.5 -17.5
t-17.5 -42.5zM160 0q0 33 23.5 56.5t56.5 23.5t56.5 -23.5t23.5 -56.5t-23.5 -56.5t-56.5 -23.5t-56.5 23.5t-23.5 56.5zM67 13l-14 14l230 210l14 -14z" />
    <glyph glyph-name="Euro" unicode="&#x20ac;" horiz-adv-x="375" 
d="M343 24q-53 -29 -115 -29q-44 0 -79.5 19t-54.5 51h-74v20h65q-7 19 -7 40h-48v20h50q8 47 49.5 78.5t98.5 31.5q46 0 75 -29v104h20v-150h-20q0 18 -13 31.5t-34 19.5q-25 -13 -40.5 -36t-17.5 -50h77v-20h-77v-40h57v-20h-57v-47q15 -3 30 -3q57 0 106 26zM225 235
q-54 -1 -90.5 -33t-36.5 -77q0 -34 22 -62t58 -40v117q0 58 47 95z" />
    <glyph glyph-name="afii61352" unicode="&#x2116;" horiz-adv-x="635" 
d="M90 20h45v-20h-125v20h60v299q-5 1 -10 1h-40v20h40q25 0 48 -9t46 -29.5t38.5 -36.5t40.5 -46l97 -114v215h-60v20h135v-20h-55v-320h-62l-95 112l-33.5 39t-31.5 31t-38 29v-191zM90 233q32 -18 58.5 -43.5t59.5 -64.5l89 -105h33v54l-112 132q-40 47 -69 73.5
t-59 35.5v-82zM415 165q0 34 28 57t67 23t67 -23t28 -57t-28 -57t-67 -23t-67 23t-28 57zM501 103v124q-30 -3 -49 -20.5t-19 -41.5t19 -41.5t49 -20.5zM519 103q30 3 49 20.5t19 41.5t-19 41.5t-49 20.5v-124zM565 30v-20h-110v20h110z" />
    <glyph glyph-name="arrowleft" unicode="&#x2190;" horiz-adv-x="480" 
d="M46 170l26 -19q12 2 32 2h333v-20h-320q-18 0 -30 2v-2q11 -5 38 -34l41 -45l-12 -12l-127 128v2l127 128l12 -12l-41 -45q-28 -31 -38 -34v-2q6 1 30 1h320v-20h-333q-14 0 -32 3l-26 -19v-2z" />
    <glyph glyph-name="arrowup" unicode="&#x2191;" horiz-adv-x="300" 
d="M151 326h-2l-19 -26q3 -18 3 -32v-268h-20v255q0 24 1 30h-2q-3 -10 -34 -38l-45 -41l-12 12l128 127h2l128 -127l-12 -12l-45 41q-29 27 -34 38h-2q2 -12 2 -30v-255h-20v268q0 20 2 32z" />
    <glyph glyph-name="arrowright" unicode="&#x2192;" horiz-adv-x="480" 
d="M434 170v2l-26 19q-18 -3 -32 -3h-333v20h320q24 0 30 -1v2q-10 3 -38 34l-41 45l12 12l127 -128v-2l-127 -128l-12 12l41 45q27 29 38 34v2q-12 -2 -30 -2h-320v20h333q20 0 32 -2z" />
    <glyph glyph-name="arrowdown" unicode="&#x2193;" horiz-adv-x="300" 
d="M149 14h2l19 26q-3 18 -3 32v268h20v-255q0 -24 -1 -30h2q3 10 34 38l45 41l12 -12l-128 -127h-2l-128 127l12 12l45 -41q29 -27 34 -38h2q-2 12 -2 30v255h20v-268q0 -20 -2 -32z" />
    <glyph glyph-name="arrowboth" unicode="&#x2194;" horiz-adv-x="520" 
d="M474 170v2l-26 19q-18 -3 -32 -3h-312q-20 0 -32 2l-26 -19v-2l26 -19q18 3 32 3h312q20 0 32 -2zM403 208q24 0 30 -1v2q-10 3 -38 34l-41 45l12 12l127 -128v-2l-127 -128l-12 12l41 45q27 29 38 34v2q-12 -2 -30 -2h-286q-24 0 -30 1v-2q10 -3 38 -34l41 -45l-12 -12
l-127 128v2l127 128l12 -12l-41 -45q-27 -29 -38 -34v-2q12 2 30 2h286z" />
    <glyph glyph-name="arrowupdn" unicode="&#x2195;" horiz-adv-x="300" 
d="M150 13h2l18 26q-2 12 -2 32v196q0 20 2 32l-20 26h-2l-18 -26q2 -12 2 -32v-196q0 -20 -2 -32zM188 85q0 -18 -2 -30h2q3 10 34 38l46 40l12 -12l-128 -126h-2l-128 126l12 12l44 -40q29 -27 34 -38h2q-2 12 -2 30v170q0 18 2 30h-2q-3 -10 -34 -38l-46 -42l-12 12
l128 128h2l128 -128l-12 -12l-44 42q-29 27 -34 38h-2q2 -12 2 -30v-170z" />
    <glyph glyph-name="minus" unicode="&#x2212;" horiz-adv-x="250" 
d="M220 140v-20h-190v20h190z" />
    <glyph glyph-name="asteriskmath" unicode="&#x2217;" horiz-adv-x="210" 
d="M91 145l-10 -18l-50 29l10 18zM81 123l10 -18l-50 -29l-10 18zM95 103h20v-58h-20v58zM119 105l10 18l50 -29l-10 -18zM129 127l-10 18l50 29l10 -18zM115 147h-20v58h20v-58z" />
    <glyph glyph-name="f.abo" unicode="&#xe000;" horiz-adv-x="300" 
d="M160 180h90v100h20v-170h-20v50h-90v-410q0 -41 -29.5 -70.5t-70.5 -29.5h-70v20h70v675q0 85 66.5 145t160.5 60q77 0 131 -42.5t54 -102.5q0 -31 -22 -53t-53 -22h-20q0 79 -46 134.5t-111 55.5q-33 -10 -60 -29v-311zM140 -250v725q-60 -54 -60 -130v-672q26 7 43 28
t17 49zM452 405q0 52 -48.5 88.5t-116.5 36.5h-12q50 -19 83 -68t38 -112h1q23 0 39 16t16 39z" />
    <glyph glyph-name="j.aao" unicode="&#xe001;" horiz-adv-x="225" 
d="M65 350q0 21 14.5 35.5t35.5 14.5t35.5 -14.5t14.5 -35.5t-14.5 -35.5t-35.5 -14.5t-35.5 14.5t-14.5 35.5zM85 350q0 -12 9 -21t21 -9t21 9t9 21t-9 21t-21 9t-21 -9t-9 -21zM85 -299q60 44 60 114v365h-60v-479zM65 -311v491h-50v20h150v-385q0 -68 -52 -116.5
t-125 -48.5q-72 0 -123.5 39.5t-51.5 95.5q0 31 22 53t53 22h20q0 -76 35.5 -130t85.5 -55q19 5 36 14zM-167 -215q0 -45 41.5 -78t101.5 -37q-36 21 -59.5 67t-27.5 103h-1q-23 0 -39 -16t-16 -39z" />
    <glyph glyph-name="jcircumflex.aao" unicode="&#xe002;" horiz-adv-x="225" 
d="M85 -299q60 44 60 114v365h-60v-479zM65 -311v491h-50v20h150v-385q0 -68 -52 -116.5t-125 -48.5q-72 0 -123.5 39.5t-51.5 95.5q0 31 22 53t53 22h20q0 -76 35.5 -130t85.5 -55q19 5 36 14zM-167 -215q0 -45 41.5 -78t101.5 -37q-36 21 -59.5 67t-27.5 103h-1
q-23 0 -39 -16t-16 -39zM125 316l65 11l-57 53h-36l-57 -53l65 -10v38h20v-39zM218 311l-93 -15h-20l-93 15v17l77 72h52l77 -72v-17z" />
    <glyph glyph-name="uni01F0.aao" unicode="&#xe003;" horiz-adv-x="225" 
d="M85 -299q60 44 60 114v365h-60v-479zM65 -311v491h-50v20h150v-385q0 -68 -52 -116.5t-125 -48.5q-72 0 -123.5 39.5t-51.5 95.5q0 31 22 53t53 22h20q0 -76 35.5 -130t85.5 -55q19 5 36 14zM-167 -215q0 -45 41.5 -78t101.5 -37q-36 21 -59.5 67t-27.5 103h-1
q-23 0 -39 -16t-16 -39zM105 384l-65 -11l57 -53h36l57 53l-65 10v-38h-20v39zM12 389l93 15h20l93 -15v-17l-77 -72h-52l-77 72v17z" />
    <glyph glyph-name="uni0237.aao" unicode="&#xe004;" horiz-adv-x="225" 
d="M85 -299q60 44 60 114v365h-60v-479zM65 -311v491h-50v20h150v-385q0 -68 -52 -116.5t-125 -48.5q-72 0 -123.5 39.5t-51.5 95.5q0 31 22 53t53 22h20q0 -76 35.5 -130t85.5 -55q19 5 36 14zM-167 -215q0 -45 41.5 -78t101.5 -37q-36 21 -59.5 67t-27.5 103h-1
q-23 0 -39 -16t-16 -39z" />
    <glyph glyph-name="g.aao" unicode="&#xe005;" horiz-adv-x="345" 
d="M50 120q0 35 29.5 60t70.5 25q39 0 68 -23q5 46 30 77t57 31q21 0 35.5 -13t14.5 -32t-13 -32t-32 -13t-32 13t-13 32v5q-28 -31 -30 -85q15 -20 15 -45q0 -31 -22.5 -54t-57.5 -29v-46q67 -21 108 -70t41 -111q0 -66 -55 -113t-132 -47q-78 0 -137.5 39.5t-59.5 93.5
q0 31 22 53t53 22h20q0 -77 38 -131t92 -55q26 4 50 14v201q0 53 -40 82v-29q0 -25 -17.5 -42.5t-42.5 -17.5t-42.5 17.5t-17.5 42.5t17.5 42.5t42.5 17.5q20 0 40 -4v39q-41 0 -70.5 25t-29.5 60zM150 -24q-20 4 -40 4q-17 0 -28.5 -11.5t-11.5 -28.5t11.5 -28.5
t28.5 -11.5t28.5 11.5t11.5 28.5v36zM11 -162h-1q-23 0 -39 -16t-16 -39q0 -40 41 -71t100 -39q-35 23 -58 67t-27 98zM170 57q26 5 43 23t17 40t-17 39.5t-43 23.5v-126zM150 55v130q-33 0 -56.5 -19t-23.5 -46t23.5 -46t56.5 -19zM285 265v-20q0 -10 7.5 -17.5t17.5 -7.5
t17.5 7.5t7.5 17.5t-9 17.5t-21 7.5q-10 0 -20 -5zM230 -303q32 19 50.5 49t18.5 64q0 44 -24 80.5t-65 60.5q20 -29 20 -64v-190z" />
    <glyph glyph-name="gdotaccent.aao" unicode="&#xe006;" horiz-adv-x="345" 
d="M120 350q0 -12 9 -21t21 -9t21 9t9 21t-9 21t-21 9t-21 -9t-9 -21zM100 350q0 21 14.5 35.5t35.5 14.5t35.5 -14.5t14.5 -35.5t-14.5 -35.5t-35.5 -14.5t-35.5 14.5t-14.5 35.5zM50 120q0 35 29.5 60t70.5 25q39 0 68 -23q5 46 30 77t57 31q21 0 35.5 -13t14.5 -32
t-13 -32t-32 -13t-32 13t-13 32v5q-28 -31 -30 -85q15 -20 15 -45q0 -31 -22.5 -54t-57.5 -29v-46q67 -21 108 -70t41 -111q0 -66 -55 -113t-132 -47q-78 0 -137.5 39.5t-59.5 93.5q0 31 22 53t53 22h20q0 -77 38 -131t92 -55q26 4 50 14v201q0 53 -40 82v-29
q0 -25 -17.5 -42.5t-42.5 -17.5t-42.5 17.5t-17.5 42.5t17.5 42.5t42.5 17.5q20 0 40 -4v39q-41 0 -70.5 25t-29.5 60zM150 -24q-20 4 -40 4q-17 0 -28.5 -11.5t-11.5 -28.5t11.5 -28.5t28.5 -11.5t28.5 11.5t11.5 28.5v36zM11 -162h-1q-23 0 -39 -16t-16 -39q0 -40 41 -71
t100 -39q-35 23 -58 67t-27 98zM170 57q26 5 43 23t17 40t-17 39.5t-43 23.5v-126zM150 55v130q-33 0 -56.5 -19t-23.5 -46t23.5 -46t56.5 -19zM285 265v-20q0 -10 7.5 -17.5t17.5 -7.5t17.5 7.5t7.5 17.5t-9 17.5t-21 7.5q-10 0 -20 -5zM230 -303q32 19 50.5 49t18.5 64
q0 44 -24 80.5t-65 60.5q20 -29 20 -64v-190z" />
    <glyph glyph-name="gcommaaccent.aao" unicode="&#xe007;" horiz-adv-x="345" 
d="M127 380h33q21 0 35.5 -14.5t14.5 -35.5t-14.5 -35.5t-35.5 -14.5q-25 0 -42.5 19t-17.5 45q0 16 4 31q9 35 34 58t58 23v-20q-24 0 -42 -15t-27 -41zM121 360q-1 -6 -1 -16q0 -19 12 -31.5t28 -12.5q12 0 21 9t9 21t-9 21t-21 9h-39zM50 120q0 35 29.5 60t70.5 25
q39 0 68 -23q5 46 30 77t57 31q21 0 35.5 -13t14.5 -32t-13 -32t-32 -13t-32 13t-13 32v5q-28 -31 -30 -85q15 -20 15 -45q0 -31 -22.5 -54t-57.5 -29v-46q67 -21 108 -70t41 -111q0 -66 -55 -113t-132 -47q-78 0 -137.5 39.5t-59.5 93.5q0 31 22 53t53 22h20q0 -77 38 -131
t92 -55q26 4 50 14v201q0 53 -40 82v-29q0 -25 -17.5 -42.5t-42.5 -17.5t-42.5 17.5t-17.5 42.5t17.5 42.5t42.5 17.5q20 0 40 -4v39q-41 0 -70.5 25t-29.5 60zM150 -24q-20 4 -40 4q-17 0 -28.5 -11.5t-11.5 -28.5t11.5 -28.5t28.5 -11.5t28.5 11.5t11.5 28.5v36zM11 -162
h-1q-23 0 -39 -16t-16 -39q0 -40 41 -71t100 -39q-35 23 -58 67t-27 98zM170 57q26 5 43 23t17 40t-17 39.5t-43 23.5v-126zM150 55v130q-33 0 -56.5 -19t-23.5 -46t23.5 -46t56.5 -19zM285 265v-20q0 -10 7.5 -17.5t17.5 -7.5t17.5 7.5t7.5 17.5t-9 17.5t-21 7.5
q-10 0 -20 -5zM230 -303q32 19 50.5 49t18.5 64q0 44 -24 80.5t-65 60.5q20 -29 20 -64v-190z" />
    <glyph glyph-name="t.aba" unicode="&#xe008;" horiz-adv-x="300" 
d="M243 52l14 -14q-43 -43 -102 -43q-33 0 -56.5 23.5t-23.5 56.5v105h-50v20h55q31 0 53 22t22 53v45h20v-120h83v70h20v-120h-20v30h-83v-95q0 -20 14 -34.5t34 -15.5q11 7 20 17zM197 22q-42 17 -42 63v134q-22 -32 -60 -38v-106q0 -25 17.5 -42.5t42.5 -17.5q24 0 42 7z
" />
    <glyph glyph-name="tcommaaccent.aba" unicode="&#xe009;" horiz-adv-x="300" 
d="M202 -139q-23 -43 -65 -43h-49q-1 -3 -1 -6q0 -18 14.5 -31.5t35.5 -13.5q29 0 49.5 20.5t20.5 48.5q0 13 -5 25zM190 -118q-25 29 -66 29h-13l23 87q-26 7 -42.5 28.5t-16.5 48.5v105h-50v20h55q31 0 53 22t22 53v45h20v-120h83v70h20v-120h-20v30h-83v-95
q0 -20 14 -34.5t34 -15.5q11 7 20 17l14 -14q-43 -43 -102 -43h-1l-17 -65q52 -6 77 -48q13 -21 13 -46q0 -37 -26.5 -63t-63.5 -26q-29 0 -49.5 19t-20.5 46q0 10 4 20l2 6h64q17 0 31.5 12t21.5 32zM197 22q-42 17 -42 63v134q-22 -32 -60 -38v-106q0 -25 17.5 -42.5
t42.5 -17.5q24 0 42 7z" />
    <glyph glyph-name="tbar.aba" unicode="&#xe00a;" horiz-adv-x="300" 
d="M197 22q-42 17 -42 63v134q-22 -32 -60 -38v-106q0 -25 17.5 -42.5t42.5 -17.5q24 0 42 7zM243 52l14 -14q-43 -43 -102 -43q-33 0 -56.5 23.5t-23.5 56.5v40h-50v20h50v45h-50v20h55q31 0 53 22t22 53v45h20v-120h83v70h20v-90h-103v-45h70v-20h-70v-30q0 -20 14 -34.5
t34 -15.5q11 7 20 17z" />
    <glyph glyph-name="uni021B.aba" unicode="&#xe00b;" horiz-adv-x="300" 
d="M188 -174h-33q-21 0 -35.5 14.5t-14.5 35.5t14.5 35.5t35.5 14.5q25 0 42.5 -19t17.5 -45q0 -16 -4 -31q-9 -35 -34 -58t-58 -23v20q24 0 42 15t27 41zM194 -154q1 6 1 16q0 19 -12 31.5t-28 12.5q-12 0 -21 -8.5t-9 -21t9 -21.5t21 -9h39zM243 52l14 -14
q-43 -43 -102 -43q-33 0 -56.5 23.5t-23.5 56.5v105h-50v20h55q31 0 53 22t22 53v45h20v-120h83v70h20v-120h-20v30h-83v-95q0 -20 14 -34.5t34 -15.5q11 7 20 17zM197 22q-42 17 -42 63v134q-22 -32 -60 -38v-106q0 -25 17.5 -42.5t42.5 -17.5q24 0 42 7z" />
    <glyph glyph-name="k.abw" unicode="&#xe00c;" horiz-adv-x="405" 
d="M90 20h60v510h-60v-510zM10 0v20h60v510h-50v20h150v-455q17 3 37 23l64 64l3 3h-46v20h100q16 0 30 -6l-8 -18q-11 4 -22 4q-26 0 -43 -17l-21 -21q29 -16 56 -70q14 -27 35.5 -43.5t46.5 -16.5q13 3 28 8v-20q-42 -15 -91 -15q-91 0 -125 68q-6 12 -15 27
q-14 -9 -29 -10v-75h-160zM354 10q-32 19 -52 58q-28 53 -52 65l-29 -29l-6 -6l17 -31q29 -57 107 -57h15z" />
    <glyph glyph-name="kcommaaccent.abw" unicode="&#xe00d;" horiz-adv-x="405" 
d="M253 -174h-33q-21 0 -35.5 14.5t-14.5 35.5t14.5 35.5t35.5 14.5q25 0 42.5 -19t17.5 -45q0 -16 -4 -31q-9 -35 -34 -58t-58 -23v20q24 0 42 15t27 41zM259 -154q1 6 1 16q0 19 -12 31.5t-28 12.5q-12 0 -21 -8.5t-9 -21t9 -21.5t21 -9h39zM90 20h60v510h-60v-510zM10 0
v20h60v510h-50v20h150v-455q17 3 37 23l64 64l3 3h-46v20h100q16 0 30 -6l-8 -18q-11 4 -22 4q-26 0 -43 -17l-21 -21q29 -16 56 -70q14 -27 35.5 -43.5t46.5 -16.5q13 3 28 8v-20q-42 -15 -91 -15q-91 0 -125 68q-6 12 -15 27q-14 -9 -29 -10v-75h-160zM354 10
q-32 19 -52 58q-28 53 -52 65l-29 -29l-6 -6l17 -31q29 -57 107 -57h15z" />
    <glyph glyph-name="kgreenlandic.abw" unicode="&#xe00e;" horiz-adv-x="405" 
d="M90 20h60v160h-60v-160zM70 0h-60v20h60v160h-50v20h150v-105q17 3 37 23l64 64l3 3h-46v20h100q16 0 30 -6l-8 -18q-11 4 -22 4q-26 0 -43 -17l-21 -21q29 -16 56 -70q14 -27 35.5 -43.5t46.5 -16.5q13 3 28 8v-20q-42 -15 -91 -15q-91 0 -125 68q-6 12 -15 27
q-14 -9 -29 -10v-75h-100zM354 10q-32 19 -52 58q-28 53 -52 65l-29 -29l-6 -6l17 -31q29 -57 107 -57h15z" />
    <glyph glyph-name="y.aba" unicode="&#xe00f;" horiz-adv-x="345" 
d="M180 23l16 16q0 60 -40 100l-28 29q-18 18 -43 18t-42 -19l-4 -3zM324 -82v-60q0 -57 -15.5 -103.5t-43.5 -73.5q57 18 90.5 62t33.5 100q0 31 -19 53t-46 22zM324 -62q35 0 60 -28t25 -67q0 -82 -60.5 -137.5t-156.5 -55.5q-73 0 -125 47t-52 113q0 48 54 102l97 97
l-155 155l17 18q24 24 57 24t57 -24l28 -28q39 -39 45 -96l78 78q11 11 11 25q0 12 -8.5 20.5t-24.5 8.5h-27v20h27q24 0 38.5 -14.5t14.5 -34.5q0 -22 -17 -39l-142 -142q-39 -39 -39 -90v-207q31 -13 66 -13q53 0 82.5 53.5t29.5 134.5v80h20zM106 -307v197q0 18 5 36
l-28 -28q-48 -48 -48 -88q0 -36 19 -67t52 -50z" />
    <glyph glyph-name="yacute.aba" unicode="&#xe010;" horiz-adv-x="345" 
d="M155 300l25 100h120l-110 -100h-35zM174 309h1l78 73h-59zM180 23l16 16q0 60 -40 100l-28 29q-18 18 -43 18t-42 -19l-4 -3zM324 -82v-60q0 -57 -15.5 -103.5t-43.5 -73.5q57 18 90.5 62t33.5 100q0 31 -19 53t-46 22zM324 -62q35 0 60 -28t25 -67q0 -82 -60.5 -137.5
t-156.5 -55.5q-73 0 -125 47t-52 113q0 48 54 102l97 97l-155 155l17 18q24 24 57 24t57 -24l28 -28q39 -39 45 -96l78 78q11 11 11 25q0 12 -8.5 20.5t-24.5 8.5h-27v20h27q24 0 38.5 -14.5t14.5 -34.5q0 -22 -17 -39l-142 -142q-39 -39 -39 -90v-207q31 -13 66 -13
q53 0 82.5 53.5t29.5 134.5v80h20zM106 -307v197q0 18 5 36l-28 -28q-48 -48 -48 -88q0 -36 19 -67t52 -50z" />
    <glyph glyph-name="ydieresis.aba" unicode="&#xe011;" horiz-adv-x="345" 
d="M210 350q0 17 11.5 28.5t28.5 11.5t28.5 -11.5t11.5 -28.5t-11.5 -28.5t-28.5 -11.5t-28.5 11.5t-11.5 28.5zM230 350q0 -8 6 -14t14 -6t14 6t6 14t-6 14t-14 6t-14 -6t-6 -14zM90 350q0 17 11.5 28.5t28.5 11.5t28.5 -11.5t11.5 -28.5t-11.5 -28.5t-28.5 -11.5
t-28.5 11.5t-11.5 28.5zM110 350q0 -8 6 -14t14 -6t14 6t6 14t-6 14t-14 6t-14 -6t-6 -14zM180 23l16 16q0 60 -40 100l-28 29q-18 18 -43 18t-42 -19l-4 -3zM324 -82v-60q0 -57 -15.5 -103.5t-43.5 -73.5q57 18 90.5 62t33.5 100q0 31 -19 53t-46 22zM324 -62q35 0 60 -28
t25 -67q0 -82 -60.5 -137.5t-156.5 -55.5q-73 0 -125 47t-52 113q0 48 54 102l97 97l-155 155l17 18q24 24 57 24t57 -24l28 -28q39 -39 45 -96l78 78q11 11 11 25q0 12 -8.5 20.5t-24.5 8.5h-27v20h27q24 0 38.5 -14.5t14.5 -34.5q0 -22 -17 -39l-142 -142q-39 -39 -39 -90
v-207q31 -13 66 -13q53 0 82.5 53.5t29.5 134.5v80h20zM106 -307v197q0 18 5 36l-28 -28q-48 -48 -48 -88q0 -36 19 -67t52 -50z" />
    <glyph glyph-name="ycircumflex.aba" unicode="&#xe012;" horiz-adv-x="345" 
d="M200 316l65 11l-57 53h-36l-57 -53l65 -10v38h20v-39zM293 311l-93 -15h-20l-93 15v17l77 72h52l77 -72v-17zM180 23l16 16q0 60 -40 100l-28 29q-18 18 -43 18t-42 -19l-4 -3zM324 -82v-60q0 -57 -15.5 -103.5t-43.5 -73.5q57 18 90.5 62t33.5 100q0 31 -19 53t-46 22z
M324 -62q35 0 60 -28t25 -67q0 -82 -60.5 -137.5t-156.5 -55.5q-73 0 -125 47t-52 113q0 48 54 102l97 97l-155 155l17 18q24 24 57 24t57 -24l28 -28q39 -39 45 -96l78 78q11 11 11 25q0 12 -8.5 20.5t-24.5 8.5h-27v20h27q24 0 38.5 -14.5t14.5 -34.5q0 -22 -17 -39
l-142 -142q-39 -39 -39 -90v-207q31 -13 66 -13q53 0 82.5 53.5t29.5 134.5v80h20zM106 -307v197q0 18 5 36l-28 -28q-48 -48 -48 -88q0 -36 19 -67t52 -50z" />
    <glyph glyph-name="uni0233.aba" unicode="&#xe013;" horiz-adv-x="345" 
d="M120 370v-40h140v40h-140zM100 390h180v-80h-180v80zM180 23l16 16q0 60 -40 100l-28 29q-18 18 -43 18t-42 -19l-4 -3zM324 -82v-60q0 -57 -15.5 -103.5t-43.5 -73.5q57 18 90.5 62t33.5 100q0 31 -19 53t-46 22zM324 -62q35 0 60 -28t25 -67q0 -82 -60.5 -137.5
t-156.5 -55.5q-73 0 -125 47t-52 113q0 48 54 102l97 97l-155 155l17 18q24 24 57 24t57 -24l28 -28q39 -39 45 -96l78 78q11 11 11 25q0 12 -8.5 20.5t-24.5 8.5h-27v20h27q24 0 38.5 -14.5t14.5 -34.5q0 -22 -17 -39l-142 -142q-39 -39 -39 -90v-207q31 -13 66 -13
q53 0 82.5 53.5t29.5 134.5v80h20zM106 -307v197q0 18 5 36l-28 -28q-48 -48 -48 -88q0 -36 19 -67t52 -50z" />
    <glyph glyph-name="uni1E8F.aba" unicode="&#xe014;" horiz-adv-x="345" 
d="M160 350q0 -12 9 -21t21 -9t21 9t9 21t-9 21t-21 9t-21 -9t-9 -21zM140 350q0 21 14.5 35.5t35.5 14.5t35.5 -14.5t14.5 -35.5t-14.5 -35.5t-35.5 -14.5t-35.5 14.5t-14.5 35.5zM180 23l16 16q0 60 -40 100l-28 29q-18 18 -43 18t-42 -19l-4 -3zM324 -82v-60
q0 -57 -15.5 -103.5t-43.5 -73.5q57 18 90.5 62t33.5 100q0 31 -19 53t-46 22zM324 -62q35 0 60 -28t25 -67q0 -82 -60.5 -137.5t-156.5 -55.5q-73 0 -125 47t-52 113q0 48 54 102l97 97l-155 155l17 18q24 24 57 24t57 -24l28 -28q39 -39 45 -96l78 78q11 11 11 25
q0 12 -8.5 20.5t-24.5 8.5h-27v20h27q24 0 38.5 -14.5t14.5 -34.5q0 -22 -17 -39l-142 -142q-39 -39 -39 -90v-207q31 -13 66 -13q53 0 82.5 53.5t29.5 134.5v80h20zM106 -307v197q0 18 5 36l-28 -28q-48 -48 -48 -88q0 -36 19 -67t52 -50z" />
    <glyph glyph-name="ygrave.aba" unicode="&#xe015;" horiz-adv-x="345" 
d="M225 300h-35l-110 100h120zM206 309l-20 73h-59l78 -73h1zM180 23l16 16q0 60 -40 100l-28 29q-18 18 -43 18t-42 -19l-4 -3zM324 -82v-60q0 -57 -15.5 -103.5t-43.5 -73.5q57 18 90.5 62t33.5 100q0 31 -19 53t-46 22zM324 -62q35 0 60 -28t25 -67q0 -82 -60.5 -137.5
t-156.5 -55.5q-73 0 -125 47t-52 113q0 48 54 102l97 97l-155 155l17 18q24 24 57 24t57 -24l28 -28q39 -39 45 -96l78 78q11 11 11 25q0 12 -8.5 20.5t-24.5 8.5h-27v20h27q24 0 38.5 -14.5t14.5 -34.5q0 -22 -17 -39l-142 -142q-39 -39 -39 -90v-207q31 -13 66 -13
q53 0 82.5 53.5t29.5 134.5v80h20zM106 -307v197q0 18 5 36l-28 -28q-48 -48 -48 -88q0 -36 19 -67t52 -50z" />
    <glyph glyph-name="uni1EF9.aba" unicode="&#xe016;" horiz-adv-x="345" 
d="M299 357q0 -26 -16 -45t-37 -19q-19 0 -56 15q-35 14 -52 15q-16 0 -36 -16l-12 -10l-4 15q-4 15 -4 26q0 26 16 45t37 19q19 0 56 -15q35 -14 52 -15q16 0 36 16l12 10l4 -15q4 -15 4 -26zM279 356q0 4 -1 7q-18 -11 -35 -11q-22 0 -60 16q-33 14 -48 14
q-13 0 -22.5 -12.5t-10.5 -30.5q0 -5 1 -7q18 11 35 11q22 0 60 -16q33 -14 48 -14q14 0 23.5 12.5t9.5 30.5zM180 23l16 16q0 60 -40 100l-28 29q-18 18 -43 18t-42 -19l-4 -3zM324 -82v-60q0 -57 -15.5 -103.5t-43.5 -73.5q57 18 90.5 62t33.5 100q0 31 -19 53t-46 22z
M324 -62q35 0 60 -28t25 -67q0 -82 -60.5 -137.5t-156.5 -55.5q-73 0 -125 47t-52 113q0 48 54 102l97 97l-155 155l17 18q24 24 57 24t57 -24l28 -28q39 -39 45 -96l78 78q11 11 11 25q0 12 -8.5 20.5t-24.5 8.5h-27v20h27q24 0 38.5 -14.5t14.5 -34.5q0 -22 -17 -39
l-142 -142q-39 -39 -39 -90v-207q31 -13 66 -13q53 0 82.5 53.5t29.5 134.5v80h20zM106 -307v197q0 18 5 36l-28 -28q-48 -48 -48 -88q0 -36 19 -67t52 -50z" />
    <glyph glyph-name="uniE017" unicode="&#xe017;" horiz-adv-x="190" 
d="M42 167h70v-77h-70v77z" />
    <glyph glyph-name="uniE018" unicode="&#xe018;" horiz-adv-x="190" 
d="M42 167h70v-77h-70v77z" />
    <glyph glyph-name="uniE019" unicode="&#xe019;" horiz-adv-x="190" 
d="M42 167h70v-77h-70v77z" />
    <glyph glyph-name="uniE01A" unicode="&#xe01a;" horiz-adv-x="190" 
d="M42 167h70v-77h-70v77z" />
    <glyph glyph-name="uniE01B" unicode="&#xe01b;" horiz-adv-x="190" 
d="M42 167h70v-77h-70v77z" />
    <glyph glyph-name="uniE01C" unicode="&#xe01c;" horiz-adv-x="190" 
d="M42 167h70v-77h-70v77z" />
    <glyph glyph-name="uniE01D" unicode="&#xe01d;" horiz-adv-x="190" 
d="M42 167h70v-77h-70v77z" />
    <glyph glyph-name="uniE01E" unicode="&#xe01e;" horiz-adv-x="190" 
d="M42 167h70v-77h-70v77z" />
    <glyph glyph-name="uniE01F" unicode="&#xe01f;" horiz-adv-x="190" 
d="M42 167h70v-77h-70v77z" />
    <glyph glyph-name="uniE020" unicode="&#xe020;" horiz-adv-x="190" 
d="M42 167h70v-77h-70v77z" />
    <glyph glyph-name="uniE021" unicode="&#xe021;" horiz-adv-x="190" 
d="M42 167h70v-77h-70v77z" />
    <glyph glyph-name="uniE022" unicode="&#xe022;" horiz-adv-x="190" 
d="M42 167h70v-77h-70v77z" />
    <glyph glyph-name="uniE023" unicode="&#xe023;" horiz-adv-x="190" 
d="M42 167h70v-77h-70v77z" />
    <glyph glyph-name="uniE024" unicode="&#xe024;" horiz-adv-x="190" 
d="M42 167h70v-77h-70v77z" />
    <glyph glyph-name="uniE025" unicode="&#xe025;" horiz-adv-x="190" 
d="M42 167h70v-77h-70v77z" />
    <glyph glyph-name="uniE026" unicode="&#xe026;" horiz-adv-x="190" 
d="M42 167h70v-77h-70v77z" />
    </font>
</defs>
</svg>
